<svg xmlns="http://www.w3.org/2000/svg" xmlns:xlink="http://www.w3.org/1999/xlink" width="500" zoomAndPan="magnify" viewBox="0 0 375 374.999991" height="500" preserveAspectRatio="xMidYMid meet" version="1.0"><defs><clipPath id="c23c9744aa"><path d="M 79 13.59375 L 139 13.59375 L 139 62 L 79 62 Z M 79 13.59375 " clip-rule="nonzero"/></clipPath><clipPath id="43f5f56a0e"><path d="M 73.257812 211.484375 L 375 211.484375 L 375 347.871094 L 73.257812 347.871094 Z M 73.257812 211.484375 " clip-rule="nonzero"/></clipPath><clipPath id="14be90a910"><path d="M 59 255.089844 L 163 255.089844 L 163 361.3125 L 59 361.3125 Z M 59 255.089844 " clip-rule="nonzero"/></clipPath></defs><rect x="-37.5" width="450" fill="#ffffff" y="-37.499999" height="449.999989" fill-opacity="1"/><rect x="-37.5" width="450" fill="#ffffff" y="-37.499999" height="449.999989" fill-opacity="1"/><path fill="#2b8389" d="M 204.199219 48.246094 L 13.222656 48.246094 C 5.917969 48.246094 0 54.167969 0 61.472656 L 0 315.785156 C 0 323.09375 5.917969 329.015625 13.222656 329.015625 L 204.199219 329.015625 C 211.5 329.015625 217.417969 323.09375 217.417969 315.785156 L 217.417969 61.472656 C 217.417969 54.167969 211.5 48.246094 204.199219 48.246094 " fill-opacity="1" fill-rule="nonzero"/><path fill="#d1d1d1" d="M 207.046875 312.28125 L 15.527344 316.21875 L 10.375 64.980469 L 201.890625 61.042969 L 207.046875 312.28125 " fill-opacity="1" fill-rule="nonzero"/><path fill="#e0e0e0" d="M 199.847656 317.683594 L 8.417969 310.699219 L 17.570312 59.574219 L 209 66.5625 L 199.847656 317.683594 " fill-opacity="1" fill-rule="nonzero"/><path fill="#ffffff" d="M 16.488281 62.984375 L 16.488281 314.273438 L 165.84375 314.273438 L 208.046875 272.050781 L 208.046875 62.984375 L 16.488281 62.984375 " fill-opacity="1" fill-rule="nonzero"/><path fill="#ededed" d="M 208.046875 272.050781 L 165.84375 272.050781 L 165.84375 314.273438 Z M 208.046875 272.050781 " fill-opacity="1" fill-rule="nonzero"/><g clip-path="url(#c23c9744aa)"><path fill="#f9d210" d="M 108.707031 29.523438 C 105.679688 29.523438 103.222656 27.066406 103.222656 24.035156 C 103.222656 21.003906 105.679688 18.546875 108.707031 18.546875 C 111.738281 18.546875 114.195312 21.003906 114.195312 24.035156 C 114.195312 27.066406 111.738281 29.523438 108.707031 29.523438 Z M 132.996094 37.171875 C 129.070312 34.167969 125.925781 30.25 124.089844 25.664062 C 121.292969 18.667969 115.457031 13.859375 108.707031 13.859375 C 101.964844 13.859375 96.128906 18.667969 93.328125 25.664062 C 91.492188 30.25 88.34375 34.167969 84.425781 37.171875 C 81.171875 39.664062 79.269531 42.683594 79.269531 45.933594 C 79.269531 54.496094 92.449219 61.429688 108.707031 61.429688 C 124.96875 61.429688 138.148438 54.496094 138.148438 45.933594 C 138.148438 42.683594 136.246094 39.664062 132.996094 37.171875 " fill-opacity="1" fill-rule="nonzero"/></g><path fill="#f9d210" d="M 154.585938 44.390625 L 62.832031 44.390625 C 53.71875 44.390625 46.328125 51.785156 46.328125 60.902344 L 46.328125 67.207031 L 171.089844 67.207031 L 171.089844 60.902344 C 171.089844 51.785156 163.699219 44.390625 154.585938 44.390625 " fill-opacity="1" fill-rule="nonzero"/><path fill="#f2c60f" d="M 47.132812 55.800781 C 46.609375 57.410156 46.328125 59.121094 46.328125 60.902344 L 46.328125 67.207031 L 171.089844 67.207031 L 171.089844 60.902344 C 171.089844 59.121094 170.808594 57.410156 170.285156 55.800781 L 47.132812 55.800781 " fill-opacity="1" fill-rule="nonzero"/><path fill="#e8be10" d="M 171.089844 67.140625 L 46.328125 67.140625 L 46.328125 61.316406 L 171.089844 61.316406 L 171.089844 67.140625 " fill-opacity="1" fill-rule="nonzero"/><path fill="#ffffff" d="M 62.679688 149.007812 L 31.339844 149.007812 L 31.339844 114.242188 L 62.679688 114.242188 L 62.679688 149.007812 " fill-opacity="1" fill-rule="nonzero"/><path fill="#8d8d8e" d="M 62.679688 149.007812 L 60.839844 141.488281 C 60.503906 140.117188 59.40625 139.070312 58.023438 138.789062 C 52.933594 137.765625 47.207031 138.152344 47.207031 138.152344 C 47.207031 138.152344 41.117188 137.71875 35.859375 138.933594 C 34.546875 139.238281 33.519531 140.273438 33.191406 141.585938 L 31.339844 149.007812 L 62.679688 149.007812 " fill-opacity="1" fill-rule="nonzero"/><path fill="#aeb2b5" d="M 52.875 138.742188 C 49.996094 136.09375 51.433594 130.976562 51.433594 130.976562 L 43.128906 130.976562 C 43.128906 130.976562 44.566406 136.09375 41.6875 138.742188 C 41.128906 139.257812 43.925781 139.910156 47.28125 139.964844 C 50.636719 139.910156 53.433594 139.257812 52.875 138.742188 " fill-opacity="1" fill-rule="nonzero"/><path fill="#464a4f" d="M 52.496094 134.191406 L 49.464844 136.757812 C 49.238281 136.921875 48.414062 137.011719 48.136719 137.011719 L 46.425781 137.011719 C 46.148438 137.011719 45.324219 136.921875 45.097656 136.757812 L 42.066406 134.191406 C 41.695312 133.925781 41.476562 133.484375 41.476562 133.015625 L 41.476562 125.476562 C 41.476562 122.4375 43.828125 119.96875 46.734375 119.96875 L 47.828125 119.96875 C 50.734375 119.96875 53.089844 122.4375 53.089844 125.476562 L 53.089844 133.015625 C 53.089844 133.484375 52.867188 133.925781 52.496094 134.191406 " fill-opacity="1" fill-rule="nonzero"/><path fill="#aeb2b5" d="M 47.804688 118.136719 L 46.761719 118.136719 C 43.980469 118.136719 41.730469 120.253906 41.730469 122.859375 L 41.730469 129.324219 C 41.730469 129.726562 41.941406 130.101562 42.296875 130.335938 L 43.875 130.921875 C 44.15625 129.558594 45.367188 128.96875 46.808594 128.96875 L 47.753906 128.96875 C 49.195312 128.96875 50.40625 129.558594 50.6875 130.921875 L 52.265625 130.335938 C 52.617188 130.101562 52.828125 129.726562 52.828125 129.324219 L 52.828125 122.859375 C 52.828125 120.253906 50.578125 118.136719 47.804688 118.136719 " fill-opacity="1" fill-rule="nonzero"/><path fill="#464a4f" d="M 43.382812 118.398438 C 41.601562 119.289062 41.332031 121.03125 41.332031 123.039062 L 41.445312 125.070312 C 41.445312 125.121094 41.625 125.382812 41.921875 125.480469 L 41.921875 123.796875 C 41.921875 122.675781 42.257812 122.007812 42.824219 121.160156 C 44.066406 121.445312 45.648438 121.613281 47.371094 121.613281 C 49.097656 121.613281 50.679688 121.445312 51.917969 121.160156 C 52.488281 122.007812 52.824219 122.675781 52.824219 123.796875 L 52.824219 125.523438 C 53.011719 125.496094 53.230469 125.148438 53.230469 125.085938 L 53.230469 123.039062 C 53.230469 121.039062 53.117188 119.300781 51.398438 118.40625 C 50.621094 118.003906 49.710938 117.625 49.316406 116.128906 L 43.382812 118.398438 " fill-opacity="1" fill-rule="nonzero"/><path fill="#aeb2b5" d="M 42.140625 125.480469 L 42.140625 128.207031 C 42.140625 128.207031 41.839844 128.84375 41.421875 128.207031 C 41.003906 127.570312 41.207031 127.554688 40.75 126.984375 C 40.382812 126.535156 40.933594 123.464844 42.140625 125.480469 " fill-opacity="1" fill-rule="nonzero"/><path fill="#aeb2b5" d="M 52.421875 125.480469 L 52.421875 128.207031 C 52.421875 128.207031 52.722656 128.84375 53.136719 128.207031 C 53.558594 127.570312 53.355469 127.554688 53.8125 126.984375 C 54.179688 126.535156 53.628906 123.464844 52.421875 125.480469 " fill-opacity="1" fill-rule="nonzero"/><path fill="#b7b6b6" d="M 62.679688 149.007812 L 60.839844 141.488281 C 60.503906 140.117188 59.40625 139.070312 58.023438 138.789062 C 56.632812 138.511719 55.195312 138.335938 53.84375 138.230469 C 55.199219 138.335938 56.632812 138.511719 58.023438 138.789062 C 59.40625 139.066406 60.503906 140.109375 60.839844 141.480469 L 62.679688 149.007812 M 53.820312 138.226562 C 53.820312 138.226562 53.816406 138.226562 53.816406 138.226562 C 53.816406 138.226562 53.820312 138.226562 53.820312 138.226562 M 52.324219 138.132812 C 52.320312 138.132812 52.320312 138.132812 52.316406 138.132812 C 51.664062 137.289062 51.332031 136.289062 51.179688 135.308594 L 52.496094 134.191406 C 52.867188 133.925781 53.089844 133.484375 53.089844 133.015625 L 53.089844 128.285156 L 53.089844 133.015625 C 53.089844 133.484375 52.867188 133.921875 52.496094 134.191406 L 51.183594 135.308594 C 51.332031 136.289062 51.667969 137.289062 52.324219 138.132812 " fill-opacity="1" fill-rule="nonzero"/><path fill="#6d6c6d" d="M 62.679688 149.007812 L 47.007812 149.007812 L 47.007812 139.960938 C 47.101562 139.960938 47.191406 139.964844 47.28125 139.964844 C 50.636719 139.910156 53.433594 139.257812 52.875 138.742188 C 52.667969 138.550781 52.484375 138.347656 52.316406 138.132812 C 52.320312 138.132812 52.320312 138.132812 52.324219 138.132812 C 52.804688 138.160156 53.304688 138.1875 53.816406 138.226562 C 53.816406 138.226562 53.820312 138.226562 53.820312 138.226562 C 53.828125 138.226562 53.835938 138.226562 53.84375 138.230469 C 55.195312 138.335938 56.632812 138.511719 58.023438 138.789062 C 59.40625 139.070312 60.503906 140.117188 60.839844 141.488281 L 62.679688 149.007812 " fill-opacity="1" fill-rule="nonzero"/><path fill="#828486" d="M 47.28125 139.964844 C 47.191406 139.964844 47.101562 139.960938 47.007812 139.960938 L 47.007812 137.011719 L 48.136719 137.011719 C 48.414062 137.011719 49.238281 136.921875 49.464844 136.757812 L 51.179688 135.308594 C 51.332031 136.289062 51.664062 137.289062 52.316406 138.132812 C 52.484375 138.347656 52.667969 138.550781 52.875 138.742188 C 53.433594 139.257812 50.636719 139.910156 47.28125 139.964844 " fill-opacity="1" fill-rule="nonzero"/><path fill="#3e4144" d="M 48.136719 137.011719 L 47.007812 137.011719 L 47.007812 128.96875 L 47.753906 128.96875 C 49.195312 128.96875 50.40625 129.558594 50.6875 130.921875 L 52.265625 130.335938 C 52.617188 130.101562 52.828125 129.726562 52.828125 129.324219 L 52.828125 128.484375 C 52.90625 128.464844 52.992188 128.40625 53.089844 128.285156 L 53.089844 133.015625 C 53.089844 133.484375 52.867188 133.925781 52.496094 134.191406 L 51.179688 135.308594 L 49.464844 136.757812 C 49.238281 136.921875 48.414062 137.011719 48.136719 137.011719 " fill-opacity="1" fill-rule="nonzero"/><path fill="#828486" d="M 50.6875 130.921875 C 50.40625 129.558594 49.195312 128.96875 47.753906 128.96875 L 47.007812 128.96875 L 47.007812 121.609375 C 47.128906 121.613281 47.253906 121.613281 47.371094 121.613281 C 49.097656 121.613281 50.679688 121.445312 51.917969 121.160156 C 52.488281 122.007812 52.824219 122.675781 52.824219 123.796875 L 52.824219 124.964844 C 52.699219 125.074219 52.566406 125.242188 52.421875 125.480469 L 52.421875 128.207031 C 52.421875 128.207031 52.554688 128.492188 52.769531 128.492188 C 52.789062 128.492188 52.808594 128.488281 52.828125 128.484375 L 52.828125 129.324219 C 52.828125 129.726562 52.617188 130.101562 52.265625 130.335938 L 50.6875 130.921875 " fill-opacity="1" fill-rule="nonzero"/><path fill="#b7b6b6" d="M 53.230469 124.804688 L 53.230469 123.039062 C 53.230469 121.039062 53.117188 119.300781 51.398438 118.40625 C 50.621094 118.003906 49.710938 117.625 49.316406 116.128906 L 47.007812 117.011719 L 49.320312 116.125 C 49.710938 117.625 50.625 118.003906 51.398438 118.40625 C 53.121094 119.300781 53.230469 121.039062 53.230469 123.039062 L 53.230469 124.804688 " fill-opacity="1" fill-rule="nonzero"/><path fill="#3e4144" d="M 52.824219 124.964844 L 52.824219 123.796875 C 52.824219 122.675781 52.488281 122.007812 51.917969 121.160156 C 50.679688 121.445312 49.097656 121.613281 47.371094 121.613281 C 47.253906 121.613281 47.128906 121.613281 47.007812 121.609375 L 47.007812 117.011719 L 49.316406 116.128906 C 49.710938 117.625 50.621094 118.003906 51.398438 118.40625 C 53.117188 119.300781 53.230469 121.039062 53.230469 123.039062 L 53.230469 124.804688 C 53.214844 124.804688 53.195312 124.800781 53.183594 124.800781 C 53.074219 124.800781 52.953125 124.851562 52.824219 124.964844 " fill-opacity="1" fill-rule="nonzero"/><path fill="#b7b6b6" d="M 53.136719 128.214844 C 53.136719 128.214844 53.136719 128.210938 53.136719 128.207031 C 53.558594 127.570312 53.355469 127.554688 53.8125 126.984375 C 53.992188 126.765625 53.949219 125.902344 53.714844 125.328125 C 53.949219 125.902344 53.992188 126.765625 53.8125 126.984375 C 53.355469 127.550781 53.558594 127.570312 53.140625 128.207031 L 53.136719 128.214844 " fill-opacity="1" fill-rule="nonzero"/><path fill="#828486" d="M 52.769531 128.492188 C 52.554688 128.492188 52.421875 128.207031 52.421875 128.207031 L 52.421875 125.480469 C 52.566406 125.242188 52.699219 125.074219 52.824219 124.964844 C 52.953125 124.851562 53.074219 124.800781 53.183594 124.800781 C 53.195312 124.800781 53.214844 124.804688 53.230469 124.804688 L 53.230469 124.808594 C 53.4375 124.835938 53.597656 125.046875 53.714844 125.328125 C 53.949219 125.902344 53.992188 126.765625 53.8125 126.984375 C 53.355469 127.554688 53.558594 127.570312 53.136719 128.207031 C 53.136719 128.210938 53.136719 128.214844 53.136719 128.214844 L 53.089844 128.28125 L 53.089844 128.285156 C 52.992188 128.40625 52.90625 128.464844 52.828125 128.484375 C 52.808594 128.488281 52.789062 128.492188 52.769531 128.492188 " fill-opacity="1" fill-rule="nonzero"/><path fill="#e0e0e0" d="M 110.1875 148.035156 L 72.628906 148.035156 L 72.628906 141.183594 L 110.1875 141.183594 L 110.1875 148.035156 " fill-opacity="1" fill-rule="nonzero"/><path fill="#e0e0e0" d="M 139.925781 134.566406 L 72.628906 134.566406 L 72.628906 127.714844 L 139.925781 127.714844 L 139.925781 134.566406 " fill-opacity="1" fill-rule="nonzero"/><path fill="#e0e0e0" d="M 120.832031 121.097656 L 72.628906 121.097656 L 72.628906 114.242188 L 120.832031 114.242188 L 120.832031 121.097656 " fill-opacity="1" fill-rule="nonzero"/><path fill="#e0e0e0" d="M 149.757812 187.628906 L 31.339844 187.628906 L 31.339844 180.777344 L 149.757812 180.777344 L 149.757812 187.628906 " fill-opacity="1" fill-rule="nonzero"/><path fill="#e0e0e0" d="M 194.984375 174.164062 L 31.339844 174.164062 L 31.339844 167.304688 L 194.984375 167.304688 L 194.984375 174.164062 " fill-opacity="1" fill-rule="nonzero"/><path fill="#e0e0e0" d="M 175.878906 160.691406 L 31.339844 160.691406 L 31.339844 153.835938 L 175.878906 153.835938 L 175.878906 160.691406 " fill-opacity="1" fill-rule="nonzero"/><path fill="#e0e0e0" d="M 113.628906 227.222656 L 31.339844 227.222656 L 31.339844 220.367188 L 113.628906 220.367188 L 113.628906 227.222656 " fill-opacity="1" fill-rule="nonzero"/><path fill="#e0e0e0" d="M 194.984375 213.753906 L 31.339844 213.753906 L 31.339844 206.898438 L 194.984375 206.898438 L 194.984375 213.753906 " fill-opacity="1" fill-rule="nonzero"/><path fill="#e0e0e0" d="M 179.320312 200.285156 L 31.339844 200.285156 L 31.339844 193.429688 L 179.320312 193.429688 L 179.320312 200.285156 " fill-opacity="1" fill-rule="nonzero"/><path fill="#e0e0e0" d="M 113.628906 299.523438 L 31.339844 299.523438 L 31.339844 292.671875 L 113.628906 292.671875 L 113.628906 299.523438 " fill-opacity="1" fill-rule="nonzero"/><path fill="#e0e0e0" d="M 62.503906 286.054688 L 31.339844 286.054688 L 31.339844 279.199219 L 62.503906 279.199219 L 62.503906 286.054688 " fill-opacity="1" fill-rule="nonzero"/><path fill="#e0e0e0" d="M 68.023438 254.925781 L 51.746094 254.925781 L 51.746094 251.519531 L 68.023438 251.519531 L 68.023438 254.925781 " fill-opacity="1" fill-rule="nonzero"/><path fill="#e0e0e0" d="M 82.152344 248.234375 L 51.746094 248.234375 L 51.746094 244.832031 L 82.152344 244.832031 L 82.152344 248.234375 " fill-opacity="1" fill-rule="nonzero"/><path fill="#e0e0e0" d="M 72.179688 241.542969 L 51.746094 241.542969 L 51.746094 238.140625 L 72.179688 238.140625 L 72.179688 241.542969 " fill-opacity="1" fill-rule="nonzero"/><path fill="#82c785" d="M 39.109375 251.703125 C 36.253906 251.703125 33.941406 249.386719 33.941406 246.53125 C 33.941406 243.675781 36.253906 241.363281 39.109375 241.363281 C 41.960938 241.363281 44.273438 243.675781 44.273438 246.53125 C 44.273438 249.386719 41.960938 251.703125 39.109375 251.703125 Z M 39.109375 238.140625 C 34.476562 238.140625 30.71875 241.894531 30.71875 246.53125 C 30.71875 251.167969 34.476562 254.925781 39.109375 254.925781 C 43.738281 254.925781 47.496094 251.167969 47.496094 246.53125 C 47.496094 241.894531 43.738281 238.140625 39.109375 238.140625 " fill-opacity="1" fill-rule="nonzero"/><path fill="#e0e0e0" d="M 125.71875 254.925781 L 109.441406 254.925781 L 109.441406 251.519531 L 125.71875 251.519531 L 125.71875 254.925781 " fill-opacity="1" fill-rule="nonzero"/><path fill="#e0e0e0" d="M 139.847656 248.234375 L 109.441406 248.234375 L 109.441406 244.832031 L 139.847656 244.832031 L 139.847656 248.234375 " fill-opacity="1" fill-rule="nonzero"/><path fill="#e0e0e0" d="M 129.875 241.542969 L 109.441406 241.542969 L 109.441406 238.140625 L 129.875 238.140625 L 129.875 241.542969 " fill-opacity="1" fill-rule="nonzero"/><path fill="#82c785" d="M 96.800781 251.703125 C 93.949219 251.703125 91.636719 249.386719 91.636719 246.53125 C 91.636719 243.675781 93.949219 241.363281 96.800781 241.363281 C 99.65625 241.363281 101.96875 243.675781 101.96875 246.53125 C 101.96875 249.386719 99.65625 251.703125 96.800781 251.703125 Z M 96.800781 238.140625 C 92.171875 238.140625 88.414062 241.894531 88.414062 246.53125 C 88.414062 251.167969 92.171875 254.925781 96.800781 254.925781 C 101.433594 254.925781 105.191406 251.167969 105.191406 246.53125 C 105.191406 241.894531 101.433594 238.140625 96.800781 238.140625 " fill-opacity="1" fill-rule="nonzero"/><path fill="#e0e0e0" d="M 183.414062 254.925781 L 167.136719 254.925781 L 167.136719 251.519531 L 183.414062 251.519531 L 183.414062 254.925781 " fill-opacity="1" fill-rule="nonzero"/><path fill="#e0e0e0" d="M 197.542969 248.234375 L 167.136719 248.234375 L 167.136719 244.832031 L 197.542969 244.832031 L 197.542969 248.234375 " fill-opacity="1" fill-rule="nonzero"/><path fill="#e0e0e0" d="M 187.570312 241.542969 L 167.136719 241.542969 L 167.136719 238.140625 L 187.570312 238.140625 L 187.570312 241.542969 " fill-opacity="1" fill-rule="nonzero"/><path fill="#82c785" d="M 154.496094 251.703125 C 151.640625 251.703125 149.332031 249.386719 149.332031 246.53125 C 149.332031 243.675781 151.640625 241.363281 154.496094 241.363281 C 157.351562 241.363281 159.664062 243.675781 159.664062 246.53125 C 159.664062 249.386719 157.351562 251.703125 154.496094 251.703125 Z M 154.496094 238.140625 C 149.863281 238.140625 146.109375 241.894531 146.109375 246.53125 C 146.109375 251.167969 149.863281 254.925781 154.496094 254.925781 C 159.128906 254.925781 162.886719 251.167969 162.886719 246.53125 C 162.886719 241.894531 159.128906 238.140625 154.496094 238.140625 " fill-opacity="1" fill-rule="nonzero"/><path fill="#d16565" d="M 47.546875 234.585938 L 47.066406 234.800781 C 46.960938 234.84375 46.859375 234.894531 46.757812 234.941406 L 46.589844 235.015625 C 46.242188 235.183594 45.933594 235.335938 45.644531 235.488281 C 45.332031 235.652344 45.019531 235.820312 44.71875 235.996094 C 44.429688 236.160156 44.132812 236.34375 43.804688 236.554688 L 43.371094 236.84375 L 43.363281 236.847656 L 43.210938 236.953125 C 43.117188 237.015625 43.023438 237.085938 42.925781 237.15625 L 42.835938 237.21875 C 42.726562 237.304688 42.609375 237.386719 42.5 237.476562 L 42.285156 237.644531 L 42.082031 237.808594 C 41.988281 237.882812 41.898438 237.964844 41.8125 238.039062 L 41.675781 238.160156 L 41.664062 238.167969 L 41.53125 238.285156 C 41.445312 238.367188 41.355469 238.445312 41.273438 238.527344 C 41.03125 238.753906 40.789062 239 40.511719 239.308594 C 40.285156 239.558594 40.058594 239.835938 39.8125 240.164062 C 39.585938 240.46875 39.378906 240.777344 39.191406 241.082031 C 38.792969 241.746094 38.480469 242.433594 38.25 243.136719 C 38.195312 243.304688 38.144531 243.484375 38.097656 243.660156 C 37.816406 243.296875 37.503906 242.941406 37.171875 242.601562 C 36.574219 241.984375 35.902344 241.40625 35.175781 240.875 C 34.816406 240.609375 34.453125 240.359375 34.085938 240.132812 C 33.894531 240.015625 33.703125 239.898438 33.511719 239.789062 C 33.414062 239.734375 33.3125 239.679688 33.210938 239.625 L 33.042969 239.539062 L 32.882812 239.460938 L 32.847656 239.445312 L 32.734375 239.398438 C 32.394531 239.273438 32.023438 239.292969 31.699219 239.449219 C 31.371094 239.605469 31.125 239.875 31.003906 240.21875 C 30.753906 240.921875 31.117188 241.695312 31.820312 241.949219 L 31.914062 241.984375 L 32.035156 242.039062 L 32.285156 242.152344 C 32.445312 242.230469 32.613281 242.3125 32.777344 242.398438 C 33.101562 242.570312 33.425781 242.761719 33.75 242.960938 C 34.394531 243.371094 35 243.820312 35.539062 244.300781 C 36.113281 244.816406 36.613281 245.359375 37.027344 245.925781 C 37.464844 246.523438 37.820312 247.160156 38.074219 247.8125 L 38.074219 247.816406 L 38.113281 247.910156 L 38.183594 248.089844 L 38.207031 248.078125 C 38.429688 248.390625 38.816406 248.554688 39.199219 248.488281 L 39.328125 248.457031 C 39.785156 248.316406 40.066406 247.875 40.03125 247.417969 L 40.058594 247.40625 L 39.976562 247.152344 C 39.941406 247.046875 39.902344 246.9375 39.863281 246.820312 L 39.855469 246.789062 L 39.84375 246.753906 C 39.808594 246.613281 39.777344 246.472656 39.75 246.324219 C 39.699219 246.03125 39.671875 245.730469 39.664062 245.421875 C 39.644531 244.816406 39.707031 244.195312 39.851562 243.585938 C 39.988281 242.984375 40.207031 242.382812 40.496094 241.796875 C 40.632812 241.519531 40.789062 241.230469 40.96875 240.953125 C 41.160156 240.644531 41.339844 240.378906 41.523438 240.144531 C 41.75 239.84375 41.949219 239.601562 42.152344 239.375 L 42.367188 239.140625 L 42.484375 239.015625 L 42.613281 238.882812 L 42.835938 238.660156 L 43.015625 238.484375 L 43.207031 238.308594 C 43.300781 238.21875 43.394531 238.132812 43.5 238.046875 L 43.578125 237.972656 L 43.824219 237.765625 L 43.96875 237.648438 L 44.363281 237.335938 C 44.65625 237.113281 44.921875 236.910156 45.183594 236.734375 C 45.464844 236.542969 45.75 236.351562 46.035156 236.167969 C 46.304688 236 46.589844 235.824219 46.910156 235.636719 L 47.070312 235.546875 C 47.164062 235.492188 47.261719 235.4375 47.359375 235.382812 L 47.8125 235.132812 L 47.546875 234.585938 " fill-opacity="1" fill-rule="nonzero"/><path fill="#d16565" d="M 105.605469 234.585938 L 105.128906 234.800781 C 105.023438 234.84375 104.921875 234.894531 104.816406 234.941406 L 104.652344 235.015625 C 104.304688 235.183594 103.996094 235.335938 103.707031 235.488281 C 103.394531 235.652344 103.082031 235.820312 102.777344 235.996094 C 102.492188 236.160156 102.195312 236.34375 101.867188 236.554688 L 101.429688 236.84375 L 101.421875 236.847656 L 101.269531 236.953125 C 101.175781 237.015625 101.082031 237.085938 100.988281 237.15625 L 100.898438 237.21875 C 100.785156 237.304688 100.671875 237.386719 100.558594 237.476562 L 100.347656 237.644531 L 100.144531 237.808594 C 100.050781 237.882812 99.960938 237.964844 99.875 238.039062 L 99.734375 238.160156 L 99.722656 238.167969 L 99.59375 238.285156 C 99.507812 238.367188 99.417969 238.445312 99.332031 238.527344 C 99.089844 238.753906 98.851562 239 98.574219 239.308594 C 98.347656 239.558594 98.121094 239.835938 97.875 240.164062 C 97.644531 240.46875 97.4375 240.777344 97.253906 241.082031 C 96.855469 241.746094 96.539062 242.433594 96.3125 243.136719 C 96.257812 243.304688 96.207031 243.484375 96.160156 243.660156 C 95.878906 243.296875 95.566406 242.941406 95.234375 242.601562 C 94.636719 241.984375 93.960938 241.40625 93.238281 240.875 C 92.878906 240.609375 92.511719 240.359375 92.148438 240.132812 C 91.953125 240.015625 91.761719 239.898438 91.574219 239.789062 C 91.476562 239.734375 91.375 239.679688 91.273438 239.625 L 91.105469 239.539062 L 90.945312 239.460938 L 90.90625 239.445312 L 90.796875 239.398438 C 90.457031 239.273438 90.085938 239.292969 89.757812 239.449219 C 89.433594 239.605469 89.183594 239.875 89.0625 240.21875 C 88.8125 240.921875 89.179688 241.695312 89.882812 241.949219 L 89.976562 241.984375 L 90.097656 242.039062 L 90.34375 242.152344 C 90.507812 242.230469 90.675781 242.3125 90.839844 242.398438 C 91.160156 242.570312 91.488281 242.761719 91.808594 242.960938 C 92.453125 243.371094 93.058594 243.820312 93.597656 244.300781 C 94.175781 244.816406 94.675781 245.359375 95.085938 245.925781 C 95.527344 246.523438 95.882812 247.160156 96.136719 247.8125 L 96.136719 247.816406 L 96.175781 247.910156 L 96.242188 248.089844 L 96.269531 248.078125 C 96.488281 248.390625 96.878906 248.554688 97.261719 248.488281 L 97.386719 248.457031 C 97.84375 248.316406 98.128906 247.875 98.089844 247.417969 L 98.121094 247.40625 L 98.035156 247.152344 C 98.003906 247.046875 97.964844 246.9375 97.925781 246.820312 L 97.917969 246.789062 L 97.90625 246.753906 C 97.871094 246.613281 97.835938 246.472656 97.8125 246.324219 C 97.761719 246.03125 97.730469 245.730469 97.726562 245.421875 C 97.703125 244.816406 97.769531 244.195312 97.914062 243.585938 C 98.050781 242.984375 98.269531 242.382812 98.558594 241.796875 C 98.695312 241.519531 98.851562 241.230469 99.027344 240.953125 C 99.222656 240.644531 99.402344 240.378906 99.582031 240.144531 C 99.8125 239.84375 100.011719 239.601562 100.214844 239.375 L 100.425781 239.140625 L 100.546875 239.015625 L 100.671875 238.882812 L 100.898438 238.660156 L 101.074219 238.484375 L 101.269531 238.308594 C 101.363281 238.21875 101.457031 238.132812 101.5625 238.046875 L 101.640625 237.972656 L 101.886719 237.765625 L 102.027344 237.648438 L 102.421875 237.335938 C 102.714844 237.113281 102.984375 236.910156 103.246094 236.734375 C 103.523438 236.542969 103.808594 236.351562 104.097656 236.167969 C 104.363281 236 104.652344 235.824219 104.972656 235.636719 L 105.132812 235.546875 C 105.226562 235.492188 105.324219 235.4375 105.417969 235.382812 L 105.875 235.132812 L 105.605469 234.585938 " fill-opacity="1" fill-rule="nonzero"/><path fill="#d16565" d="M 163.289062 234.148438 L 162.808594 234.355469 C 162.707031 234.402344 162.601562 234.453125 162.5 234.503906 L 162.332031 234.578125 C 161.988281 234.746094 161.675781 234.898438 161.386719 235.050781 C 161.074219 235.207031 160.761719 235.382812 160.460938 235.554688 C 160.171875 235.722656 159.878906 235.90625 159.550781 236.113281 L 159.113281 236.40625 L 159.105469 236.410156 L 158.957031 236.511719 C 158.863281 236.578125 158.765625 236.644531 158.667969 236.714844 L 158.582031 236.78125 C 158.46875 236.863281 158.355469 236.949219 158.242188 237.035156 L 158.027344 237.207031 L 157.824219 237.367188 C 157.730469 237.445312 157.640625 237.523438 157.554688 237.601562 L 157.417969 237.714844 L 157.40625 237.726562 L 157.273438 237.847656 C 157.1875 237.921875 157.097656 238.007812 157.015625 238.089844 C 156.773438 238.316406 156.53125 238.5625 156.253906 238.871094 C 156.027344 239.121094 155.800781 239.398438 155.558594 239.722656 C 155.328125 240.023438 155.121094 240.335938 154.933594 240.644531 C 154.539062 241.308594 154.222656 241.996094 153.996094 242.695312 C 153.9375 242.867188 153.886719 243.042969 153.839844 243.222656 C 153.558594 242.859375 153.246094 242.503906 152.917969 242.164062 C 152.316406 241.546875 151.644531 240.964844 150.921875 240.429688 C 150.5625 240.171875 150.195312 239.921875 149.828125 239.691406 C 149.640625 239.574219 149.449219 239.460938 149.253906 239.351562 C 149.15625 239.296875 149.058594 239.242188 148.957031 239.1875 L 148.785156 239.101562 L 148.628906 239.019531 L 148.589844 239.003906 L 148.476562 238.960938 C 148.136719 238.835938 147.769531 238.855469 147.445312 239.011719 C 147.113281 239.167969 146.867188 239.4375 146.75 239.777344 C 146.496094 240.480469 146.863281 241.257812 147.566406 241.511719 L 147.65625 241.546875 L 147.78125 241.601562 L 148.027344 241.714844 C 148.191406 241.789062 148.355469 241.875 148.523438 241.960938 C 148.847656 242.132812 149.171875 242.320312 149.496094 242.523438 C 150.140625 242.929688 150.742188 243.382812 151.285156 243.863281 C 151.855469 244.378906 152.355469 244.921875 152.769531 245.484375 C 153.210938 246.085938 153.5625 246.722656 153.820312 247.375 L 153.820312 247.378906 L 153.855469 247.472656 L 153.925781 247.652344 L 153.953125 247.640625 C 154.175781 247.949219 154.5625 248.113281 154.945312 248.050781 L 155.070312 248.019531 C 155.527344 247.878906 155.8125 247.441406 155.777344 246.980469 L 155.800781 246.96875 L 155.71875 246.714844 C 155.683594 246.605469 155.648438 246.5 155.609375 246.378906 L 155.585938 246.316406 C 155.550781 246.175781 155.523438 246.03125 155.496094 245.886719 C 155.445312 245.59375 155.414062 245.292969 155.40625 244.984375 C 155.386719 244.378906 155.453125 243.757812 155.59375 243.144531 C 155.734375 242.546875 155.953125 241.945312 156.238281 241.359375 C 156.375 241.078125 156.535156 240.792969 156.710938 240.515625 C 156.902344 240.207031 157.082031 239.941406 157.265625 239.707031 C 157.496094 239.40625 157.695312 239.164062 157.898438 238.9375 L 158.113281 238.703125 L 158.230469 238.570312 L 158.355469 238.445312 L 158.582031 238.214844 L 158.761719 238.046875 L 158.949219 237.867188 C 159.042969 237.78125 159.140625 237.699219 159.242188 237.609375 L 159.324219 237.535156 L 159.570312 237.324219 L 159.710938 237.210938 L 160.109375 236.898438 C 160.402344 236.671875 160.667969 236.472656 160.929688 236.296875 C 161.207031 236.101562 161.492188 235.910156 161.78125 235.730469 C 162.046875 235.558594 162.335938 235.386719 162.652344 235.199219 L 162.8125 235.105469 C 162.910156 235.054688 163.003906 235 163.101562 234.945312 L 163.558594 234.695312 L 163.289062 234.148438 " fill-opacity="1" fill-rule="nonzero"/><path fill="#dd7f7f" d="M 202.9375 108.445312 L 21.945312 108.445312 L 21.945312 68.988281 L 202.9375 68.988281 L 202.9375 108.445312 " fill-opacity="1" fill-rule="nonzero"/><path fill="#d16565" d="M 193.449219 88.714844 C 193.449219 96.878906 186.835938 103.496094 178.679688 103.496094 C 170.519531 103.496094 163.902344 96.878906 163.902344 88.714844 C 163.902344 80.550781 170.519531 73.933594 178.679688 73.933594 C 186.835938 73.933594 193.449219 80.550781 193.449219 88.714844 " fill-opacity="1" fill-rule="nonzero"/><path fill="#ffffff" d="M 189.691406 84.632812 L 182.421875 84.632812 L 182.421875 77.609375 L 175.019531 77.609375 L 175.019531 84.632812 L 167.667969 84.632812 L 167.667969 92.039062 L 175.019531 92.039062 L 175.019531 99.644531 L 182.421875 99.644531 L 182.421875 92.039062 L 189.691406 92.039062 L 189.691406 84.632812 " fill-opacity="1" fill-rule="nonzero"/><path fill="#ffffff" d="M 47.707031 97.015625 L 31.425781 97.015625 L 31.425781 93.613281 L 47.707031 93.613281 L 47.707031 97.015625 " fill-opacity="1" fill-rule="nonzero"/><path fill="#ffffff" d="M 61.832031 90.328125 L 31.425781 90.328125 L 31.425781 86.925781 L 61.832031 86.925781 L 61.832031 90.328125 " fill-opacity="1" fill-rule="nonzero"/><path fill="#ffffff" d="M 51.859375 83.640625 L 31.425781 83.640625 L 31.425781 80.234375 L 51.859375 80.234375 L 51.859375 83.640625 " fill-opacity="1" fill-rule="nonzero"/><g clip-path="url(#43f5f56a0e)"><path fill="#f8ba84" d="M 348.859375 238.785156 L 375.046875 222.113281 C 375.046875 222.113281 371.769531 207.527344 353.621094 216.753906 C 353.246094 216.945312 350.050781 207.230469 337.253906 214.074219 C 322.84375 221.789062 320.59375 226.578125 319.402344 227.171875 C 318.210938 227.773438 308.09375 233.726562 308.09375 233.726562 L 324.757812 219.4375 C 324.757812 219.4375 320.59375 205.144531 293.21875 226.578125 C 265.84375 248.015625 162.890625 227.171875 155.75 230.152344 C 148.609375 233.128906 73.921875 311.726562 73.921875 311.726562 L 122.261719 347.835938 C 122.261719 347.835938 154.007812 298.402344 168.644531 287.609375 C 172.414062 284.832031 181.082031 283.386719 182.828125 283.046875 C 199.933594 279.730469 251.859375 283.445312 257.214844 282.847656 C 262.570312 282.25 272.09375 273.320312 279.828125 270.941406 C 287.5625 268.558594 306.011719 266.175781 311.964844 264.390625 C 319.402344 261.113281 372.664062 247.714844 373.261719 247.714844 C 373.855469 247.714844 377.226562 234.617188 348.859375 238.785156 " fill-opacity="1" fill-rule="nonzero"/></g><path fill="#eaa366" d="M 308.09375 233.726562 C 306.789062 234.667969 305.417969 235.523438 304.011719 236.308594 C 303.308594 236.710938 302.59375 237.074219 301.863281 237.429688 C 301.105469 237.765625 300.316406 237.984375 299.535156 238.183594 C 297.964844 238.566406 296.375 238.839844 294.789062 239.09375 L 292.398438 239.457031 C 292 239.519531 291.605469 239.578125 291.210938 239.652344 C 291.011719 239.6875 290.816406 239.726562 290.621094 239.769531 C 290.425781 239.816406 290.226562 239.855469 290.046875 239.941406 C 290.21875 239.839844 290.414062 239.785156 290.605469 239.722656 C 290.800781 239.667969 291 239.621094 291.195312 239.570312 C 291.585938 239.476562 291.980469 239.390625 292.375 239.308594 C 293.160156 239.136719 293.949219 238.992188 294.738281 238.835938 C 295.53125 238.683594 296.320312 238.527344 297.101562 238.367188 C 297.886719 238.203125 298.671875 238.023438 299.445312 237.824219 C 300.21875 237.625 300.988281 237.40625 301.699219 237.082031 C 302.417969 236.742188 303.132812 236.371094 303.847656 236.007812 C 305.269531 235.261719 306.683594 234.5 308.09375 233.726562 " fill-opacity="1" fill-rule="nonzero"/><path fill="#eaa366" d="M 353.621094 216.753906 C 352.246094 217.480469 350.878906 218.210938 349.511719 218.945312 C 348.148438 219.683594 346.789062 220.433594 345.4375 221.191406 C 344.082031 221.945312 342.734375 222.714844 341.410156 223.515625 C 340.75 223.917969 340.09375 224.332031 339.453125 224.765625 C 339.289062 224.867188 339.132812 224.976562 338.976562 225.089844 C 338.816406 225.199219 338.664062 225.316406 338.511719 225.429688 C 338.210938 225.667969 337.898438 225.90625 337.679688 226.179688 L 337.640625 226.222656 L 337.582031 226.238281 C 337.410156 226.28125 337.238281 226.320312 337.066406 226.378906 C 336.894531 226.429688 336.722656 226.488281 336.546875 226.546875 C 336.203125 226.664062 335.859375 226.792969 335.519531 226.917969 C 334.835938 227.171875 334.148438 227.4375 333.46875 227.714844 C 332.105469 228.257812 330.753906 228.816406 329.402344 229.382812 C 326.695312 230.519531 324.003906 231.691406 321.308594 232.851562 C 318.617188 234.015625 315.933594 235.203125 313.257812 236.402344 L 309.246094 238.214844 C 308.582031 238.519531 307.914062 238.824219 307.25 239.140625 C 306.589844 239.453125 305.925781 239.769531 305.277344 240.105469 L 305.253906 240.117188 L 305.234375 240.121094 C 304.136719 240.234375 303.039062 240.371094 301.945312 240.515625 C 300.851562 240.660156 299.757812 240.808594 298.664062 240.976562 C 297.570312 241.140625 296.480469 241.324219 295.394531 241.535156 C 294.316406 241.75 293.230469 241.976562 292.175781 242.308594 C 293.222656 241.945312 294.300781 241.6875 295.382812 241.453125 C 296.460938 241.21875 297.546875 241.011719 298.636719 240.828125 C 299.726562 240.636719 300.820312 240.460938 301.914062 240.304688 C 303.007812 240.148438 304.105469 240 305.203125 239.871094 L 305.160156 239.882812 C 305.808594 239.53125 306.46875 239.210938 307.132812 238.886719 C 307.792969 238.566406 308.453125 238.253906 309.117188 237.9375 C 310.445312 237.3125 311.78125 236.703125 313.117188 236.09375 C 315.792969 234.882812 318.472656 233.6875 321.160156 232.507812 C 322.503906 231.917969 323.851562 231.335938 325.203125 230.761719 C 326.554688 230.183594 327.90625 229.617188 329.265625 229.054688 C 330.617188 228.488281 331.976562 227.933594 333.347656 227.394531 C 334.027344 227.125 334.714844 226.863281 335.402344 226.605469 C 335.75 226.480469 336.09375 226.351562 336.445312 226.238281 C 336.621094 226.175781 336.792969 226.121094 336.976562 226.070312 C 337.148438 226.011719 337.335938 225.96875 337.527344 225.925781 L 337.429688 225.988281 C 337.699219 225.660156 338.015625 225.429688 338.328125 225.191406 C 338.484375 225.070312 338.644531 224.957031 338.804688 224.847656 C 338.96875 224.738281 339.128906 224.628906 339.292969 224.519531 C 339.945312 224.097656 340.609375 223.691406 341.277344 223.296875 C 342.617188 222.507812 343.972656 221.753906 345.339844 221.011719 C 346.703125 220.273438 348.082031 219.558594 349.460938 218.84375 C 350.839844 218.136719 352.226562 217.4375 353.621094 216.753906 " fill-opacity="1" fill-rule="nonzero"/><path fill="#eaa366" d="M 348.859375 238.785156 C 348.304688 238.769531 347.75 238.765625 347.199219 238.765625 C 346.644531 238.765625 346.085938 238.773438 345.53125 238.792969 C 344.425781 238.828125 343.316406 238.898438 342.21875 239.007812 C 341.117188 239.113281 340.019531 239.265625 338.9375 239.484375 C 337.855469 239.707031 336.789062 240.007812 335.785156 240.425781 L 335.746094 240.441406 L 335.707031 240.441406 C 335.078125 240.40625 334.4375 240.421875 333.796875 240.4375 C 333.15625 240.460938 332.515625 240.496094 331.875 240.535156 C 330.597656 240.621094 329.316406 240.726562 328.039062 240.855469 C 326.761719 240.980469 325.484375 241.121094 324.210938 241.277344 C 322.9375 241.429688 321.664062 241.601562 320.394531 241.78125 C 317.855469 242.15625 315.316406 242.570312 312.804688 243.09375 C 312.175781 243.230469 311.550781 243.367188 310.925781 243.515625 C 310.300781 243.664062 309.679688 243.820312 309.058594 243.988281 C 307.820312 244.332031 306.597656 244.714844 305.417969 245.238281 C 306.570312 244.660156 307.792969 244.238281 309.019531 243.855469 C 310.25 243.476562 311.5 243.15625 312.753906 242.867188 C 315.265625 242.289062 317.796875 241.824219 320.34375 241.433594 C 321.613281 241.234375 322.886719 241.0625 324.164062 240.902344 C 325.441406 240.742188 326.722656 240.597656 328.003906 240.476562 C 329.285156 240.355469 330.566406 240.25 331.855469 240.171875 C 332.5 240.132812 333.140625 240.105469 333.785156 240.089844 C 334.433594 240.074219 335.078125 240.070312 335.730469 240.109375 L 335.652344 240.125 C 336.695312 239.695312 337.785156 239.421875 338.882812 239.21875 C 339.980469 239.015625 341.089844 238.882812 342.199219 238.796875 C 343.308594 238.707031 344.417969 238.675781 345.53125 238.671875 C 346.644531 238.671875 347.75 238.703125 348.859375 238.785156 " fill-opacity="1" fill-rule="nonzero"/><path fill="#f8d4b2" d="M 373.523438 244.566406 C 372.414062 244.359375 370.878906 244.402344 368.796875 244.800781 C 361.230469 246.238281 359.363281 249.039062 359.171875 251.207031 C 367.214844 249.15625 373.0625 247.714844 373.261719 247.714844 C 373.457031 247.714844 373.949219 246.308594 373.523438 244.566406 " fill-opacity="1" fill-rule="nonzero"/><path fill="#f8d4b2" d="M 374.277344 220.039062 C 373.539062 220.296875 372.71875 220.644531 371.78125 221.125 C 365.996094 224.109375 364.394531 226.867188 364.296875 228.9375 C 369.972656 225.328125 375.046875 222.113281 375.046875 222.113281 C 375.046875 222.113281 374.847656 221.234375 374.277344 220.039062 " fill-opacity="1" fill-rule="nonzero"/><path fill="#f8d4b2" d="M 324.046875 218.035156 C 319.128906 220.6875 318.292969 223.101562 318.558594 224.753906 L 324.757812 219.4375 C 324.757812 219.4375 324.578125 218.820312 324.046875 218.035156 " fill-opacity="1" fill-rule="nonzero"/><path fill="#eaa366" d="M 335.890625 239.949219 C 335.808594 240.167969 335.742188 240.382812 335.691406 240.605469 C 335.636719 240.828125 335.59375 241.046875 335.566406 241.273438 C 335.542969 241.496094 335.542969 241.722656 335.566406 241.945312 C 335.59375 242.171875 335.652344 242.386719 335.742188 242.601562 C 335.609375 242.414062 335.511719 242.191406 335.46875 241.960938 C 335.425781 241.730469 335.417969 241.492188 335.441406 241.261719 C 335.496094 240.792969 335.644531 240.339844 335.890625 239.949219 " fill-opacity="1" fill-rule="nonzero"/><path fill="#eaa366" d="M 305.308594 239.796875 C 305.261719 239.984375 305.226562 240.175781 305.199219 240.367188 C 305.167969 240.550781 305.152344 240.742188 305.148438 240.929688 C 305.144531 241.121094 305.160156 241.304688 305.195312 241.492188 C 305.230469 241.679688 305.292969 241.855469 305.375 242.03125 C 305.25 241.882812 305.152344 241.707031 305.097656 241.515625 C 305.042969 241.328125 305.015625 241.128906 305.019531 240.925781 C 305.03125 240.53125 305.125 240.140625 305.308594 239.796875 " fill-opacity="1" fill-rule="nonzero"/><path fill="#eaa366" d="M 337.417969 225.535156 C 337.46875 225.761719 337.535156 225.980469 337.605469 226.195312 C 337.683594 226.414062 337.765625 226.621094 337.871094 226.820312 C 337.972656 227.023438 338.09375 227.210938 338.234375 227.382812 C 338.382812 227.558594 338.550781 227.707031 338.738281 227.84375 C 338.527344 227.75 338.328125 227.625 338.164062 227.453125 C 338 227.28125 337.863281 227.085938 337.753906 226.878906 C 337.546875 226.460938 337.425781 226 337.417969 225.535156 " fill-opacity="1" fill-rule="nonzero"/><path fill="#e4e4ef" d="M 138.9375 281.097656 C 128.613281 269.878906 120.125 259.359375 115.679688 250.511719 L 100.648438 265.144531 L 143.632812 330.273438 L 168.886719 307.921875 C 160.082031 302.613281 149.609375 292.699219 138.9375 281.097656 " fill-opacity="1" fill-rule="nonzero"/><g clip-path="url(#14be90a910)"><path fill="#82b5c4" d="M 162.382812 320.175781 C 162.382812 320.175781 144.691406 305.523438 131.464844 290.535156 C 113.546875 270.226562 103.960938 255.449219 103.960938 255.449219 L 59.089844 294.195312 L 114.738281 361.3125 L 162.382812 320.175781 " fill-opacity="1" fill-rule="nonzero"/></g><path fill="#dd655b" d="M 307.957031 119.902344 L 328.511719 114.789062 L 315.007812 116.957031 C 313.703125 117.167969 312.394531 117.328125 311.082031 117.4375 C 302.644531 118.140625 294.179688 116.070312 287.066406 111.472656 C 285.921875 110.734375 285 110.023438 284.425781 109.472656 C 280.640625 105.847656 287.5625 47.265625 287.132812 26.574219 L 263.996094 26.574219 C 263.996094 26.574219 268.398438 125.105469 264.03125 131.453125 C 263.339844 132.460938 262.121094 133.605469 260.019531 134.730469 C 256.226562 136.765625 251.863281 137.445312 247.605469 136.820312 L 211.402344 131.484375 L 242.769531 139.394531 C 243.316406 139.53125 243.296875 140.316406 242.742188 140.425781 C 227.238281 143.503906 208.320312 144.6875 208.320312 144.6875 C 208.320312 144.6875 206.164062 147.261719 239.332031 144.6875 C 249.699219 143.882812 262.191406 142.832031 264.097656 148.4375 C 268.398438 161.078125 265.203125 178.515625 264.296875 189.148438 C 263.132812 202.898438 235.890625 248.980469 235.890625 248.980469 L 235.890625 248.992188 C 235.785156 249.441406 238.207031 250.386719 241.296875 251.105469 C 244.390625 251.820312 246.980469 252.042969 247.082031 251.59375 L 247.089844 251.570312 C 259.011719 232.601562 268.816406 206.738281 276.601562 206.167969 C 282.484375 205.738281 311.71875 250.265625 311.71875 250.265625 L 311.738281 250.285156 C 312.066406 250.613281 314.257812 248.949219 316.632812 246.570312 C 319.007812 244.191406 320.671875 242 320.347656 241.679688 L 320.324219 241.65625 C 320.324219 241.65625 296.199219 217.949219 289.308594 199.414062 C 282.414062 180.882812 286.292969 135.425781 286.292969 123.359375 C 286.292969 111.289062 328.511719 134.1875 328.511719 134.1875 L 328.511719 132.75 C 328.511719 132.75 319.386719 127.609375 307.742188 121.921875 C 306.839844 121.480469 306.980469 120.148438 307.957031 119.902344 " fill-opacity="1" fill-rule="nonzero"/><path fill="#e8716b" d="M 304.835938 119.714844 L 328.511719 114.789062 L 315.007812 116.957031 C 313.703125 117.167969 312.371094 117.164062 311.082031 117.4375 C 299.949219 119.792969 288.289062 114.023438 281.179688 109.425781 C 280.035156 108.6875 278.988281 108.082031 278.535156 107.425781 C 271.84375 97.667969 280.734375 48.125 280.300781 27.441406 L 264.992188 26.628906 C 264.992188 26.628906 270.683594 125.726562 266.316406 132.078125 C 265.625 133.082031 263.589844 135.105469 261.488281 136.226562 C 257.699219 138.257812 253.363281 138.804688 249.109375 138.175781 L 211.402344 131.484375 L 244.359375 139.265625 C 244.90625 139.402344 244.832031 140.402344 244.28125 140.515625 C 228.773438 143.59375 208.320312 144.6875 208.320312 144.6875 C 208.320312 144.6875 206.828125 146.59375 240 144.019531 C 250.363281 143.210938 263.652344 142.851562 265.558594 148.460938 C 269.863281 161.101562 267.300781 180.539062 265.558594 191.070312 C 263.199219 205.324219 237.976562 248.632812 237.976562 248.636719 C 237.871094 249.085938 238.207031 250.386719 241.296875 251.105469 C 244.390625 251.820312 246.980469 252.042969 247.082031 251.59375 L 247.089844 251.570312 C 259.011719 232.601562 265.144531 205.167969 275.269531 202.988281 C 282.78125 201.371094 313.015625 249.734375 313.015625 249.734375 C 313.015625 249.734375 314.257812 248.949219 316.632812 246.570312 C 319.007812 244.191406 314.78125 239.953125 314.457031 239.628906 C 314.449219 239.621094 290.308594 215.898438 283.417969 197.363281 C 276.523438 178.835938 280.402344 133.378906 280.402344 121.308594 C 280.402344 109.242188 326.96875 132.078125 326.96875 132.078125 L 328.511719 132.75 C 328.511719 132.75 316.167969 126.570312 304.527344 120.882812 C 303.621094 120.441406 303.859375 119.957031 304.835938 119.714844 " fill-opacity="1" fill-rule="nonzero"/><path fill="#dd655b" d="M 275.5625 24.84375 C 269.175781 24.84375 263.996094 25.621094 263.996094 26.574219 C 263.996094 27.53125 269.175781 28.300781 275.5625 28.300781 C 281.953125 28.300781 287.132812 27.53125 287.132812 26.574219 C 287.132812 25.621094 281.953125 24.84375 275.5625 24.84375 " fill-opacity="1" fill-rule="nonzero"/><path fill="#f49579" d="M 275.5625 24.4375 C 269.175781 24.4375 263.996094 25.621094 263.996094 26.574219 C 263.996094 25.714844 269.175781 25.019531 275.5625 25.019531 C 281.953125 25.019531 287.132812 25.714844 287.132812 26.574219 C 287.132812 25.621094 281.953125 24.4375 275.5625 24.4375 " fill-opacity="1" fill-rule="nonzero"/><path fill="#f49579" d="M 275.5625 28.132812 C 269.175781 28.132812 263.996094 27.4375 263.996094 26.574219 C 263.996094 27.53125 269.175781 29.347656 275.5625 29.347656 C 281.953125 29.347656 287.132812 27.53125 287.132812 26.574219 C 287.132812 27.4375 281.953125 28.132812 275.5625 28.132812 " fill-opacity="1" fill-rule="nonzero"/><path fill="#3a63a5" d="M 330.167969 119.667969 C 337.105469 118.265625 341.933594 117.113281 341.933594 117.113281 L 330.167969 119.667969 " fill-opacity="1" fill-rule="nonzero"/><path fill="#3c82a5" d="M 300.726562 127.113281 C 299.933594 126.664062 299.683594 126.324219 300.570312 126.101562 L 330.167969 119.667969 C 318.203125 122.09375 299.953125 125.261719 289.359375 124.542969 C 273.648438 123.480469 261.332031 114.878906 261.332031 105.382812 C 261.332031 82.535156 265.960938 34.757812 265.960938 34.757812 L 244.574219 39.097656 C 244.574219 39.097656 253.082031 117.4375 248.34375 123.902344 C 239.113281 136.5 211.402344 134.355469 211.402344 134.355469 L 235.277344 136.65625 C 236.164062 136.730469 236.570312 137.804688 235.957031 138.449219 L 213.582031 150.734375 L 236.136719 143.089844 C 237.777344 142.140625 239.738281 141.960938 241.539062 142.554688 C 244.320312 143.472656 244.382812 147.617188 244.574219 150.304688 C 245.433594 162.371094 245.335938 195.125 245.335938 195.125 L 244.285156 253.175781 C 244.285156 253.84375 247.917969 254.386719 252.398438 254.386719 C 256.878906 254.386719 258.191406 253.828125 258.191406 253.15625 L 256.820312 186.953125 C 256.808594 184.714844 256.730469 180.121094 256.347656 174.632812 C 255.550781 163.238281 257.648438 142.84375 261.332031 138.796875 C 266.1875 133.46875 269.351562 124.574219 290.140625 126.957031 C 294.570312 127.46875 300.933594 129.21875 306.824219 132.304688 C 319.695312 139.0625 341.929688 150.734375 341.929688 150.734375 C 341.929688 150.734375 315.992188 135.742188 300.726562 127.113281 " fill-opacity="1" fill-rule="nonzero"/><path fill="#3f77bc" d="M 214.746094 134.449219 L 211.402344 134.355469 C 211.402344 134.355469 212.671875 134.421875 214.746094 134.449219 " fill-opacity="1" fill-rule="nonzero"/><path fill="#54a5c6" d="M 299.351562 125.871094 L 324.382812 120.722656 C 313.554688 122.726562 299.929688 124.824219 290.269531 124.828125 C 274.519531 124.839844 256.117188 123.53125 256.191406 112.625 C 256.359375 89.78125 259.40625 36.425781 259.40625 36.425781 L 246.035156 39.605469 C 246.035156 39.605469 253.933594 117.347656 250.09375 124.984375 C 245.582031 133.957031 223.289062 134.558594 214.746094 134.449219 L 239.296875 135.136719 C 240.1875 135.214844 241.316406 136.75 240.699219 137.398438 L 213.582031 150.734375 L 235.328125 141.914062 C 236.96875 140.96875 243.5625 139.621094 245.371094 140.183594 C 248.5625 141.175781 247.710938 145.617188 247.589844 148.304688 C 247.003906 160.921875 245.839844 193.40625 245.839844 193.40625 L 247.355469 252.261719 C 247.355469 252.929688 247.917969 254.386719 252.398438 254.386719 C 256.878906 254.386719 258.191406 253.828125 258.191406 253.15625 L 253.472656 187.421875 C 253.351562 183.546875 253.199219 177.761719 253.210938 172.96875 C 253.234375 158.199219 254.613281 140.660156 258.296875 136.617188 C 263.148438 131.289062 269.328125 123.484375 290.113281 125.871094 C 294.542969 126.378906 301.40625 128.988281 307.292969 132.078125 C 320.164062 138.828125 341.929688 150.734375 341.929688 150.734375 C 341.929688 150.734375 314.253906 135.171875 298.988281 126.542969 C 298.195312 126.09375 298.46875 126.085938 299.351562 125.871094 " fill-opacity="1" fill-rule="nonzero"/><path fill="#3f77bc" d="M 324.382812 120.722656 C 334.339844 118.878906 341.933594 117.113281 341.933594 117.113281 L 324.382812 120.722656 " fill-opacity="1" fill-rule="nonzero"/><path fill="#3c82a5" d="M 265.96875 34.761719 C 265.796875 33.933594 260.867188 34.226562 254.957031 35.421875 C 249.046875 36.621094 244.386719 38.261719 244.558594 39.089844 C 244.722656 39.921875 249.652344 39.625 255.566406 38.429688 C 261.476562 37.230469 266.136719 35.589844 265.96875 34.761719 " fill-opacity="1" fill-rule="nonzero"/><path fill="#68c5ea" d="M 265.96875 34.761719 C 265.796875 33.933594 260.78125 33.992188 254.871094 35.1875 C 249.296875 36.316406 244.925781 38.074219 244.574219 38.9375 C 245.160156 38.175781 249.539062 36.789062 254.957031 35.695312 C 260.867188 34.5 265.78125 34.101562 265.921875 34.804688 C 266.0625 35.507812 261.386719 37.046875 255.476562 38.242188 C 250.539062 39.238281 246.304688 39.683594 244.957031 39.390625 C 246.257812 39.808594 250.945312 40.117188 255.957031 39.101562 C 261.867188 37.910156 266.136719 35.589844 265.96875 34.761719 " fill-opacity="1" fill-rule="nonzero"/><path fill="#d3a34f" d="M 306.597656 145.957031 L 306.597656 145.949219 L 306.589844 145.960938 Z M 306.597656 145.957031 " fill-opacity="1" fill-rule="nonzero"/><path fill="#efa05b" d="M 322.34375 135.667969 L 322.242188 135.625 C 322.097656 135.570312 321.898438 135.5 321.648438 135.414062 C 321.148438 135.246094 320.433594 135.015625 319.496094 134.796875 C 318.550781 134.578125 317.382812 134.351562 315.964844 134.234375 C 314.550781 134.113281 312.875 134.101562 310.972656 134.402344 C 309.078125 134.707031 306.917969 135.351562 304.851562 136.621094 C 303.820312 137.253906 302.820312 138.023438 301.910156 138.917969 C 301.464844 139.375 301.015625 139.835938 300.617188 140.34375 L 300.316406 140.726562 L 300.273438 140.773438 L 300.167969 140.910156 L 300.117188 140.984375 L 299.96875 141.199219 L 299.734375 141.558594 L 299.570312 141.839844 C 299.457031 142.03125 299.375 142.199219 299.28125 142.386719 C 298.609375 143.785156 298.273438 145.011719 297.972656 146.246094 C 297.683594 147.472656 297.476562 148.683594 297.300781 149.914062 C 296.953125 152.363281 296.742188 154.867188 296.582031 157.464844 C 296.269531 162.65625 296.175781 168.199219 296.140625 174.050781 C 296.113281 179.890625 296.164062 186.035156 296.195312 192.375 C 296.226562 198.710938 296.253906 205.25 296.097656 211.863281 C 296.015625 215.164062 295.890625 218.488281 295.632812 221.777344 C 295.5 223.421875 295.335938 225.066406 295.097656 226.667969 C 294.984375 227.46875 294.84375 228.257812 294.679688 229.027344 L 294.617188 229.3125 L 294.589844 229.433594 L 294.550781 229.585938 L 294.398438 230.175781 C 294.304688 230.539062 294.191406 230.949219 294.074219 231.339844 C 293.125 234.53125 292.082031 237.816406 291.21875 241.121094 C 290.351562 244.429688 289.609375 247.777344 289.160156 251.167969 C 288.9375 252.863281 288.785156 254.566406 288.730469 256.273438 C 288.707031 257.125 288.707031 257.980469 288.734375 258.832031 L 288.761719 259.472656 L 288.78125 259.8125 L 288.808594 260.121094 C 288.84375 260.53125 288.863281 260.925781 288.921875 261.363281 C 289.296875 264.769531 291.699219 264.269531 291.5 261.167969 C 291.292969 258.011719 291.601562 254.835938 292.179688 251.640625 C 292.753906 248.449219 293.613281 245.261719 294.605469 242.09375 C 295.597656 238.917969 296.753906 235.804688 297.886719 232.554688 C 298.027344 232.144531 298.167969 231.742188 298.304688 231.296875 L 298.5 230.664062 L 298.597656 230.328125 L 298.683594 229.996094 C 298.917969 229.121094 299.109375 228.25 299.277344 227.386719 C 299.617188 225.660156 299.867188 223.945312 300.082031 222.238281 C 300.515625 218.828125 300.796875 215.445312 301.039062 212.097656 C 301.511719 205.398438 301.785156 198.828125 302.054688 192.484375 C 302.3125 186.136719 302.550781 180.015625 302.847656 174.234375 C 303.148438 168.460938 303.5 163.015625 304.027344 158.089844 C 304.292969 155.632812 304.605469 153.296875 305.007812 151.183594 C 305.207031 150.125 305.4375 149.125 305.691406 148.230469 C 305.941406 147.347656 306.246094 146.535156 306.503906 146.09375 L 306.589844 145.957031 L 306.617188 145.914062 L 306.597656 145.949219 L 306.609375 145.933594 L 306.667969 145.859375 L 306.722656 145.789062 L 306.679688 145.851562 L 306.699219 145.824219 L 306.882812 145.628906 C 307 145.484375 307.128906 145.355469 307.253906 145.234375 C 307.484375 145.011719 307.714844 144.796875 307.964844 144.601562 C 308.335938 144.3125 308.710938 144.070312 309.089844 143.863281 C 309.59375 143.585938 310.109375 143.386719 310.632812 143.238281 C 311.148438 143.089844 311.664062 142.980469 312.179688 142.933594 C 314.246094 142.71875 316.101562 143.125 317.277344 143.457031 C 317.871094 143.625 318.308594 143.792969 318.582031 143.898438 C 318.703125 143.949219 318.796875 143.988281 318.855469 144.011719 L 318.867188 144.019531 L 318.902344 144.035156 L 318.933594 144.050781 L 319.125 144.132812 C 321.472656 145.074219 324.136719 143.90625 325.039062 141.53125 C 325.921875 139.199219 324.660156 136.59375 322.34375 135.667969 " fill-opacity="1" fill-rule="nonzero"/><path fill="#bb6217" d="M 306.597656 146.078125 L 306.597656 146.070312 L 306.589844 146.085938 Z M 306.597656 146.078125 " fill-opacity="1" fill-rule="nonzero"/><path fill="#fcbd78" d="M 323.675781 136.605469 C 323.941406 137.515625 323.941406 138.511719 323.585938 139.460938 C 322.6875 141.867188 320.019531 143.046875 317.671875 142.09375 L 317.480469 142.011719 L 317.414062 141.984375 L 317.40625 141.976562 C 317.34375 141.949219 317.25 141.910156 317.128906 141.855469 C 316.859375 141.75 316.417969 141.585938 315.824219 141.410156 C 314.648438 141.074219 312.792969 140.664062 310.730469 140.882812 C 310.210938 140.929688 309.695312 141.039062 309.179688 141.1875 C 308.65625 141.335938 308.140625 141.539062 307.640625 141.824219 C 307.257812 142.035156 306.882812 142.28125 306.511719 142.570312 C 306.261719 142.769531 306.03125 142.988281 305.800781 143.207031 C 305.675781 143.335938 305.550781 143.464844 305.429688 143.609375 L 305.25 143.808594 L 305.226562 143.835938 L 305.269531 143.769531 L 305.214844 143.847656 L 305.15625 143.921875 L 305.140625 143.941406 L 305.132812 143.949219 L 305.144531 143.9375 L 305.164062 143.898438 L 305.136719 143.945312 L 305.050781 144.078125 C 304.796875 144.53125 304.488281 145.351562 304.238281 146.246094 C 303.980469 147.152344 303.753906 148.164062 303.554688 149.234375 C 303.152344 151.375 302.839844 153.738281 302.574219 156.230469 C 302.046875 161.214844 301.695312 166.730469 301.394531 172.578125 C 301.097656 178.429688 300.863281 184.625 300.597656 191.050781 C 300.332031 197.476562 300.054688 204.132812 299.585938 210.910156 C 299.34375 214.304688 299.058594 217.730469 298.628906 221.183594 C 298.414062 222.90625 298.164062 224.644531 297.828125 226.394531 C 297.65625 227.269531 297.464844 228.148438 297.230469 229.035156 L 297.140625 229.371094 L 297.046875 229.710938 L 296.851562 230.355469 C 296.710938 230.804688 296.578125 231.207031 296.433594 231.628906 C 295.300781 234.914062 294.140625 238.070312 293.152344 241.289062 C 292.15625 244.492188 291.300781 247.71875 290.726562 250.953125 C 290.152344 254.1875 289.839844 257.40625 290.050781 260.601562 C 290.246094 263.742188 291.699219 264.394531 291.5 261.292969 C 291.292969 258.136719 291.601562 254.960938 292.179688 251.765625 C 292.753906 248.570312 293.613281 245.386719 294.605469 242.222656 C 295.597656 239.042969 296.753906 235.925781 297.886719 232.679688 C 298.027344 232.265625 298.167969 231.867188 298.304688 231.421875 L 298.5 230.789062 L 298.597656 230.449219 L 298.683594 230.121094 C 298.917969 229.242188 299.109375 228.375 299.277344 227.511719 C 299.617188 225.78125 299.867188 224.066406 300.082031 222.359375 C 300.515625 218.949219 300.796875 215.570312 301.039062 212.21875 C 301.511719 205.523438 301.785156 198.953125 302.054688 192.605469 C 302.3125 186.261719 302.550781 180.140625 302.847656 174.359375 C 303.148438 168.585938 303.5 163.136719 304.027344 158.210938 C 304.296875 155.753906 304.605469 153.421875 305.007812 151.308594 C 305.207031 150.25 305.4375 149.25 305.691406 148.355469 C 305.941406 147.46875 306.246094 146.65625 306.503906 146.214844 L 306.589844 146.082031 L 306.617188 146.039062 L 306.597656 146.070312 L 306.609375 146.054688 L 306.667969 145.984375 L 306.722656 145.910156 L 306.679688 145.972656 L 306.699219 145.949219 L 306.882812 145.753906 C 307 145.605469 307.128906 145.480469 307.253906 145.355469 C 307.484375 145.136719 307.714844 144.921875 307.964844 144.726562 C 308.335938 144.4375 308.710938 144.195312 309.089844 143.988281 C 309.59375 143.707031 310.109375 143.507812 310.632812 143.359375 C 311.148438 143.210938 311.667969 143.101562 312.179688 143.054688 C 314.246094 142.84375 316.101562 143.246094 317.277344 143.582031 C 317.871094 143.746094 318.308594 143.914062 318.582031 144.019531 C 318.703125 144.070312 318.796875 144.109375 318.855469 144.136719 L 318.871094 144.148438 L 318.902344 144.15625 L 318.933594 144.175781 L 319.125 144.253906 C 321.472656 145.195312 324.136719 144.03125 325.039062 141.652344 C 325.730469 139.824219 325.097656 137.824219 323.675781 136.605469 " fill-opacity="1" fill-rule="nonzero"/><path fill="#d3a34f" d="M 235.609375 157.160156 L 235.597656 157.148438 Z M 235.609375 157.160156 " fill-opacity="1" fill-rule="nonzero"/><path fill="#efa05b" d="M 253.035156 253.917969 C 252.585938 250.800781 251.847656 247.71875 250.980469 244.675781 C 250.117188 241.636719 249.070312 238.617188 248.125 235.683594 C 248.007812 235.320312 247.894531 234.945312 247.796875 234.609375 L 247.648438 234.070312 L 247.605469 233.929688 L 247.582031 233.816406 L 247.515625 233.550781 C 247.355469 232.847656 247.214844 232.121094 247.101562 231.382812 C 246.859375 229.910156 246.699219 228.402344 246.566406 226.886719 C 246.308594 223.859375 246.179688 220.800781 246.101562 217.765625 C 245.945312 211.6875 245.972656 205.675781 246.003906 199.847656 C 246.035156 194.015625 246.085938 188.371094 246.058594 182.992188 C 246.023438 177.613281 245.929688 172.507812 245.617188 167.742188 C 245.457031 165.347656 245.246094 163.042969 244.898438 160.792969 C 244.722656 159.664062 244.515625 158.550781 244.222656 157.421875 C 243.925781 156.289062 243.589844 155.15625 242.917969 153.871094 C 242.820312 153.703125 242.738281 153.542969 242.628906 153.371094 L 242.464844 153.109375 L 242.226562 152.78125 L 242.078125 152.582031 L 242.023438 152.515625 L 241.921875 152.386719 L 241.882812 152.34375 L 241.574219 151.996094 C 241.179688 151.527344 240.726562 151.101562 240.289062 150.679688 C 239.378906 149.859375 238.378906 149.152344 237.347656 148.570312 C 235.28125 147.402344 233.121094 146.808594 231.226562 146.527344 C 229.320312 146.25 227.648438 146.265625 226.230469 146.375 C 224.8125 146.480469 223.644531 146.691406 222.703125 146.894531 C 221.761719 147.097656 221.046875 147.304688 220.546875 147.460938 C 220.300781 147.535156 220.101562 147.605469 219.957031 147.65625 L 219.851562 147.695312 C 217.539062 148.546875 216.277344 150.941406 217.160156 153.082031 C 218.058594 155.269531 220.726562 156.34375 223.070312 155.480469 L 223.261719 155.402344 L 223.296875 155.390625 L 223.339844 155.367188 C 223.402344 155.34375 223.492188 155.308594 223.617188 155.261719 C 223.886719 155.164062 224.324219 155.011719 224.921875 154.855469 C 226.097656 154.546875 227.953125 154.179688 230.015625 154.375 C 230.53125 154.417969 231.050781 154.519531 231.566406 154.652344 C 232.085938 154.789062 232.605469 154.972656 233.105469 155.230469 C 233.484375 155.421875 233.863281 155.644531 234.234375 155.910156 C 234.484375 156.089844 234.714844 156.289062 234.945312 156.492188 C 235.070312 156.601562 235.195312 156.722656 235.316406 156.851562 L 235.496094 157.035156 L 235.519531 157.054688 L 235.472656 157 L 235.589844 157.136719 L 235.597656 157.148438 L 235.582031 157.117188 L 235.609375 157.15625 L 235.695312 157.277344 C 235.949219 157.6875 236.257812 158.433594 236.507812 159.25 C 236.761719 160.070312 236.992188 160.992188 237.191406 161.964844 C 237.589844 163.910156 237.902344 166.054688 238.171875 168.3125 C 238.699219 172.84375 239.050781 177.851562 239.347656 183.164062 C 239.648438 188.476562 239.882812 194.105469 240.144531 199.945312 C 240.414062 205.78125 240.6875 211.820312 241.160156 217.988281 C 241.398438 221.0625 241.683594 224.171875 242.117188 227.3125 C 242.332031 228.878906 242.582031 230.457031 242.917969 232.042969 C 243.085938 232.84375 243.28125 233.640625 243.511719 234.449219 L 243.601562 234.75 L 243.699219 235.058594 L 243.890625 235.644531 C 244.03125 236.054688 244.167969 236.417969 244.3125 236.800781 C 245.445312 239.785156 246.601562 242.652344 247.59375 245.574219 C 248.585938 248.488281 249.445312 251.417969 250.019531 254.351562 C 250.59375 257.292969 253.261719 255.476562 253.035156 253.917969 " fill-opacity="1" fill-rule="nonzero"/><path fill="#bb6217" d="M 235.601562 157.265625 L 235.597656 157.261719 L 235.609375 157.273438 Z M 235.601562 157.265625 " fill-opacity="1" fill-rule="nonzero"/><path fill="#fcbd78" d="M 251.472656 253.71875 C 250.894531 250.746094 250.039062 247.78125 249.046875 244.832031 C 248.050781 241.875 246.898438 238.96875 245.761719 235.945312 C 245.621094 235.558594 245.484375 235.191406 245.347656 234.773438 L 245.152344 234.183594 L 245.054688 233.871094 L 244.964844 233.5625 C 244.734375 232.746094 244.542969 231.941406 244.371094 231.136719 C 244.035156 229.523438 243.785156 227.925781 243.566406 226.339844 C 243.136719 223.164062 242.855469 220.015625 242.613281 216.894531 C 242.140625 210.660156 241.867188 204.535156 241.597656 198.628906 C 241.335938 192.71875 241.101562 187.019531 240.804688 181.640625 C 240.503906 176.257812 240.152344 171.191406 239.625 166.601562 C 239.355469 164.3125 239.042969 162.140625 238.640625 160.167969 C 238.441406 159.1875 238.214844 158.253906 237.960938 157.421875 C 237.710938 156.597656 237.402344 155.84375 237.144531 155.429688 L 237.0625 155.304688 L 237.035156 155.265625 L 237.050781 155.292969 L 237.0625 155.308594 L 237.054688 155.300781 L 237.050781 155.292969 L 237.039062 155.285156 L 236.984375 155.210938 L 236.929688 155.144531 L 236.972656 155.203125 L 236.949219 155.179688 L 236.769531 154.996094 C 236.648438 154.863281 236.523438 154.742188 236.394531 154.628906 C 236.167969 154.425781 235.9375 154.222656 235.6875 154.039062 C 235.316406 153.773438 234.941406 153.546875 234.558594 153.355469 C 234.054688 153.09375 233.542969 152.90625 233.019531 152.769531 C 232.503906 152.632812 231.984375 152.53125 231.46875 152.484375 C 229.40625 152.285156 227.550781 152.664062 226.375 152.976562 C 225.78125 153.132812 225.339844 153.285156 225.070312 153.382812 C 224.949219 153.433594 224.855469 153.46875 224.792969 153.492188 L 224.75 153.515625 L 224.71875 153.53125 L 224.527344 153.605469 C 222.179688 154.480469 219.511719 153.394531 218.609375 151.179688 C 218.257812 150.308594 218.253906 149.390625 218.523438 148.554688 C 217.101562 149.675781 216.464844 151.515625 217.160156 153.199219 C 218.058594 155.382812 220.726562 156.453125 223.070312 155.59375 L 223.261719 155.515625 L 223.296875 155.5 L 223.328125 155.492188 L 223.339844 155.484375 C 223.402344 155.457031 223.492188 155.421875 223.617188 155.375 C 223.886719 155.277344 224.324219 155.128906 224.921875 154.96875 C 226.09375 154.664062 227.953125 154.289062 230.015625 154.488281 C 230.53125 154.53125 231.050781 154.632812 231.566406 154.765625 C 232.085938 154.902344 232.605469 155.089844 233.105469 155.34375 C 233.484375 155.535156 233.863281 155.757812 234.234375 156.023438 C 234.484375 156.199219 234.714844 156.398438 234.945312 156.601562 C 235.070312 156.714844 235.195312 156.835938 235.316406 156.964844 L 235.496094 157.148438 L 235.519531 157.167969 L 235.472656 157.113281 L 235.53125 157.179688 L 235.589844 157.25 L 235.597656 157.261719 L 235.582031 157.230469 L 235.609375 157.269531 L 235.695312 157.394531 C 235.949219 157.800781 236.257812 158.546875 236.507812 159.359375 C 236.761719 160.183594 236.992188 161.105469 237.191406 162.074219 C 237.589844 164.023438 237.902344 166.167969 238.171875 168.429688 C 238.699219 172.960938 239.050781 177.964844 239.347656 183.277344 C 239.644531 188.589844 239.882812 194.222656 240.144531 200.058594 C 240.414062 205.890625 240.6875 211.9375 241.160156 218.097656 C 241.398438 221.179688 241.683594 224.289062 242.117188 227.425781 C 242.328125 228.992188 242.582031 230.570312 242.917969 232.160156 C 243.085938 232.953125 243.28125 233.753906 243.511719 234.558594 L 243.601562 234.859375 L 243.699219 235.171875 L 243.890625 235.757812 C 244.03125 236.164062 244.164062 236.53125 244.3125 236.910156 C 245.445312 239.898438 246.601562 242.765625 247.59375 245.6875 C 248.585938 248.601562 249.445312 251.527344 250.019531 254.464844 C 250.59375 257.40625 252.046875 256.695312 251.472656 253.71875 " fill-opacity="1" fill-rule="nonzero"/><path fill="#c4615c" d="M 360.859375 118.132812 C 356.375 99.609375 342.796875 79.175781 316.21875 79.183594 C 306.5625 79.1875 295.121094 85.382812 292.058594 94.703125 C 289.925781 101.1875 291.261719 111.117188 299.308594 115.390625 C 305.050781 118.441406 311.441406 117.132812 313.320312 116.683594 C 312.835938 125.734375 325.402344 122.714844 319.601562 127.03125 C 313.804688 131.339844 319.601562 136.511719 319.601562 136.511719 C 317.707031 136.597656 311.640625 137.089844 307.523438 141.25 C 301.667969 147.160156 303.972656 156.21875 307.523438 161.511719 C 313.210938 169.996094 324.019531 170.871094 326.367188 170.992188 C 338.933594 171.648438 347.527344 163.101562 349.5625 161.078125 C 363.53125 147.195312 362.0625 123.101562 360.859375 118.132812 " fill-opacity="1" fill-rule="nonzero"/><path fill="#b25452" d="M 294.863281 94.707031 C 297.808594 85.75 307.957031 79.65625 317.363281 79.203125 C 316.808594 79.183594 316.789062 79.191406 316.21875 79.191406 C 306.5625 79.195312 295.121094 85.390625 292.058594 94.707031 C 289.925781 101.195312 291.261719 111.121094 299.308594 115.394531 C 302.726562 117.214844 306.398438 117.476562 309.1875 117.300781 C 306.960938 117.160156 304.472656 116.652344 302.113281 115.394531 C 294.0625 111.121094 292.730469 101.195312 294.863281 94.707031 " fill-opacity="1" fill-rule="nonzero"/><path fill="#a54747" d="M 310.328125 161.511719 C 306.78125 156.21875 304.476562 147.160156 310.328125 141.253906 C 314.449219 137.089844 320.285156 137.734375 322.179688 137.648438 C 322.179688 137.648438 316.609375 131.339844 322.40625 127.03125 C 327.722656 123.078125 316.667969 124.523438 315.15625 117.828125 C 315.015625 117.214844 314.578125 116.535156 313.320312 116.683594 C 312.664062 125.558594 325.292969 122.800781 319.601562 127.03125 C 313.808594 131.339844 319.601562 136.511719 319.601562 136.511719 C 317.707031 136.597656 311.644531 137.089844 307.523438 141.253906 C 301.671875 147.160156 303.976562 156.21875 307.523438 161.511719 C 313.214844 169.996094 324.023438 170.871094 326.371094 170.996094 C 327.296875 171.042969 328.203125 171.035156 329.085938 170.988281 C 326.578125 170.851562 315.953125 169.898438 310.328125 161.511719 " fill-opacity="1" fill-rule="nonzero"/><path fill="#cf6961" d="M 305.71875 98.8125 C 306.363281 91.976562 310.0625 84.039062 322.132812 84.984375 C 335.71875 86.046875 350.511719 95.644531 354.828125 120.359375 C 359.0625 144.570312 351.605469 157.75 342.21875 162.570312 C 334.984375 166.285156 317.417969 163.882812 318.417969 148.554688 C 319.058594 138.726562 326.34375 136.296875 327.222656 136 C 327.222656 136 324.730469 129.546875 326.660156 125.746094 C 328.585938 121.941406 322.382812 120.480469 320.90625 113.949219 C 320.101562 114.503906 315.128906 114.203125 311.824219 111.992188 C 307.597656 109.160156 305.257812 103.683594 305.71875 98.8125 " fill-opacity="1" fill-rule="nonzero"/><path fill="#b25454" d="M 333.851562 97.386719 C 332.757812 101.632812 327.378906 103.925781 321.835938 102.503906 C 316.289062 101.082031 312.671875 96.484375 313.761719 92.242188 C 314.847656 87.992188 320.226562 85.703125 325.773438 87.125 C 331.320312 88.542969 334.9375 93.140625 333.851562 97.386719 " fill-opacity="1" fill-rule="nonzero"/><path fill="#b25454" d="M 340.007812 158.363281 C 338.933594 161.738281 334.824219 163.4375 330.832031 162.164062 C 326.839844 160.886719 324.480469 157.117188 325.558594 153.746094 C 326.632812 150.371094 330.742188 148.671875 334.734375 149.949219 C 338.722656 151.226562 341.082031 154.992188 340.007812 158.363281 " fill-opacity="1" fill-rule="nonzero"/><path fill="#b25d5d" d="M 329.6875 144.382812 C 330.144531 146.34375 328.566406 148.390625 326.152344 148.957031 C 323.742188 149.519531 321.417969 148.390625 320.957031 146.429688 C 320.496094 144.46875 322.082031 142.421875 324.488281 141.855469 C 326.898438 141.289062 329.226562 142.421875 329.6875 144.382812 " fill-opacity="1" fill-rule="nonzero"/><path fill="#9e4141" d="M 335.71875 143.796875 C 336.949219 143.058594 338.625 143.578125 339.449219 144.960938 C 340.277344 146.34375 339.949219 148.0625 338.71875 148.804688 C 337.484375 149.542969 335.8125 149.019531 334.984375 147.640625 C 334.152344 146.257812 334.484375 144.539062 335.71875 143.796875 " fill-opacity="1" fill-rule="nonzero"/><path fill="#b25454" d="M 328.71875 107.65625 C 328.816406 109.175781 327.371094 110.503906 325.496094 110.625 C 323.625 110.746094 322.023438 109.613281 321.925781 108.089844 C 321.828125 106.570312 323.269531 105.242188 325.144531 105.121094 C 327.023438 105 328.617188 106.136719 328.71875 107.65625 " fill-opacity="1" fill-rule="nonzero"/><path fill="#9e4141" d="M 318.796875 111.851562 C 318.410156 112.835938 317.074219 113.234375 315.816406 112.738281 C 314.558594 112.246094 313.851562 111.046875 314.238281 110.0625 C 314.621094 109.078125 315.957031 108.679688 317.214844 109.175781 C 318.472656 109.667969 319.183594 110.867188 318.796875 111.851562 " fill-opacity="1" fill-rule="nonzero"/><path fill="#b25d5d" d="M 314.445312 106.828125 C 312.796875 107.648438 310.539062 106.449219 309.402344 104.15625 C 308.269531 101.867188 308.683594 99.34375 310.332031 98.527344 C 311.980469 97.710938 314.238281 98.90625 315.371094 101.195312 C 316.511719 103.488281 316.09375 106.011719 314.445312 106.828125 " fill-opacity="1" fill-rule="nonzero"/><path fill="#c4615c" d="M 246.683594 108.324219 C 243.617188 99.007812 232.179688 92.808594 222.523438 92.804688 C 195.945312 92.796875 185.929688 116.527344 181.449219 135.046875 C 180.246094 140.019531 175.210938 160.816406 189.179688 174.703125 C 191.214844 176.722656 199.8125 185.265625 212.378906 184.613281 C 214.722656 184.492188 228.109375 183.476562 233.796875 174.992188 C 237.34375 169.699219 238.921875 159.195312 233.070312 153.285156 C 228.949219 149.121094 226.035156 150.464844 224.140625 150.375 C 224.140625 150.375 227.761719 144.816406 221.960938 140.507812 C 216.164062 136.199219 225.90625 139.359375 225.421875 130.304688 C 227.300781 130.753906 233.691406 132.0625 239.433594 129.011719 C 247.480469 124.742188 248.816406 114.8125 246.683594 108.324219 " fill-opacity="1" fill-rule="nonzero"/><path fill="#a54747" d="M 221.9375 140.464844 C 216.195312 136.199219 225.832031 139.398438 225.394531 130.261719 C 224.875 130.167969 224.726562 128.988281 224.421875 128.917969 C 224.902344 137.96875 214.847656 136.226562 220.648438 140.535156 C 226.445312 144.851562 223.320312 149.421875 223.320312 149.421875 C 223.460938 149.863281 223.671875 150.417969 224.140625 150.375 C 224.523438 149.738281 227.367188 144.5 221.9375 140.464844 " fill-opacity="1" fill-rule="nonzero"/><path fill="#a54747" d="M 233.234375 153.453125 C 229.496094 149.414062 226.1875 150.273438 224.417969 150.378906 C 225.984375 150.492188 229.542969 151.511719 231.808594 153.796875 C 237.664062 159.710938 236.085938 170.214844 232.539062 175.507812 C 226.847656 183.992188 210.613281 184.667969 210.351562 184.644531 C 211.007812 184.65625 225.910156 185.28125 233.785156 175.507812 C 237.78125 170.546875 238.882812 159.558594 233.234375 153.453125 " fill-opacity="1" fill-rule="nonzero"/><path fill="#cf6961" d="M 234.378906 108.476562 C 232.691406 100.320312 224.617188 96.246094 217.839844 96.03125 C 202.839844 95.554688 190.863281 114.96875 186.953125 130.796875 C 181.058594 154.660156 189.289062 181.921875 210.058594 178.882812 C 224.351562 176.785156 227.941406 167.648438 227.425781 160.671875 C 226.613281 149.667969 218.40625 149.539062 217.078125 149.390625 C 217.078125 149.390625 218.101562 143.496094 214.25 139.546875 C 210.394531 135.59375 219.402344 134 219.507812 126.175781 C 220.804688 126.636719 224.066406 128.441406 228.246094 126.042969 C 234.097656 122.683594 235.550781 114.15625 234.378906 108.476562 " fill-opacity="1" fill-rule="nonzero"/><path fill="#b25959" d="M 229.824219 117.429688 C 226.140625 119.910156 220.558594 118.070312 217.359375 113.320312 C 214.164062 108.5625 214.558594 102.699219 218.246094 100.21875 C 221.929688 97.734375 227.511719 99.574219 230.710938 104.328125 C 233.90625 109.082031 233.511719 114.945312 229.824219 117.429688 " fill-opacity="1" fill-rule="nonzero"/><path fill="#b25d5d" d="M 216.890625 120.425781 C 215.890625 121.730469 213.871094 121.859375 212.378906 120.714844 C 210.886719 119.574219 210.484375 117.59375 211.480469 116.289062 C 212.476562 114.984375 214.5 114.855469 215.992188 115.996094 C 217.484375 117.140625 217.886719 119.121094 216.890625 120.425781 " fill-opacity="1" fill-rule="nonzero"/><path fill="#9e4141" d="M 210.148438 112.085938 C 208.191406 112.613281 206.066406 111.03125 205.402344 108.558594 C 204.746094 106.089844 205.796875 103.660156 207.753906 103.136719 C 209.714844 102.609375 211.835938 104.191406 212.5 106.660156 C 213.164062 109.132812 212.109375 111.5625 210.148438 112.085938 " fill-opacity="1" fill-rule="nonzero"/><path fill="#b25454" d="M 201.101562 174.160156 C 198.722656 170.40625 200.710938 164.875 205.542969 161.804688 C 210.378906 158.730469 216.226562 159.28125 218.605469 163.035156 C 220.992188 166.785156 219.003906 172.316406 214.167969 175.390625 C 209.335938 178.460938 203.484375 177.910156 201.101562 174.160156 " fill-opacity="1" fill-rule="nonzero"/><path fill="#b25d5d" d="M 195.765625 166.820312 C 194.304688 166.0625 193.832031 164.097656 194.695312 162.425781 C 195.5625 160.761719 197.445312 160.015625 198.902344 160.773438 C 200.355469 161.53125 200.832031 163.496094 199.96875 165.167969 C 199.101562 166.835938 197.21875 167.574219 195.765625 166.820312 " fill-opacity="1" fill-rule="nonzero"/><path fill="#9e4141" d="M 208.632812 153.425781 C 209.125 151.457031 211.535156 150.367188 214.019531 150.984375 C 216.496094 151.609375 218.105469 153.707031 217.613281 155.675781 C 217.121094 157.648438 214.714844 158.738281 212.230469 158.113281 C 209.75 157.496094 208.140625 155.390625 208.632812 153.425781 " fill-opacity="1" fill-rule="nonzero"/><path fill="#f8ba84" d="M 289.066406 230.648438 C 283.550781 229.074219 271.570312 224.832031 251.175781 230.375 C 239.3125 233.597656 226.707031 232.714844 215.429688 227.824219 L 215.332031 227.777344 C 212.628906 226.230469 178.460938 217.449219 156.863281 229.414062 C 127.324219 245.269531 167.578125 265.171875 208.191406 264.425781 C 208.191406 264.425781 225.898438 253.710938 245.832031 255.941406 C 254.808594 257.480469 259.222656 254.304688 263.242188 253.113281 C 267.257812 251.921875 292.640625 246.6875 294.871094 242.324219 C 297.101562 237.957031 295.316406 232.4375 289.066406 230.648438 " fill-opacity="1" fill-rule="nonzero"/><path fill="#eaa366" d="M 287.011719 230.046875 C 289.480469 231.402344 290.789062 231.355469 292.679688 233.855469 C 294.308594 236.007812 294.605469 238.59375 293.347656 241.054688 C 291.117188 245.421875 266.066406 250.730469 262.050781 251.921875 C 258.03125 253.113281 253.621094 256.289062 244.644531 254.75 C 225.003906 251.773438 212.324219 261.6875 208.003906 264.425781 L 208.191406 264.425781 C 208.191406 264.425781 225.898438 253.710938 245.832031 255.941406 C 255.355469 258.097656 259.222656 254.304688 263.242188 253.113281 C 267.257812 251.921875 292.640625 246.6875 294.871094 242.324219 C 296.476562 239.183594 296 235.457031 293.292969 232.945312 C 293.1875 232.84375 292.445312 232.019531 290.414062 231.089844 C 289.695312 230.757812 287.8125 230.257812 287.011719 230.046875 " fill-opacity="1" fill-rule="nonzero"/><path fill="#f8d4b2" d="M 286.507812 232.417969 C 286.507812 232.417969 277.125 233.601562 275.570312 235.429688 C 273.414062 237.960938 274.058594 247.207031 277.628906 247.804688 C 281.199219 248.402344 291.984375 244.339844 293.917969 242.855469 C 295.851562 241.367188 297.308594 232.300781 286.507812 232.417969 " fill-opacity="1" fill-rule="nonzero"/><path fill="#eaa366" d="M 250.816406 255.980469 C 249.992188 255.839844 249.183594 255.574219 248.421875 255.199219 C 247.660156 254.832031 246.957031 254.335938 246.359375 253.726562 C 245.765625 253.109375 245.3125 252.355469 245.070312 251.53125 C 244.820312 250.714844 244.8125 249.847656 244.941406 249.019531 L 244.9375 249.335938 C 244.9375 249.4375 244.929688 249.542969 244.9375 249.648438 C 244.949219 249.855469 244.957031 250.0625 244.988281 250.265625 C 245.03125 250.679688 245.128906 251.082031 245.261719 251.472656 C 245.390625 251.863281 245.574219 252.234375 245.789062 252.578125 C 245.894531 252.757812 246.015625 252.921875 246.140625 253.085938 L 246.335938 253.320312 L 246.546875 253.546875 C 247.109375 254.136719 247.789062 254.628906 248.511719 255.023438 C 248.878906 255.222656 249.25 255.402344 249.636719 255.5625 C 250.019531 255.726562 250.414062 255.863281 250.816406 255.980469 " fill-opacity="1" fill-rule="nonzero"/></svg>