<svg width="88" height="88" viewBox="0 0 88 88" fill="none" xmlns="http://www.w3.org/2000/svg">
<g clip-path="url(#clip0_140_565)">
<path d="M88 44C88 68.3008 68.3008 88 44 88C19.6992 88 0 68.3008 0 44C0 19.6992 19.6992 0 44 0C68.3008 0 88 19.6992 88 44Z" fill="#364887"/>
<path d="M27.4852 27.17C25.6418 27.17 23.9332 27.7649 22.3776 28.9529C18.0216 32.2813 15.4842 40.2224 16.4761 47.4265C17.1517 52.3426 19.4021 55.9029 22.6462 57.1945C26.1112 58.5722 28.7356 58.3596 30.326 57.937C32.2877 57.4172 33.8414 56.2595 34.5903 54.7607C35.6216 52.6955 35.2604 49.5962 31.1537 47.0928C29.0298 45.7976 28.1792 43.2511 28.4578 41.514C28.6668 40.2068 29.4634 39.2984 30.6432 39.0216C33.5948 38.3304 35.3301 36.6767 35.5308 34.3649C35.7472 31.8642 34.0715 29.1197 31.7147 28.1142C30.238 27.4844 28.8263 27.17 27.4852 27.17ZM27.8116 59.2726C26.1359 59.2726 24.2705 58.9252 22.274 58.1313C18.6816 56.7022 16.2047 52.8504 15.4769 47.564C14.9911 44.0339 15.3128 40.1601 16.3844 36.6557C17.5302 32.9056 19.392 29.9649 21.7652 28.1517C24.7206 25.8949 28.2974 25.5612 32.1107 27.1865C34.8892 28.3717 36.7922 31.4948 36.5355 34.4511C36.2981 37.1928 34.2347 39.2159 30.8742 40.0033C29.8842 40.2352 29.5551 41.0392 29.4533 41.6726C29.2242 43.1072 29.9932 45.2045 31.679 46.2321C36.3742 49.0939 36.6675 52.8577 35.4923 55.2117C34.3236 57.5511 31.5406 59.2717 27.8116 59.2726Z" fill="white"/>
<path d="M60.5147 27.17C59.1736 27.17 57.7619 27.4844 56.2852 28.1142C53.9284 29.1197 52.2527 31.8642 52.4691 34.3649C52.6698 36.6767 54.4051 38.3304 57.3567 39.0216C58.5365 39.2984 59.3331 40.2068 59.5421 41.514C59.8207 43.2511 58.9701 45.7976 56.8462 47.0928C52.7395 49.5962 52.3783 52.6955 53.4096 54.7607C54.1585 56.2595 55.7122 57.4172 57.6739 57.937C59.2643 58.3596 61.8887 58.5722 65.3537 57.1945C68.5978 55.9029 70.8473 52.3426 71.5238 47.4265C72.5157 40.2224 69.9783 32.2813 65.6223 28.9529C64.0667 27.7649 62.3581 27.17 60.5147 27.17ZM60.1883 59.2726C56.4593 59.2726 53.6763 57.5511 52.5076 55.2117C51.3324 52.8577 51.6267 49.0939 56.3209 46.2321C58.0067 45.2045 58.7757 43.1072 58.5466 41.6726C58.4457 41.0401 58.1167 40.2352 57.1267 40.0033C53.7652 39.2159 51.7018 37.1928 51.4644 34.4511C51.2087 31.4948 53.1107 28.3717 55.8892 27.1865C59.7025 25.5612 63.2793 25.8949 66.2347 28.1517C68.6088 29.9649 70.4697 32.9056 71.6164 36.6557C72.6871 40.1601 73.0088 44.0339 72.5239 47.564C71.7961 52.8504 69.3183 56.7022 65.7268 58.1313C63.7303 58.9252 61.864 59.2726 60.1883 59.2726Z" fill="white"/>
<path d="M40.3048 65.0017C39.1865 65.0017 38.2772 64.0915 38.2772 62.9732V48.5824C38.2772 47.7702 37.9591 47.0048 37.3807 46.4273C36.8022 45.8489 36.0368 45.5308 35.2256 45.5308H29.7687C29.49 45.5308 29.2645 45.3053 29.2645 45.0267C29.2645 44.748 29.49 44.5225 29.7687 44.5225H35.2256C36.3063 44.5225 37.3247 44.9451 38.0938 45.7142C38.8629 46.4823 39.2855 47.5017 39.2855 48.5824V62.9732C39.2855 63.5351 39.7429 63.9934 40.3048 63.9934C40.8677 63.9934 41.3242 63.5351 41.3242 62.9732V48.5824C41.3242 46.9572 40.6889 45.4263 39.5348 44.2722C38.3817 43.1182 36.8508 42.4829 35.2256 42.4829H28.9143C28.6357 42.4829 28.4102 42.2574 28.4102 41.9787C28.4102 41.7001 28.6357 41.4746 28.9143 41.4746H35.2256C37.1203 41.4746 38.9042 42.2143 40.2489 43.5591C41.5927 44.9038 42.3334 46.6877 42.3334 48.5824V62.9732C42.3325 64.0915 41.4232 65.0017 40.3048 65.0017Z" fill="white"/>
<path d="M47.6951 65.0017C46.5768 65.0017 45.6675 64.0915 45.6675 62.9732V48.5824C45.6675 46.6877 46.4072 44.9038 47.752 43.5591C49.0958 42.2143 50.8796 41.4746 52.7744 41.4746H59.0856C59.3643 41.4746 59.5898 41.7001 59.5898 41.9787C59.5898 42.2574 59.3643 42.4829 59.0856 42.4829H52.7744C51.1491 42.4829 49.6183 43.1182 48.4651 44.2722C47.3111 45.4263 46.6758 46.9572 46.6758 48.5824V62.9732C46.6758 63.5351 47.1323 63.9934 47.6951 63.9934C48.2571 63.9934 48.7145 63.5351 48.7145 62.9732V48.5824C48.7145 47.5017 49.138 46.4823 49.9061 45.7142C50.6752 44.9451 51.6936 44.5225 52.7744 44.5225H58.2313C58.51 44.5225 58.7355 44.748 58.7355 45.0267C58.7355 45.3053 58.51 45.5308 58.2313 45.5308H52.7744C51.9631 45.5308 51.1977 45.8489 50.6202 46.4273C50.0418 47.0048 49.7237 47.7702 49.7237 48.5824V62.9732C49.7228 64.0915 48.8135 65.0017 47.6951 65.0017Z" fill="white"/>
<path d="M65.7002 37.686C65.4279 37.686 65.2033 37.4697 65.196 37.1956C65.1557 35.6895 64.6808 34.4438 63.8916 33.7773C63.2939 33.2723 62.5129 33.0843 61.5697 33.2182C61.2937 33.2576 61.038 33.066 60.9986 32.7901C60.9601 32.5142 61.1517 32.2584 61.4267 32.2199C62.6504 32.0458 63.7275 32.318 64.5433 33.0064C65.5654 33.8708 66.1548 35.3494 66.2043 37.169C66.2117 37.4477 65.9917 37.6787 65.713 37.686C65.7084 37.686 65.7038 37.686 65.7002 37.686Z" fill="white"/>
<path d="M22.2998 37.686C22.2952 37.686 22.2915 37.686 22.2869 37.686C22.0083 37.6787 21.7883 37.4477 21.7956 37.169C21.8451 35.3494 22.4345 33.8708 23.4566 33.0064C24.2724 32.318 25.3504 32.0458 26.5733 32.2199C26.8492 32.2584 27.0398 32.5142 27.0013 32.7901C26.9619 33.066 26.7062 33.2567 26.4312 33.2182C25.4879 33.0843 24.706 33.2723 24.1083 33.7773C23.32 34.4438 22.8443 35.6895 22.8039 37.1956C22.7966 37.4697 22.5729 37.686 22.2998 37.686Z" fill="white"/>
</g>
<defs>
<clipPath id="clip0_140_565">
<rect width="88" height="88" fill="white"/>
</clipPath>
</defs>
</svg>
