<svg xmlns="http://www.w3.org/2000/svg" xmlns:xlink="http://www.w3.org/1999/xlink" width="500" zoomAndPan="magnify" viewBox="0 0 375 374.999991" height="500" preserveAspectRatio="xMidYMid meet" version="1.0"><defs><clipPath id="2efb0112ae"><path d="M 0 326.191406 L 375 326.191406 L 375 370.453125 L 0 370.453125 Z M 0 326.191406 " clip-rule="nonzero"/></clipPath><clipPath id="f5b7cbb8c8"><path d="M 302.503906 363.222656 L 338.664062 363.222656 L 338.664062 370.453125 L 302.503906 370.453125 Z M 302.503906 363.222656 " clip-rule="nonzero"/></clipPath><clipPath id="7cc1dc4030"><path d="M 257.527344 362.339844 L 294 362.339844 L 294 370.453125 L 257.527344 370.453125 Z M 257.527344 362.339844 " clip-rule="nonzero"/></clipPath><clipPath id="6436c8d955"><path d="M 254 204.515625 L 336.898438 204.515625 L 336.898438 370.453125 L 254 370.453125 Z M 254 204.515625 " clip-rule="nonzero"/></clipPath><clipPath id="6ec4116394"><path d="M 254 225.675781 L 336.898438 225.675781 L 336.898438 370.453125 L 254 370.453125 Z M 254 225.675781 " clip-rule="nonzero"/></clipPath><clipPath id="b6b0f2d395"><path d="M 252.234375 340.296875 L 344.835938 340.296875 L 344.835938 370.453125 L 252.234375 370.453125 Z M 252.234375 340.296875 " clip-rule="nonzero"/></clipPath><clipPath id="571c04e056"><path d="M 289.277344 205 L 347.484375 205 L 347.484375 370.453125 L 289.277344 370.453125 Z M 289.277344 205 " clip-rule="nonzero"/></clipPath><clipPath id="1daf7c5b07"><path d="M 252.234375 204.515625 L 291.921875 204.515625 L 291.921875 370.453125 L 252.234375 370.453125 Z M 252.234375 204.515625 " clip-rule="nonzero"/></clipPath><clipPath id="7b17536155"><path d="M 334 283 L 355 283 L 355 370.453125 L 334 370.453125 Z M 334 283 " clip-rule="nonzero"/></clipPath><clipPath id="e02651a64f"><path d="M 334 283 L 358 283 L 358 370.453125 L 334 370.453125 Z M 334 283 " clip-rule="nonzero"/></clipPath></defs><g clip-path="url(#2efb0112ae)"><path fill="#cccbcc" d="M 0.00390625 370.453125 L 375 370.453125 L 375 326.199219 L 0.00390625 326.199219 Z M 0.00390625 370.453125 " fill-opacity="1" fill-rule="nonzero"/></g><path fill="#f57f86" d="M 260.769531 326.199219 L 253.019531 326.199219 C 255.492188 325.871094 257.898438 325.296875 260.199219 324.519531 L 260.769531 326.199219 M 242.703125 326.199219 L 236.375 326.199219 L 236.761719 324.917969 C 238.679688 325.496094 240.664062 325.929688 242.703125 326.199219 M 228.136719 324.253906 C 225.636719 322.882812 223.300781 321.265625 221.148438 319.425781 L 222.933594 317.34375 C 224.9375 319.0625 227.125 320.574219 229.457031 321.851562 L 228.136719 324.253906 M 268.792969 323.5625 L 267.394531 321.207031 C 269.679688 319.851562 271.8125 318.265625 273.757812 316.480469 L 275.613281 318.503906 C 273.527344 320.410156 271.242188 322.109375 268.792969 323.5625 M 215.304688 313.269531 C 213.582031 311.035156 212.082031 308.613281 210.839844 306.046875 L 213.3125 304.855469 C 214.464844 307.25 215.863281 309.511719 217.472656 311.597656 L 215.304688 313.269531 M 281.25 312.152344 L 279.023438 310.554688 C 280.558594 308.414062 281.882812 306.109375 282.957031 303.671875 L 282.957031 303.675781 L 285.464844 304.78125 C 284.3125 307.390625 282.894531 309.863281 281.25 312.152344 M 207.96875 298.054688 C 207.304688 295.347656 206.90625 292.535156 206.8125 289.648438 L 209.554688 289.554688 C 209.644531 292.25 210.011719 294.875 210.632812 297.402344 L 207.96875 298.054688 M 288.0625 296.695312 L 285.378906 296.128906 C 285.910156 293.585938 286.191406 290.953125 286.191406 288.25 C 286.191406 287.375 286.160156 286.503906 286.101562 285.640625 L 288.839844 285.460938 C 288.898438 286.382812 288.933594 287.3125 288.933594 288.25 C 288.933594 291.140625 288.636719 293.964844 288.0625 296.695312 M 210.097656 281.648438 L 207.398438 281.179688 C 207.890625 278.34375 208.671875 275.613281 209.714844 273.007812 L 212.261719 274.027344 C 211.285156 276.457031 210.554688 279.003906 210.097656 281.648438 M 284.757812 277.835938 C 284.03125 275.265625 283.042969 272.800781 281.824219 270.476562 L 284.253906 269.203125 C 285.558594 271.691406 286.621094 274.335938 287.398438 277.09375 L 284.757812 277.835938 M 215.953125 267.019531 L 213.671875 265.492188 C 215.253906 263.128906 217.070312 260.941406 219.09375 258.960938 L 221.015625 260.917969 C 219.128906 262.765625 217.429688 264.8125 215.953125 267.019531 M 277.429688 263.886719 C 275.746094 261.84375 273.851562 259.980469 271.78125 258.328125 L 273.492188 256.183594 C 275.707031 257.953125 277.742188 259.953125 279.546875 262.140625 L 277.429688 263.886719 M 227.210938 255.976562 L 225.734375 253.667969 C 228.109375 252.152344 230.652344 250.871094 233.324219 249.855469 L 234.292969 252.417969 C 231.796875 253.363281 229.429688 254.5625 227.210938 255.976562 M 265.113281 254.042969 C 262.769531 252.859375 260.292969 251.914062 257.703125 251.226562 L 258.40625 248.578125 C 261.179688 249.3125 263.835938 250.328125 266.347656 251.597656 L 265.113281 254.042969 M 241.957031 250.40625 L 241.539062 247.695312 C 243.601562 247.378906 245.710938 247.210938 247.859375 247.210938 C 248.582031 247.210938 249.300781 247.234375 250.015625 247.265625 L 249.875 250.003906 C 249.207031 249.96875 248.535156 249.953125 247.859375 249.953125 C 245.851562 249.953125 243.878906 250.109375 241.957031 250.40625 " fill-opacity="1" fill-rule="nonzero"/><path fill="#c46569" d="M 244.3125 329.136719 C 241.4375 328.890625 238.648438 328.347656 235.96875 327.539062 L 236.375 326.199219 L 242.703125 326.199219 C 243.3125 326.285156 243.925781 326.351562 244.542969 326.402344 L 244.3125 329.136719 M 252.800781 328.992188 L 252.472656 326.273438 C 252.65625 326.25 252.835938 326.226562 253.019531 326.199219 L 260.769531 326.199219 L 261.082031 327.113281 C 258.433594 328.011719 255.660156 328.648438 252.800781 328.992188 " fill-opacity="1" fill-rule="nonzero"/><path fill="#f57f86" d="M 142.078125 148.613281 L 139.394531 148.054688 C 139.929688 145.507812 140.207031 142.875 140.207031 140.167969 C 140.207031 139.296875 140.175781 138.425781 140.121094 137.566406 L 142.855469 137.378906 C 142.917969 138.304688 142.949219 139.234375 142.949219 140.167969 C 142.949219 143.0625 142.648438 145.886719 142.078125 148.613281 M 64.113281 133.570312 L 61.410156 133.101562 C 61.90625 130.269531 62.6875 127.53125 63.730469 124.929688 L 66.277344 125.949219 C 65.300781 128.378906 64.574219 130.925781 64.113281 133.570312 M 138.773438 129.757812 C 138.046875 127.183594 137.058594 124.722656 135.839844 122.402344 L 138.269531 121.128906 C 139.574219 123.613281 140.632812 126.253906 141.414062 129.015625 L 138.773438 129.757812 M 69.96875 118.941406 L 67.691406 117.417969 C 69.269531 115.050781 71.085938 112.863281 73.109375 110.878906 L 75.03125 112.835938 C 73.140625 114.6875 71.445312 116.730469 69.96875 118.941406 M 131.449219 115.804688 C 129.761719 113.761719 127.867188 111.898438 125.796875 110.246094 L 127.507812 108.105469 C 129.726562 109.875 131.757812 111.871094 133.5625 114.058594 L 131.449219 115.804688 M 81.226562 107.902344 L 79.75 105.589844 C 82.125 104.070312 84.667969 102.789062 87.339844 101.777344 L 88.3125 104.34375 C 85.816406 105.289062 83.441406 106.480469 81.226562 107.902344 M 119.128906 105.960938 C 116.789062 104.78125 114.308594 103.832031 111.71875 103.148438 L 112.421875 100.5 C 115.195312 101.234375 117.851562 102.25 120.363281 103.515625 L 119.128906 105.960938 M 95.972656 102.324219 L 95.550781 99.617188 C 97.617188 99.296875 99.726562 99.132812 101.878906 99.132812 C 102.597656 99.132812 103.316406 99.152344 104.035156 99.191406 L 103.890625 101.925781 C 103.226562 101.890625 102.554688 101.875 101.878906 101.875 C 99.867188 101.875 97.894531 102.027344 95.972656 102.324219 " fill-opacity="1" fill-rule="nonzero"/><path fill="#3e1416" d="M 113.027344 294.609375 C 114.246094 309.234375 116.5625 327.316406 120.996094 344.554688 C 121.242188 345.496094 122.199219 346.0625 123.144531 345.824219 C 124.085938 345.578125 124.652344 344.617188 124.410156 343.675781 C 120.046875 326.722656 117.746094 308.8125 116.539062 294.316406 C 116.457031 293.347656 115.605469 292.625 114.636719 292.710938 C 113.667969 292.789062 112.945312 293.640625 113.027344 294.609375 " fill-opacity="1" fill-rule="nonzero"/><path fill="#3e1416" d="M 118.226562 343.414062 C 118.226562 348.664062 123.253906 348.699219 129.457031 348.699219 C 135.660156 348.699219 140.6875 348.664062 140.6875 343.414062 C 140.6875 340.496094 135.660156 338.132812 129.457031 338.132812 C 123.253906 338.132812 118.226562 340.496094 118.226562 343.414062 " fill-opacity="1" fill-rule="nonzero"/><path fill="#3e1416" d="M 81.515625 293.414062 C 82.707031 308.238281 85.027344 326.839844 89.585938 344.554688 C 89.828125 345.496094 90.789062 346.0625 91.730469 345.824219 C 92.671875 345.578125 93.242188 344.617188 92.996094 343.675781 C 88.515625 326.257812 86.207031 307.824219 85.027344 293.128906 C 84.949219 292.160156 84.101562 291.4375 83.128906 291.515625 C 82.160156 291.59375 81.4375 292.445312 81.515625 293.414062 " fill-opacity="1" fill-rule="nonzero"/><path fill="#3e1416" d="M 86.8125 343.414062 C 86.8125 348.664062 91.84375 348.699219 98.042969 348.699219 C 104.246094 348.699219 109.269531 348.664062 109.269531 343.414062 C 109.269531 340.496094 104.246094 338.132812 98.042969 338.132812 C 91.84375 338.132812 86.8125 340.496094 86.8125 343.414062 " fill-opacity="1" fill-rule="nonzero"/><path fill="#3e1416" d="M 149.984375 230.347656 C 150.140625 230.332031 158.28125 229.816406 167.328125 224.835938 C 171.847656 222.34375 176.589844 218.722656 180.605469 213.484375 C 184.617188 208.246094 187.882812 201.40625 189.488281 192.570312 C 189.660156 191.617188 189.027344 190.695312 188.070312 190.523438 C 187.113281 190.351562 186.195312 190.984375 186.023438 191.941406 C 184.507812 200.265625 181.480469 206.546875 177.808594 211.339844 C 172.300781 218.527344 165.285156 222.402344 159.605469 224.492188 C 156.773438 225.53125 154.285156 226.121094 152.515625 226.445312 C 151.632812 226.609375 150.929688 226.707031 150.453125 226.765625 C 150.214844 226.792969 150.035156 226.808594 149.917969 226.820312 L 149.792969 226.828125 L 149.765625 226.832031 C 148.792969 226.894531 148.054688 227.730469 148.117188 228.703125 C 148.179688 229.675781 149.015625 230.410156 149.984375 230.347656 " fill-opacity="1" fill-rule="nonzero"/><path fill="#3e1416" d="M 195.335938 186.609375 C 194.734375 191.589844 191.460938 195.292969 188.023438 194.878906 C 184.59375 194.460938 181.351562 192.125 180.34375 187.878906 C 179.804688 185.628906 182.957031 182.796875 184.324219 185.273438 C 185.859375 188.042969 183.507812 176.359375 190.214844 176.832031 C 193.664062 177.082031 195.941406 181.625 195.335938 186.609375 " fill-opacity="1" fill-rule="nonzero"/><path fill="#334d8d" d="M 0.894531 207.292969 C 1.34375 204.769531 2.539062 202.859375 3.613281 202.886719 L 3.613281 202.863281 L 66.75 202.765625 L 70.972656 228.691406 C 70.972656 228.691406 41.328125 204.195312 2.796875 212.5625 L 2.800781 212.546875 C 2.699219 212.566406 2.601562 212.578125 2.496094 212.554688 C 1.386719 212.359375 0.429688 209.917969 0.894531 207.292969 " fill-opacity="1" fill-rule="nonzero"/><path fill="#e7ce7f" d="M 35.304688 296.65625 C 35.347656 222.109375 66.828125 211.015625 66.828125 211.015625 C 79.898438 219.726562 87.753906 231.214844 87.753906 231.214844 C 41.375 231.507812 44.363281 293.5625 44.550781 296.808594 C 44.570312 296.886719 44.578125 296.964844 44.574219 297.050781 C 44.5 298.167969 42.273438 299.394531 39.730469 299.226562 C 37.183594 299.058594 35.179688 298.011719 35.257812 296.886719 L 35.304688 296.65625 " fill-opacity="1" fill-rule="nonzero"/><path fill="#78131e" d="M 16.296875 183.867188 C 16.90625 180.4375 18.566406 177.871094 20.011719 178.128906 C 20.125 178.144531 20.238281 178.191406 20.339844 178.246094 L 59.835938 192.960938 C 79.984375 203.847656 76.992188 179.285156 76.992188 179.285156 C 89.246094 187.65625 97.414062 175.609375 97.414062 175.609375 C 95.984375 188.472656 111.503906 187.65625 111.503906 187.65625 C 104.96875 194.734375 110.484375 206.644531 110.484375 206.644531 C 103.132812 206.847656 97.003906 212.765625 102.722656 224.609375 C 102.722656 224.609375 94.144531 217.664062 88.222656 220.933594 C 81.742188 224.507812 83.796875 233.796875 83.796875 233.796875 C 64.671875 204.125 18.449219 190.785156 18.449219 190.785156 L 18.457031 190.738281 L 18.382812 190.734375 C 16.9375 190.480469 15.6875 187.292969 16.296875 183.867188 " fill-opacity="1" fill-rule="nonzero"/><path fill="#b01f30" d="M 52.757812 267.761719 C 49.871094 297.699219 90.957031 306.644531 111.921875 304.550781 C 144.632812 301.289062 166.964844 255.753906 162.136719 207.390625 C 157.308594 159.023438 128.902344 125.863281 96.046875 124.570312 C 66.550781 123.417969 39.671875 150.550781 52.035156 179.394531 C 56.363281 189.492188 62.382812 192.753906 67.546875 195.628906 C 78.371094 201.636719 87.992188 219.308594 69.832031 236.625 C 62.6875 243.4375 55.019531 244.320312 52.757812 267.761719 " fill-opacity="1" fill-rule="nonzero"/><path fill="#c81f38" d="M 134.117188 259.242188 C 131.484375 259.242188 128.488281 258.304688 127.152344 256.097656 C 124.871094 252.316406 125.230469 247.332031 125.617188 242.953125 C 126.074219 237.691406 126.996094 232.464844 127.253906 227.1875 C 127.753906 217.144531 125.167969 206.574219 122.152344 197.050781 C 118.953125 186.957031 114.585938 177.476562 109.644531 168.140625 C 107.863281 164.773438 105.210938 160.054688 106.6875 156.105469 C 107.128906 154.925781 107.203125 154.734375 108.183594 153.933594 C 107.914062 154.15625 107.867188 154.234375 107.921875 154.234375 C 107.984375 154.234375 108.15625 154.144531 108.289062 154.058594 C 108.421875 153.972656 108.511719 153.882812 108.410156 153.882812 C 108.367188 153.882812 108.296875 153.898438 108.183594 153.933594 L 108.191406 153.921875 C 108.621094 153.777344 109.058594 153.644531 109.503906 153.554688 C 109.371094 153.59375 109.632812 153.605469 110.003906 153.605469 C 110.355469 153.605469 110.8125 153.59375 111.117188 153.59375 C 111.429688 153.652344 112.449219 153.796875 112.472656 153.800781 C 113.972656 154.171875 115.453125 154.621094 116.882812 155.222656 C 118.699219 155.980469 121.972656 157.902344 124.128906 159.433594 C 126.0625 160.800781 129.167969 163.609375 131.355469 166.382812 C 134.03125 169.777344 146.917969 192.019531 148.453125 205.503906 C 149.550781 215.128906 151.914062 225.144531 149.992188 234.738281 C 148.890625 240.230469 147.207031 245.542969 144.957031 250.636719 C 142.410156 256.402344 136.457031 259.21875 134.214844 259.242188 C 134.183594 259.242188 134.148438 259.242188 134.117188 259.242188 " fill-opacity="1" fill-rule="nonzero"/><path fill="#bdbcbd" d="M 82.246094 301.441406 C 65.730469 296.570312 50.988281 286.105469 52.753906 267.761719 C 55.019531 244.316406 62.6875 243.4375 69.832031 236.625 C 70.714844 235.785156 71.53125 234.941406 72.285156 234.101562 L 72.289062 234.101562 C 71.535156 234.941406 70.714844 235.785156 69.832031 236.625 C 62.6875 243.4375 55.019531 244.320312 52.757812 267.761719 C 50.988281 286.105469 65.734375 296.570312 82.246094 301.441406 " fill-opacity="1" fill-rule="nonzero"/><path fill="#310f10" d="M 83.488281 301.796875 C 83.070312 301.683594 82.65625 301.5625 82.246094 301.441406 C 82.65625 301.5625 83.070312 301.683594 83.488281 301.796875 " fill-opacity="1" fill-rule="nonzero"/><path fill="#ab975d" d="M 72.285156 234.101562 C 74.75 231.347656 76.554688 228.597656 77.785156 225.90625 C 77.789062 225.90625 77.785156 225.902344 77.785156 225.90625 C 76.554688 228.597656 74.753906 231.34375 72.289062 234.101562 L 72.285156 234.101562 " fill-opacity="1" fill-rule="nonzero"/><path fill="#5c0e15" d="M 77.785156 225.90625 C 77.785156 225.902344 77.789062 225.90625 77.785156 225.90625 C 79.328125 222.554688 79.992188 219.289062 79.992188 216.195312 C 79.992188 219.285156 79.324219 222.554688 77.785156 225.90625 " fill-opacity="1" fill-rule="nonzero"/><path fill="#bdbcbd" d="M 67.546875 195.628906 C 64.175781 193.753906 60.441406 191.710938 57.046875 187.710938 C 60.441406 191.710938 64.175781 193.753906 67.546875 195.628906 M 96.046875 124.570312 C 95.441406 124.550781 94.832031 124.535156 94.230469 124.535156 C 94.832031 124.535156 95.441406 124.546875 96.046875 124.570312 M 94.210938 124.535156 C 94.21875 124.535156 94.222656 124.535156 94.230469 124.535156 C 94.222656 124.535156 94.21875 124.535156 94.210938 124.535156 " fill-opacity="1" fill-rule="nonzero"/><path fill="#841622" d="M 105.742188 304.839844 C 98.976562 304.839844 91.085938 303.898438 83.488281 301.796875 C 83.070312 301.683594 82.65625 301.5625 82.246094 301.441406 C 65.734375 296.570312 50.988281 286.105469 52.757812 267.761719 C 55.019531 244.320312 62.6875 243.4375 69.832031 236.625 C 70.714844 235.785156 71.535156 234.941406 72.289062 234.101562 C 74.753906 231.34375 76.554688 228.597656 77.785156 225.90625 C 79.324219 222.554688 79.992188 219.285156 79.992188 216.195312 C 79.996094 206.902344 73.984375 199.203125 67.546875 195.628906 C 64.175781 193.753906 60.441406 191.710938 57.046875 187.710938 C 55.246094 185.582031 53.535156 182.902344 52.035156 179.394531 C 39.929688 151.148438 65.453125 124.546875 94.210938 124.535156 C 94.21875 124.535156 94.222656 124.535156 94.230469 124.535156 C 94.832031 124.535156 95.441406 124.550781 96.046875 124.570312 C 98.011719 124.652344 99.957031 124.84375 101.882812 125.144531 C 74.558594 127.132812 51.46875 152.746094 63.101562 179.878906 C 67.425781 189.976562 73.445312 193.238281 78.613281 196.105469 C 89.433594 202.121094 99.054688 219.792969 80.898438 237.101562 C 73.75 243.917969 66.078125 244.796875 63.820312 268.242188 C 61.535156 291.9375 86.800781 302.484375 107.835938 304.808594 C 107.148438 304.828125 106.453125 304.839844 105.742188 304.839844 " fill-opacity="1" fill-rule="nonzero"/><path fill="#3e1416" d="M 128.097656 184.078125 C 128.097656 192.550781 132.160156 199.417969 137.164062 199.417969 C 142.171875 199.417969 146.234375 192.550781 146.234375 184.078125 C 146.234375 175.609375 142.171875 168.742188 137.164062 168.742188 C 132.160156 168.742188 128.097656 175.609375 128.097656 184.078125 " fill-opacity="1" fill-rule="nonzero"/><path fill="#ffffff" d="M 130.839844 187.824219 C 130.839844 191.089844 132.40625 193.738281 134.332031 193.738281 C 136.265625 193.738281 137.832031 191.089844 137.832031 187.824219 C 137.832031 184.558594 136.265625 181.910156 134.332031 181.910156 C 132.40625 181.910156 130.839844 184.558594 130.839844 187.824219 " fill-opacity="1" fill-rule="nonzero"/><path fill="#3e1416" d="M 107.328125 184.078125 C 107.328125 192.550781 103.269531 199.417969 98.261719 199.417969 C 93.253906 199.417969 89.195312 192.550781 89.195312 184.078125 C 89.195312 175.609375 93.253906 168.742188 98.261719 168.742188 C 103.269531 168.742188 107.328125 175.609375 107.328125 184.078125 " fill-opacity="1" fill-rule="nonzero"/><path fill="#ffffff" d="M 104.589844 187.824219 C 104.589844 191.089844 103.019531 193.738281 101.09375 193.738281 C 99.164062 193.738281 97.597656 191.089844 97.597656 187.824219 C 97.597656 184.558594 99.164062 181.910156 101.09375 181.910156 C 103.019531 181.910156 104.589844 184.558594 104.589844 187.824219 " fill-opacity="1" fill-rule="nonzero"/><path fill="#3e1416" d="M 99.921875 227.578125 C 102.957031 234.363281 109.769531 239.097656 117.691406 239.097656 C 125.34375 239.097656 131.96875 234.683594 135.140625 228.261719 C 135.433594 227.667969 135.191406 226.949219 134.597656 226.65625 C 134.007812 226.363281 133.285156 226.605469 132.992188 227.199219 C 130.207031 232.828125 124.402344 236.703125 117.691406 236.703125 C 110.746094 236.703125 104.769531 232.554688 102.105469 226.601562 C 101.835938 225.996094 101.125 225.726562 100.523438 225.996094 C 99.921875 226.269531 99.648438 226.972656 99.921875 227.578125 " fill-opacity="1" fill-rule="nonzero"/><path fill="#3e1416" d="M 101.5 223.941406 C 101.171875 224.644531 100.6875 225.484375 100 226.292969 C 99.3125 227.097656 98.425781 227.871094 97.273438 228.460938 C 96.683594 228.765625 96.453125 229.484375 96.75 230.074219 C 97.054688 230.664062 97.777344 230.894531 98.363281 230.59375 C 99.832031 229.839844 100.964844 228.851562 101.824219 227.84375 C 102.679688 226.835938 103.269531 225.808594 103.667969 224.957031 C 103.949219 224.355469 103.691406 223.648438 103.089844 223.367188 C 102.492188 223.085938 101.777344 223.347656 101.5 223.941406 " fill-opacity="1" fill-rule="nonzero"/><path fill="#3e1416" d="M 131.460938 224.957031 C 131.855469 225.808594 132.445312 226.835938 133.304688 227.84375 C 134.160156 228.851562 135.292969 229.839844 136.757812 230.589844 C 137.347656 230.894531 138.070312 230.664062 138.371094 230.074219 C 138.675781 229.484375 138.445312 228.765625 137.855469 228.460938 C 136.703125 227.871094 135.816406 227.097656 135.128906 226.292969 C 134.441406 225.484375 133.953125 224.644531 133.628906 223.945312 C 133.351562 223.347656 132.636719 223.085938 132.039062 223.363281 C 131.441406 223.644531 131.179688 224.355469 131.460938 224.957031 " fill-opacity="1" fill-rule="nonzero"/><path fill="#f7979e" d="M 132.609375 212.761719 C 132.609375 215.265625 136.003906 217.300781 140.195312 217.300781 C 144.378906 217.300781 147.777344 215.265625 147.777344 212.761719 C 147.777344 210.253906 144.378906 208.21875 140.195312 208.21875 C 136.003906 208.21875 132.609375 210.253906 132.609375 212.761719 " fill-opacity="1" fill-rule="nonzero"/><path fill="#f7979e" d="M 87.109375 212.761719 C 87.109375 215.265625 90.503906 217.300781 94.691406 217.300781 C 98.878906 217.300781 102.273438 215.265625 102.273438 212.761719 C 102.273438 210.253906 98.878906 208.21875 94.691406 208.21875 C 90.503906 208.21875 87.109375 210.253906 87.109375 212.761719 " fill-opacity="1" fill-rule="nonzero"/><path fill="#3e1416" d="M 78.550781 226.832031 L 78.527344 227.234375 L 78.554688 226.832031 L 78.550781 226.832031 L 78.527344 227.234375 L 78.554688 226.832031 C 78.464844 226.832031 70.777344 226.273438 62.492188 221.640625 C 58.347656 219.328125 54.054688 216.007812 50.421875 211.226562 C 46.789062 206.445312 43.796875 200.203125 42.296875 191.941406 C 42.121094 190.984375 41.203125 190.351562 40.246094 190.523438 C 39.289062 190.695312 38.652344 191.617188 38.828125 192.570312 C 40.429688 201.402344 43.695312 208.246094 47.710938 213.484375 C 53.734375 221.34375 61.382812 225.554688 67.492188 227.796875 C 73.605469 230.039062 78.210938 230.339844 78.332031 230.347656 C 79.296875 230.40625 80.136719 229.675781 80.199219 228.703125 C 80.261719 227.730469 79.523438 226.894531 78.554688 226.832031 " fill-opacity="1" fill-rule="nonzero"/><path fill="#3e1416" d="M 32.980469 186.609375 C 33.582031 191.589844 36.855469 195.292969 40.289062 194.878906 C 43.722656 194.460938 46.964844 192.125 47.972656 187.878906 C 48.511719 185.628906 45.359375 182.796875 43.988281 185.273438 C 42.457031 188.042969 44.804688 176.359375 38.097656 176.832031 C 34.652344 177.082031 32.375 181.625 32.980469 186.609375 " fill-opacity="1" fill-rule="nonzero"/><g clip-path="url(#f5b7cbb8c8)"><path fill="#f5965d" d="M 335.71875 363.992188 L 303.8125 363.578125 L 302.78125 403.902344 C 303.375 423.023438 303.640625 459.648438 304.332031 476.378906 C 304.496094 480.425781 308.207031 489.035156 318.929688 488.234375 C 332.179688 487.25 338.335938 480.265625 338.5 474.226562 C 339.195312 446.851562 335.71875 363.992188 335.71875 363.992188 " fill-opacity="1" fill-rule="nonzero"/></g><g clip-path="url(#7cc1dc4030)"><path fill="#f5965d" d="M 290.851562 363.371094 L 258.949219 362.953125 L 257.914062 403.277344 C 258.515625 422.402344 258.769531 459.027344 259.46875 475.753906 C 259.632812 479.804688 263.339844 488.417969 274.070312 487.613281 C 287.320312 486.628906 293.46875 479.640625 293.625 473.601562 C 294.324219 446.226562 290.851562 363.371094 290.851562 363.371094 " fill-opacity="1" fill-rule="nonzero"/></g><path fill="#45160b" d="M 326.3125 53.453125 C 300.90625 53.097656 292.921875 73.933594 292.820312 80.804688 C 292.019531 138.460938 289.929688 288.59375 289.929688 288.59375 L 356.324219 289.519531 C 356.324219 289.519531 356.605469 269.09375 357.300781 219.253906 L 359.121094 88.375 C 359.289062 76.605469 350.84375 53.792969 326.3125 53.453125 " fill-opacity="1" fill-rule="nonzero"/><path fill="#5ecbf5" d="M 192.027344 205.800781 L 175.273438 116.261719 L 160.992188 118.234375 L 171.0625 208.75 C 171.878906 214.550781 177.246094 218.582031 183.019531 217.765625 C 188.808594 216.953125 192.851562 211.601562 192.027344 205.800781 " fill-opacity="1" fill-rule="nonzero"/><path fill="#f5965d" d="M 156.648438 105.351562 C 156.824219 105.78125 160.273438 111.347656 160.585938 113.613281 C 160.773438 114.976562 160.941406 117.355469 160.992188 118.234375 L 175.273438 116.261719 C 175.152344 115.550781 175.023438 114.214844 175.183594 112.617188 C 175.410156 110.5625 176.519531 108.027344 177.429688 105.753906 C 177.429688 105.753906 178.636719 100.65625 179.074219 98.914062 C 179.398438 97.679688 179.742188 95.300781 177.925781 94.878906 C 176.136719 94.457031 175.175781 97.03125 174.957031 98.296875 L 174.300781 100.832031 C 174.300781 100.832031 174.242188 101.550781 173.871094 101.503906 C 173.359375 101.429688 173.5 100.875 173.5 100.875 L 171.089844 83.074219 C 170.957031 81.96875 170.824219 79.011719 168.558594 79.335938 C 166.640625 79.597656 166.953125 82.523438 167.097656 83.625 L 169.199219 97.859375 C 169.199219 97.859375 169.386719 98.644531 168.980469 98.71875 C 168.433594 98.820312 168.46875 98.085938 168.46875 98.085938 L 163.828125 79.753906 C 163.570312 78.652344 162.820312 76.394531 161.179688 76.808594 C 159.289062 77.277344 159.628906 79.621094 159.90625 80.703125 L 164.066406 98.183594 C 164.066406 98.183594 164.578125 98.851562 163.949219 99.144531 C 163.398438 99.421875 163.097656 98.328125 163.097656 98.328125 L 158.683594 83.589844 C 158.386719 82.519531 157.59375 80.847656 156.070312 81.253906 C 154.980469 81.546875 155.273438 82.992188 155.738281 84.777344 C 156.671875 88.394531 159 97.09375 159 97.09375 C 159 97.09375 159.179688 97.652344 158.820312 97.800781 C 158.539062 97.902344 158.246094 97.398438 158.246094 97.398438 L 155.816406 90.988281 C 155.429688 89.945312 154.464844 88.761719 153.441406 89.144531 C 152.375 89.546875 152.539062 90.992188 152.910156 92.046875 L 156.648438 105.351562 " fill-opacity="1" fill-rule="nonzero"/><path fill="#d5d4d5" d="M 182.128906 226.460938 C 176.03125 225.542969 171.828125 219.847656 172.753906 213.75 C 173.667969 207.660156 179.347656 203.460938 185.457031 204.367188 L 264.222656 216.226562 C 270.3125 217.140625 274.515625 222.828125 273.59375 228.933594 C 272.660156 235.027344 266.984375 239.226562 260.875 238.308594 L 182.128906 226.460938 " fill-opacity="1" fill-rule="nonzero"/><path fill="#d5d4d5" d="M 161.976562 126.753906 L 171.710938 213.347656 C 172.300781 219.171875 177.511719 223.410156 183.316406 222.8125 C 189.128906 222.222656 193.375 217.027344 192.769531 211.203125 L 181.210938 125.175781 L 161.976562 126.753906 " fill-opacity="1" fill-rule="nonzero"/><g clip-path="url(#6436c8d955)"><path fill="#f5965d" d="M 336.125 369.300781 C 335.683594 312.011719 334.570312 229.414062 334.570312 229.414062 C 334.75 216.316406 326.730469 205.566406 313.671875 205.105469 L 313.671875 205.089844 L 275.527344 204.558594 C 262.261719 204.371094 254.34375 217.589844 254.160156 230.886719 C 254.160156 230.886719 260.648438 307.742188 258.441406 365.683594 C 258.441406 365.683594 270.988281 375.5 299.15625 375.898438 C 322.863281 376.222656 336.125 369.300781 336.125 369.300781 " fill-opacity="1" fill-rule="nonzero"/></g><g clip-path="url(#6ec4116394)"><path fill="#40bfbb" d="M 334.488281 226.792969 L 254.636719 225.683594 C 254.347656 227.398438 254.183594 229.136719 254.160156 230.886719 C 254.160156 230.886719 260.648438 307.742188 258.441406 365.683594 C 258.441406 365.683594 270.988281 375.5 299.15625 375.898438 C 322.863281 376.222656 336.125 369.300781 336.125 369.300781 C 335.683594 312.011719 334.570312 229.414062 334.570312 229.414062 C 334.582031 228.527344 334.554688 227.660156 334.488281 226.792969 " fill-opacity="1" fill-rule="nonzero"/></g><path fill="#f5965d" d="M 345.332031 132.558594 C 345.332031 132.558594 346.996094 128.441406 350.757812 131.054688 C 356.160156 134.808594 352.671875 154.839844 341.796875 155.90625 C 341.796875 155.90625 341.460938 141.46875 345.332031 132.558594 " fill-opacity="1" fill-rule="nonzero"/><path fill="#cf7741" d="M 347.550781 134.503906 C 347.625 134.523438 348.183594 134.714844 348.703125 135.277344 C 349.21875 135.835938 349.742188 136.765625 349.746094 138.464844 C 349.75 139.160156 349.65625 139.988281 349.421875 140.960938 C 348.695312 144.039062 347.46875 146.550781 346.421875 148.289062 C 345.902344 149.160156 345.425781 149.835938 345.082031 150.289062 C 344.914062 150.515625 344.773438 150.6875 344.679688 150.800781 L 344.574219 150.929688 L 344.546875 150.957031 L 344.542969 150.964844 C 344.28125 151.257812 344.3125 151.699219 344.601562 151.960938 C 344.890625 152.21875 345.335938 152.191406 345.59375 151.902344 C 345.636719 151.847656 349.25 147.792969 350.796875 141.285156 C 351.046875 140.222656 351.15625 139.289062 351.15625 138.464844 C 351.167969 136.328125 350.394531 134.945312 349.585938 134.164062 C 348.773438 133.371094 347.976562 133.160156 347.902344 133.140625 C 347.523438 133.042969 347.140625 133.269531 347.046875 133.648438 C 346.949219 134.027344 347.175781 134.40625 347.550781 134.503906 " fill-opacity="1" fill-rule="nonzero"/><path fill="#cf7741" d="M 349.078125 146.15625 C 349.078125 146.148438 349.078125 146.105469 349.078125 146.023438 C 349.078125 145.679688 349.050781 144.765625 348.75 143.691406 C 348.453125 142.632812 347.871094 141.394531 346.714844 140.511719 C 346.402344 140.277344 345.960938 140.335938 345.726562 140.644531 C 345.492188 140.957031 345.554688 141.394531 345.859375 141.632812 C 346.683594 142.25 347.144531 143.1875 347.398438 144.074219 C 347.644531 144.957031 347.671875 145.765625 347.667969 146.023438 L 347.667969 146.109375 C 347.65625 146.5 347.960938 146.824219 348.351562 146.835938 C 348.742188 146.851562 349.066406 146.546875 349.078125 146.15625 " fill-opacity="1" fill-rule="nonzero"/><path fill="#f5965d" d="M 281.425781 189.75 L 281.214844 204.636719 L 290.570312 218.949219 L 300.296875 204.902344 L 300.503906 190.015625 L 281.425781 189.75 " fill-opacity="1" fill-rule="nonzero"/><path fill="#f5965d" d="M 344.863281 134.652344 C 344.359375 170.917969 319.804688 199.992188 290.039062 199.578125 C 260.28125 199.164062 236.554688 169.417969 237.054688 133.152344 C 237.566406 96.882812 247.253906 67.601562 291.867188 68.222656 C 341.1875 68.910156 345.367188 98.382812 344.863281 134.652344 " fill-opacity="1" fill-rule="nonzero"/><path fill="#45160b" d="M 265.605469 142.9375 C 265.546875 147.113281 263.082031 150.453125 260.109375 150.414062 C 257.125 150.371094 254.761719 146.960938 254.816406 142.789062 C 254.875 138.632812 257.335938 135.285156 260.320312 135.332031 C 263.292969 135.371094 265.660156 138.78125 265.605469 142.9375 " fill-opacity="1" fill-rule="nonzero"/><path fill="#45160b" d="M 317.996094 143.667969 C 317.933594 147.84375 315.480469 151.183594 312.503906 151.144531 C 309.535156 151.101562 307.164062 147.691406 307.222656 143.519531 C 307.277344 139.359375 309.746094 136.015625 312.714844 136.058594 C 315.691406 136.097656 318.054688 139.511719 317.996094 143.667969 " fill-opacity="1" fill-rule="nonzero"/><path fill="#cf7741" d="M 287.257812 157.699219 L 284.140625 157.65625 C 283.230469 157.640625 282.511719 156.921875 282.511719 156.027344 L 282.511719 156.011719 L 282.097656 156.007812 L 282.511719 156.039062 L 282.511719 156.011719 L 282.097656 156.007812 L 282.511719 156.039062 L 282.511719 156 C 282.523438 155.101562 283.261719 154.378906 284.167969 154.378906 C 284.488281 154.394531 284.777344 154.1875 284.871094 153.882812 L 291.667969 131.429688 C 291.777344 131.054688 291.566406 130.660156 291.195312 130.550781 C 290.824219 130.4375 290.429688 130.648438 290.316406 131.019531 L 283.523438 153.472656 L 284.195312 153.679688 L 284.226562 152.972656 L 284.167969 152.972656 C 282.5 152.972656 281.128906 154.304688 281.105469 155.980469 L 281.808594 155.992188 L 281.105469 155.941406 L 281.105469 156.027344 C 281.105469 157.699219 282.453125 159.042969 284.121094 159.066406 L 287.234375 159.109375 C 287.621094 159.117188 287.941406 158.804688 287.949219 158.417969 C 287.957031 158.027344 287.644531 157.707031 287.257812 157.699219 " fill-opacity="1" fill-rule="nonzero"/><path fill="#f26d58" d="M 272.488281 161.355469 C 272.425781 165.601562 266.765625 168.976562 259.851562 168.878906 C 252.921875 168.789062 247.367188 165.253906 247.425781 161.007812 C 247.484375 156.765625 253.136719 153.390625 260.066406 153.488281 C 266.984375 153.585938 272.542969 157.113281 272.488281 161.355469 " fill-opacity="1" fill-rule="nonzero"/><path fill="#f26d58" d="M 324.898438 162.085938 C 324.835938 166.328125 319.164062 169.707031 312.246094 169.605469 C 305.328125 169.515625 299.761719 165.984375 299.816406 161.738281 C 299.875 157.496094 305.539062 154.121094 312.460938 154.21875 C 319.382812 154.316406 324.953125 157.84375 324.898438 162.085938 " fill-opacity="1" fill-rule="nonzero"/><path fill="#ffffff" d="M 285.816406 186.203125 C 294.375 186.320312 301.40625 179.476562 301.523438 170.929688 L 270.539062 170.5 C 270.417969 179.042969 277.246094 186.078125 285.816406 186.203125 " fill-opacity="1" fill-rule="nonzero"/><path fill="#45160b" d="M 320.574219 131.359375 C 319.972656 131.351562 319.425781 130.960938 319.238281 130.359375 C 318.652344 128.386719 316.671875 126.472656 314.414062 125.734375 C 312.90625 125.238281 310.578125 125.023438 308.15625 126.835938 C 307.542969 127.316406 306.660156 127.179688 306.199219 126.550781 C 305.734375 125.941406 305.847656 125.042969 306.484375 124.59375 C 309.125 122.59375 312.269531 122.074219 315.308594 123.050781 C 318.410156 124.09375 321.074219 126.695312 321.941406 129.542969 C 322.15625 130.292969 321.746094 131.078125 321 131.304688 C 320.859375 131.339844 320.710938 131.363281 320.574219 131.359375 " fill-opacity="1" fill-rule="nonzero"/><path fill="#45160b" d="M 252.578125 130.414062 C 252.441406 130.414062 252.304688 130.386719 252.160156 130.347656 C 251.421875 130.09375 251.011719 129.300781 251.277344 128.558594 C 252.214844 125.742188 254.957031 123.210938 258.082031 122.257812 C 261.152344 121.363281 264.269531 121.972656 266.871094 124.039062 C 267.476562 124.507812 267.570312 125.414062 267.09375 126.011719 C 266.609375 126.621094 265.722656 126.734375 265.117188 126.238281 C 262.75 124.359375 260.425781 124.507812 258.890625 124.960938 C 256.632812 125.640625 254.59375 127.492188 253.9375 129.453125 C 253.742188 130.046875 253.179688 130.421875 252.578125 130.414062 " fill-opacity="1" fill-rule="nonzero"/><g clip-path="url(#b6b0f2d395)"><path fill="#212021" d="M 342.363281 479.066406 C 342.390625 476.253906 342.527344 462.105469 342.769531 444.445312 C 343.132812 418.53125 349.386719 375.726562 335.78125 341.746094 L 258.792969 340.667969 C 258.792969 340.667969 245.460938 409.792969 258.453125 477.898438 L 342.363281 479.066406 " fill-opacity="1" fill-rule="nonzero"/></g><g clip-path="url(#571c04e056)"><path fill="#d1d0d0" d="M 308.863281 205.023438 L 291.210938 308 L 289.6875 417.070312 C 308.953125 416.566406 346.214844 412.660156 346.214844 412.660156 C 349.898438 382.636719 342.128906 362.136719 338.710938 339.519531 C 332.464844 298.195312 336.464844 229.441406 336.464844 229.441406 C 336.644531 216.339844 328.613281 205.59375 315.5625 205.128906 L 315.5625 205.117188 L 308.863281 205.023438 " fill-opacity="1" fill-rule="nonzero"/></g><g clip-path="url(#1daf7c5b07)"><path fill="#deddde" d="M 289.6875 417.070312 L 291.210938 308 L 281.3125 204.636719 L 273.992188 204.539062 C 260.726562 204.351562 252.800781 217.566406 252.621094 230.867188 C 252.621094 230.867188 254.726562 348.515625 252.515625 406.460938 C 252.515625 406.460938 267.355469 416.753906 289.6875 417.070312 " fill-opacity="1" fill-rule="nonzero"/></g><path fill="#5ecbf5" d="M 352.949219 289.570312 C 354.007812 295.070312 350.40625 300.386719 344.90625 301.433594 C 339.410156 302.492188 334.09375 298.902344 333.027344 293.394531 L 319.390625 222.410156 C 318.335938 216.921875 321.933594 211.601562 327.445312 210.550781 C 332.945312 209.511719 338.25 213.101562 339.3125 218.609375 L 352.949219 289.570312 " fill-opacity="1" fill-rule="nonzero"/><g clip-path="url(#7b17536155)"><path fill="#5ecbf5" d="M 334.0625 293.679688 L 341.6875 376.023438 L 354.761719 375.433594 L 353.261719 292.78125 C 353.011719 287.472656 348.5 283.371094 343.207031 283.625 C 337.910156 283.875 333.804688 288.375 334.0625 293.679688 " fill-opacity="1" fill-rule="nonzero"/></g><path fill="#cac9c9" d="M 352.949219 289.570312 C 354.007812 295.070312 350.40625 300.386719 344.90625 301.433594 C 339.410156 302.492188 334.09375 298.902344 333.027344 293.394531 L 319.390625 222.410156 C 318.335938 216.921875 321.933594 211.601562 327.445312 210.550781 C 332.945312 209.511719 338.25 213.101562 339.3125 218.609375 L 352.949219 289.570312 " fill-opacity="1" fill-rule="nonzero"/><g clip-path="url(#e02651a64f)"><path fill="#cac9c9" d="M 357.796875 371.746094 L 353.261719 292.78125 C 353.011719 287.472656 348.5 283.371094 343.207031 283.625 C 337.910156 283.875 333.804688 288.375 334.0625 293.679688 L 340.289062 372.230469 L 357.796875 371.746094 " fill-opacity="1" fill-rule="nonzero"/></g><path fill="#5d1f11" d="M 350.988281 100.125 C 346.949219 91.171875 335.578125 66.460938 305.214844 62.511719 C 274.871094 58.566406 260.730469 62.636719 250.203125 73.078125 C 241.007812 82.167969 238.683594 91.929688 237.394531 110.335938 C 234.09375 130.027344 238.007812 147.097656 238.007812 147.097656 C 242.804688 146.496094 246.453125 141.84375 245.914062 130.90625 C 245.5625 123.714844 249.957031 112.789062 253 106.105469 C 266.105469 98.511719 295.347656 92.433594 316.269531 104.828125 C 320.042969 109.222656 330.769531 121.183594 330.425781 145.582031 C 330.320312 153.550781 340.949219 152.296875 340.949219 152.296875 C 346.222656 142.800781 359.375 118.734375 350.988281 100.125 " fill-opacity="1" fill-rule="nonzero"/><path fill="#78131e" d="M 187.804688 88.992188 C 189.445312 106.53125 165.757812 111.808594 153.679688 110.601562 C 134.835938 108.722656 122.015625 82.070312 124.84375 53.726562 C 127.675781 25.390625 144.074219 5.9375 163.003906 5.148438 C 180 4.441406 195.464844 20.3125 188.3125 37.222656 C 185.804688 43.144531 182.332031 45.0625 179.355469 46.746094 C 173.109375 50.28125 167.550781 60.644531 178.003906 70.765625 C 182.109375 74.75 186.53125 75.261719 187.804688 88.992188 " fill-opacity="1" fill-rule="nonzero"/><path fill="#f8a29b" d="M 188.488281 87.488281 C 190.085938 104.050781 167.355469 109.003906 155.75 107.84375 C 137.652344 106.035156 125.292969 80.835938 127.96875 54.078125 C 130.640625 27.316406 146.359375 8.96875 164.53125 8.253906 C 180.855469 7.617188 195.730469 22.625 188.890625 38.589844 C 186.496094 44.179688 183.164062 45.984375 180.304688 47.574219 C 174.316406 50.898438 168.996094 60.675781 179.042969 70.257812 C 182.996094 74.023438 187.238281 74.511719 188.488281 87.488281 " fill-opacity="1" fill-rule="nonzero"/><path fill="#314d8d" d="M 169.125 47.570312 C 169.125 47.570312 163.863281 41.011719 164.625 30.339844 C 165.121094 23.382812 168.804688 16.351562 174.070312 17.757812 C 179.332031 19.160156 185.285156 28.589844 177.5625 36.660156 L 169.125 47.570312 " fill-opacity="1" fill-rule="nonzero"/><path fill="#e7ce7f" d="M 169.460938 46.144531 C 169.460938 46.144531 164.695312 40.210938 165.382812 30.554688 C 165.835938 24.257812 169.167969 17.886719 173.933594 19.160156 C 178.699219 20.433594 182.828125 28.140625 176.449219 35.984375 C 174.5 38.375 169.460938 46.144531 169.460938 46.144531 " fill-opacity="1" fill-rule="nonzero"/><path fill="#314d8d" d="M 161.203125 45.773438 C 161.203125 45.773438 140.066406 30.371094 145.339844 22.957031 C 150.605469 15.535156 162.96875 17.285156 165 21.230469 C 165 21.230469 158.972656 33.84375 161.203125 45.773438 " fill-opacity="1" fill-rule="nonzero"/><path fill="#e7ce7f" d="M 160.558594 44.363281 C 160.558594 44.363281 141.546875 30.515625 146.285156 23.847656 C 151.023438 17.175781 162.140625 18.746094 163.972656 22.296875 C 163.972656 22.296875 158.546875 33.636719 160.558594 44.363281 " fill-opacity="1" fill-rule="nonzero"/><path fill="#314d8d" d="M 160.292969 52.265625 C 160.292969 52.265625 154.875 60.167969 147.414062 54.15625 C 139.957031 48.136719 135.148438 51.8125 133.707031 51.8125 C 132.265625 51.8125 131.53125 34.386719 140.554688 32.621094 C 143.667969 32.015625 147.464844 33.402344 150.351562 42.304688 C 150.351562 42.304688 154.476562 52.027344 160.292969 52.265625 " fill-opacity="1" fill-rule="nonzero"/><path fill="#e7ce7f" d="M 159.023438 51.550781 C 159.023438 51.550781 154.105469 58.722656 147.335938 53.257812 C 140.5625 47.804688 136.128906 50.863281 134.816406 50.863281 C 133.507812 50.863281 132.917969 35.316406 141.105469 33.714844 C 143.925781 33.164062 147.097656 34.59375 149.71875 42.671875 C 149.71875 42.671875 153.3125 51.496094 159.023438 51.550781 " fill-opacity="1" fill-rule="nonzero"/><path fill="#314d8d" d="M 164.671875 63.011719 C 164.671875 63.011719 151.058594 63.476562 138.128906 70.964844 C 133.792969 73.480469 129.019531 66.398438 132.59375 55.242188 C 133.402344 52.71875 137.695312 51.1875 143.949219 55.832031 C 147.945312 58.808594 154.28125 63.992188 163.25 56.554688 L 164.671875 63.011719 " fill-opacity="1" fill-rule="nonzero"/><path fill="#e7ce7f" d="M 163.753906 62.894531 C 163.753906 62.894531 150.886719 63.304688 138.675781 69.816406 C 134.574219 72.003906 130.066406 65.84375 133.441406 56.148438 C 134.207031 53.953125 138.265625 52.617188 144.171875 56.664062 C 147.949219 59.246094 153.9375 63.753906 162.40625 57.289062 L 163.753906 62.894531 " fill-opacity="1" fill-rule="nonzero"/><path fill="#314d8d" d="M 166.695312 64.4375 C 166.695312 64.4375 155.898438 81.710938 156.984375 98.4375 C 156.984375 98.4375 136.734375 95.183594 137.863281 75.953125 C 138.320312 68.222656 147.742188 67.449219 166.695312 64.4375 " fill-opacity="1" fill-rule="nonzero"/><path fill="#e7ce7f" d="M 165.171875 65.4375 C 165.171875 65.4375 153.019531 84.597656 156.070312 97.167969 C 156.070312 97.167969 137.957031 94.132812 139 76.390625 C 139.414062 69.261719 147.6875 68.21875 165.171875 65.4375 " fill-opacity="1" fill-rule="nonzero"/><path fill="#314d8d" d="M 172.289062 66.042969 C 172.289062 66.042969 171.332031 81.871094 181.164062 85.417969 C 191 88.964844 166.488281 109.722656 160.445312 101.632812 C 156.496094 96.34375 157.46875 79.605469 172.289062 66.042969 " fill-opacity="1" fill-rule="nonzero"/><path fill="#e7ce7f" d="M 171.699219 67.464844 C 171.699219 67.464844 170.972656 82.839844 180.035156 86.109375 C 189.09375 89.375 166.777344 107.746094 161.210938 100.292969 C 157.570312 95.417969 159.523438 80.292969 171.699219 67.464844 " fill-opacity="1" fill-rule="nonzero"/><path fill="#334d8d" d="M 220.71875 53.769531 C 220.410156 52.042969 219.574219 50.75 218.847656 50.875 C 218.664062 50.90625 218.515625 51.023438 218.382812 51.203125 L 181.988281 51.144531 L 179.515625 66.335938 C 179.515625 66.335938 196.601562 52.21875 218.910156 56.773438 C 219.132812 57.105469 219.386719 57.28125 219.667969 57.234375 C 220.390625 57.101562 221.023438 55.496094 220.71875 53.769531 " fill-opacity="1" fill-rule="nonzero"/><path fill="#e7ce7f" d="M 200.410156 105.675781 C 200.25 62.4375 181.945312 55.980469 181.945312 55.980469 C 174.285156 61.085938 169.683594 67.8125 169.683594 67.8125 C 195.671875 67.980469 195.203125 101.242188 195.019531 105.8125 C 194.679688 105.972656 194.492188 106.179688 194.507812 106.421875 C 194.554688 107.078125 196.074219 107.78125 197.828125 107.667969 C 199.578125 107.550781 200.960938 106.921875 200.917969 106.265625 C 200.902344 106.039062 200.71875 105.839844 200.410156 105.675781 " fill-opacity="1" fill-rule="nonzero"/><path fill="#78131e" d="M 159.769531 42.671875 C 156.78125 33.96875 162.066406 23.148438 162.066406 23.148438 C 160.484375 20.066406 151.988281 19.042969 147.890625 24.828125 C 143.78125 30.609375 159.769531 42.671875 159.769531 42.671875 " fill-opacity="1" fill-rule="nonzero"/><path fill="#78131e" d="M 210.675781 44.433594 C 210.289062 42.265625 209.242188 40.640625 208.328125 40.800781 C 208.128906 40.835938 207.953125 40.960938 207.800781 41.144531 L 184.84375 49.703125 C 173.039062 56.082031 174.792969 41.683594 174.792969 41.683594 C 173.011719 42.902344 171.371094 43.382812 169.921875 43.414062 C 170.625 42.34375 174.226562 36.832031 175.710938 35.007812 C 181.105469 28.375 177.617188 21.859375 173.585938 20.785156 C 169.558594 19.710938 166.738281 25.09375 166.363281 30.417969 C 165.839844 37.679688 168.964844 42.445312 169.664062 43.414062 C 165.421875 43.355469 162.824219 39.53125 162.824219 39.53125 C 162.351562 47.167969 154.570312 46.589844 154.570312 46.589844 C 155.707031 47.820312 156.214844 49.300781 156.378906 50.777344 C 151.863281 50.390625 149.070312 43.070312 149.070312 43.070312 C 146.757812 35.933594 144.230469 34.484375 141.742188 34.972656 C 134.503906 36.386719 134.988281 49.820312 136.140625 49.820312 C 137.304688 49.820312 141.257812 47.410156 147.238281 52.234375 C 151.410156 55.597656 154.785156 53.535156 156.441406 51.976562 C 156.417969 55.015625 155.164062 57.714844 155.164062 57.714844 C 156.464844 57.753906 157.699219 58.09375 158.695312 58.742188 C 152.066406 63.253906 146.757812 60.097656 143.71875 57.835938 C 138.628906 54.050781 135.832031 54.535156 135.171875 56.589844 C 132.265625 65.667969 135.910156 70.921875 139.445312 68.875 C 149.023438 63.324219 159.257812 62.9375 161.019531 62.914062 C 161.082031 64.105469 160.851562 65.503906 160.210938 67.109375 C 146.785156 69.300781 140.617188 70.894531 140.269531 76.863281 C 139.328125 92.910156 154.753906 95.125 154.753906 95.125 C 152.507812 82.550781 162.222656 68.539062 163.503906 66.75 C 164.859375 66.480469 166.382812 66.492188 167.742188 67.242188 C 169.472656 68.195312 170.261719 69.609375 170.605469 70.867188 C 160.53125 81.925781 158.949219 94.703125 162.066406 98.875 C 166.929688 105.386719 186.425781 89.335938 178.507812 86.480469 C 172.84375 84.441406 171.558594 76.980469 171.285156 72.902344 C 181.933594 57.238281 205.371094 49.570312 208.695312 48.542969 C 208.898438 48.730469 209.121094 48.820312 209.355469 48.777344 C 210.269531 48.617188 211.058594 46.601562 210.675781 44.433594 " fill-opacity="1" fill-rule="nonzero"/><path fill="#d4797f" d="M 159.167969 108 C 157.957031 108 156.804688 107.945312 155.75 107.84375 C 139.304688 106.199219 127.597656 85.246094 127.605469 61.351562 C 127.605469 58.953125 127.722656 56.523438 127.96875 54.078125 C 130.640625 27.316406 146.359375 8.96875 164.53125 8.253906 C 164.871094 8.242188 165.203125 8.234375 165.535156 8.234375 C 173.664062 8.234375 181.328125 12.070312 185.984375 17.90625 C 184.0625 17.144531 182.085938 16.535156 180.039062 16.160156 C 178.429688 15.871094 176.792969 15.734375 175.144531 15.734375 C 170.570312 15.734375 165.90625 16.804688 161.625 18.722656 C 160.125 18.160156 158.292969 17.828125 156.367188 17.828125 C 152.367188 17.828125 147.96875 19.25 145.339844 22.957031 C 143.667969 25.304688 144.648438 28.457031 146.765625 31.664062 C 146.332031 32.402344 145.933594 33.152344 145.5625 33.914062 C 144.292969 32.875 143.007812 32.496094 141.792969 32.496094 C 141.371094 32.496094 140.957031 32.546875 140.554688 32.621094 C 131.53125 34.386719 132.265625 51.8125 133.707031 51.8125 C 134.503906 51.8125 136.3125 50.703125 139.023438 50.703125 C 139.871094 50.703125 140.804688 50.808594 141.820312 51.097656 C 141.800781 52.21875 141.824219 53.34375 141.871094 54.46875 C 139.832031 53.304688 138.058594 52.835938 136.613281 52.835938 C 134.441406 52.835938 133.019531 53.898438 132.59375 55.242188 C 129.507812 64.875 132.644531 71.472656 136.355469 71.472656 C 136.941406 71.472656 137.539062 71.308594 138.128906 70.964844 C 139.984375 69.890625 141.851562 68.964844 143.691406 68.160156 C 143.753906 68.421875 143.8125 68.683594 143.875 68.945312 C 140.050781 70.4375 138.066406 72.503906 137.863281 75.953125 C 136.734375 95.183594 156.984375 98.4375 156.984375 98.4375 C 156.804688 95.640625 156.953125 92.828125 157.332031 90.085938 C 157.761719 90.339844 158.191406 90.582031 158.628906 90.816406 C 158.082031 95.617188 158.871094 99.527344 160.445312 101.632812 C 161.417969 102.933594 162.867188 103.488281 164.578125 103.488281 C 168.933594 103.488281 174.964844 99.878906 179.03125 95.847656 C 182.300781 95.476562 185.351562 94.402344 188.113281 92.796875 C 185.269531 103.847656 169.734375 108 159.167969 108 " fill-opacity="1" fill-rule="nonzero"/><path fill="#2b3e76" d="M 146.765625 31.664062 C 144.648438 28.457031 143.667969 25.304688 145.339844 22.957031 C 147.96875 19.25 152.367188 17.828125 156.367188 17.828125 C 158.292969 17.828125 160.125 18.160156 161.625 18.722656 C 160.972656 19.011719 160.328125 19.324219 159.691406 19.65625 C 158.625 19.386719 157.4375 19.238281 156.207031 19.238281 C 152.609375 19.238281 148.652344 20.515625 146.285156 23.847656 C 144.898438 25.800781 145.546875 28.367188 147.15625 31.023438 C 147.023438 31.238281 146.894531 31.449219 146.765625 31.664062 " fill-opacity="1" fill-rule="nonzero"/><path fill="#c59a68" d="M 147.15625 31.023438 C 145.546875 28.367188 144.898438 25.800781 146.285156 23.847656 C 148.652344 20.515625 152.609375 19.238281 156.207031 19.238281 C 157.4375 19.238281 158.625 19.386719 159.691406 19.65625 C 159.019531 20.003906 158.363281 20.375 157.722656 20.761719 C 157.242188 20.695312 156.746094 20.660156 156.238281 20.660156 C 153.324219 20.660156 150.015625 21.828125 147.890625 24.828125 C 146.894531 26.222656 147.078125 27.984375 147.921875 29.859375 C 147.65625 30.242188 147.402344 30.632812 147.15625 31.023438 " fill-opacity="1" fill-rule="nonzero"/><path fill="#2b3e76" d="M 133.707031 51.8125 C 132.265625 51.8125 131.53125 34.386719 140.554688 32.621094 C 140.957031 32.546875 141.371094 32.496094 141.792969 32.496094 C 143.007812 32.496094 144.292969 32.875 145.5625 33.914062 C 145.433594 34.179688 145.308594 34.441406 145.1875 34.707031 C 144.171875 33.910156 143.144531 33.609375 142.152344 33.609375 C 141.800781 33.609375 141.449219 33.648438 141.105469 33.714844 C 132.917969 35.316406 133.507812 50.863281 134.816406 50.863281 C 135.511719 50.863281 137.074219 50.007812 139.398438 50.007812 C 140.136719 50.007812 140.949219 50.09375 141.835938 50.320312 C 141.828125 50.578125 141.824219 50.839844 141.820312 51.097656 C 140.804688 50.808594 139.871094 50.703125 139.023438 50.703125 C 136.3125 50.703125 134.503906 51.8125 133.707031 51.8125 " fill-opacity="1" fill-rule="nonzero"/><path fill="#c59a68" d="M 134.816406 50.863281 C 133.507812 50.863281 132.917969 35.316406 141.105469 33.714844 C 141.449219 33.648438 141.800781 33.609375 142.152344 33.609375 C 143.144531 33.609375 144.171875 33.910156 145.1875 34.707031 C 145.054688 35 144.921875 35.300781 144.796875 35.605469 C 144.066406 35.09375 143.324219 34.882812 142.589844 34.882812 C 142.304688 34.882812 142.023438 34.914062 141.742188 34.972656 C 134.503906 36.386719 134.988281 49.820312 136.140625 49.820312 C 136.722656 49.820312 138.003906 49.21875 139.882812 49.21875 C 140.488281 49.21875 141.148438 49.28125 141.871094 49.441406 C 141.859375 49.734375 141.847656 50.027344 141.835938 50.320312 C 140.949219 50.09375 140.136719 50.007812 139.398438 50.007812 C 137.074219 50.007812 135.511719 50.863281 134.816406 50.863281 " fill-opacity="1" fill-rule="nonzero"/><path fill="#2b3e76" d="M 136.355469 71.472656 C 132.644531 71.472656 129.507812 64.875 132.59375 55.242188 C 133.019531 53.898438 134.441406 52.835938 136.613281 52.835938 C 138.058594 52.835938 139.832031 53.304688 141.871094 54.46875 C 141.886719 54.753906 141.898438 55.035156 141.917969 55.324219 C 140.109375 54.421875 138.53125 54.054688 137.242188 54.054688 C 135.1875 54.054688 133.847656 54.976562 133.441406 56.148438 C 130.523438 64.523438 133.492188 70.257812 136.996094 70.257812 C 137.550781 70.257812 138.117188 70.113281 138.675781 69.816406 C 140.296875 68.949219 141.933594 68.191406 143.550781 67.527344 C 143.59375 67.738281 143.640625 67.949219 143.691406 68.160156 C 141.851562 68.964844 139.984375 69.890625 138.128906 70.964844 C 137.539062 71.308594 136.941406 71.472656 136.355469 71.472656 " fill-opacity="1" fill-rule="nonzero"/><path fill="#c59a68" d="M 136.996094 70.257812 C 133.492188 70.257812 130.523438 64.523438 133.441406 56.148438 C 133.847656 54.976562 135.1875 54.054688 137.242188 54.054688 C 138.53125 54.054688 140.109375 54.421875 141.917969 55.324219 C 141.921875 55.441406 141.929688 55.554688 141.9375 55.671875 C 141.960938 56 141.980469 56.335938 142.007812 56.667969 C 140.121094 55.5 138.625 55.011719 137.511719 55.011719 C 136.253906 55.011719 135.480469 55.632812 135.171875 56.589844 C 132.6875 64.351562 134.992188 69.316406 137.917969 69.316406 C 138.414062 69.316406 138.933594 69.171875 139.445312 68.875 C 140.761719 68.109375 142.089844 67.445312 143.40625 66.867188 C 143.453125 67.085938 143.5 67.308594 143.550781 67.527344 C 141.933594 68.191406 140.296875 68.949219 138.675781 69.816406 C 138.117188 70.113281 137.550781 70.257812 136.996094 70.257812 " fill-opacity="1" fill-rule="nonzero"/><path fill="#2b3e76" d="M 156.984375 98.4375 C 156.984375 98.4375 136.734375 95.183594 137.863281 75.953125 C 138.066406 72.503906 140.050781 70.4375 143.875 68.945312 C 143.957031 69.261719 144.035156 69.578125 144.117188 69.894531 C 140.847656 71.335938 139.179688 73.289062 139 76.390625 C 137.957031 94.132812 156.070312 97.167969 156.070312 97.167969 C 155.46875 94.683594 155.457031 91.941406 155.835938 89.136719 C 156.320312 89.46875 156.824219 89.785156 157.332031 90.085938 C 156.953125 92.828125 156.804688 95.640625 156.984375 98.4375 " fill-opacity="1" fill-rule="nonzero"/><path fill="#c59a68" d="M 156.070312 97.167969 C 156.070312 97.167969 137.957031 94.132812 139 76.390625 C 139.179688 73.289062 140.847656 71.335938 144.117188 69.894531 C 144.21875 70.261719 144.316406 70.636719 144.421875 71 C 141.765625 72.371094 140.429688 74.171875 140.269531 76.863281 C 139.328125 92.910156 154.753906 95.125 154.753906 95.125 C 154.347656 92.847656 154.328125 90.527344 154.585938 88.238281 C 154.988281 88.550781 155.40625 88.851562 155.835938 89.136719 C 155.457031 91.941406 155.46875 94.683594 156.070312 97.167969 " fill-opacity="1" fill-rule="nonzero"/><path fill="#2b3e76" d="M 164.578125 103.488281 C 162.867188 103.488281 161.417969 102.933594 160.445312 101.632812 C 158.871094 99.527344 158.082031 95.617188 158.628906 90.816406 C 158.984375 91.003906 159.339844 91.1875 159.695312 91.367188 C 159.289062 95.3125 159.871094 98.5 161.210938 100.292969 C 162.140625 101.53125 163.523438 102.054688 165.15625 102.054688 C 168.917969 102.054688 173.972656 99.253906 177.59375 95.964844 C 178.074219 95.941406 178.558594 95.902344 179.03125 95.847656 C 174.964844 99.878906 168.933594 103.488281 164.578125 103.488281 " fill-opacity="1" fill-rule="nonzero"/><path fill="#c59a68" d="M 165.15625 102.054688 C 163.523438 102.054688 162.140625 101.53125 161.210938 100.292969 C 159.871094 98.5 159.289062 95.3125 159.695312 91.367188 C 160.023438 91.523438 160.351562 91.683594 160.679688 91.835938 C 160.464844 94.933594 160.980469 97.425781 162.066406 98.875 C 162.871094 99.957031 164.089844 100.417969 165.511719 100.417969 C 168.460938 100.417969 172.320312 98.445312 175.367188 95.964844 C 175.605469 95.972656 175.847656 95.980469 176.085938 95.984375 C 176.21875 95.988281 176.351562 95.988281 176.488281 95.988281 C 176.859375 95.988281 177.226562 95.980469 177.59375 95.964844 C 173.972656 99.253906 168.917969 102.054688 165.15625 102.054688 " fill-opacity="1" fill-rule="nonzero"/><path fill="#691019" d="M 147.921875 29.859375 C 147.078125 27.984375 146.894531 26.222656 147.890625 24.828125 C 150.015625 21.828125 153.324219 20.660156 156.238281 20.660156 C 156.746094 20.660156 157.242188 20.695312 157.722656 20.761719 C 154.328125 22.8125 151.3125 25.417969 148.96875 28.429688 C 148.601562 28.898438 148.253906 29.375 147.921875 29.859375 " fill-opacity="1" fill-rule="nonzero"/><path fill="#691019" d="M 165.511719 100.417969 C 164.089844 100.417969 162.871094 99.957031 162.066406 98.875 C 160.980469 97.425781 160.464844 94.933594 160.679688 91.835938 C 161.078125 92.023438 161.476562 92.207031 161.878906 92.382812 C 166.140625 94.253906 170.6875 95.742188 175.367188 95.964844 C 172.320312 98.445312 168.460938 100.417969 165.511719 100.417969 M 154.753906 95.125 C 154.753906 95.125 139.328125 92.910156 140.269531 76.863281 C 140.429688 74.171875 141.765625 72.371094 144.421875 71 C 145.855469 76.046875 148.003906 80.839844 151.167969 84.886719 C 152.160156 86.15625 153.320312 87.261719 154.585938 88.238281 C 154.328125 90.527344 154.347656 92.847656 154.753906 95.125 M 137.917969 69.316406 C 134.992188 69.316406 132.6875 64.351562 135.171875 56.589844 C 135.480469 55.632812 136.253906 55.011719 137.511719 55.011719 C 138.625 55.011719 140.121094 55.5 142.007812 56.667969 C 142.261719 60.019531 142.695312 63.46875 143.40625 66.867188 C 142.089844 67.445312 140.761719 68.109375 139.445312 68.875 C 138.933594 69.171875 138.414062 69.316406 137.917969 69.316406 M 136.140625 49.820312 C 134.988281 49.820312 134.503906 36.386719 141.742188 34.972656 C 142.023438 34.914062 142.304688 34.882812 142.589844 34.882812 C 143.324219 34.882812 144.066406 35.09375 144.796875 35.605469 C 142.972656 39.960938 142.089844 44.671875 141.871094 49.441406 C 141.148438 49.28125 140.488281 49.21875 139.882812 49.21875 C 138.003906 49.21875 136.722656 49.820312 136.140625 49.820312 " fill-opacity="1" fill-rule="nonzero"/></svg>