<svg xmlns="http://www.w3.org/2000/svg" xmlns:xlink="http://www.w3.org/1999/xlink" width="500" zoomAndPan="magnify" viewBox="0 0 375 374.999991" height="500" preserveAspectRatio="xMidYMid meet" version="1.0"><defs><clipPath id="2d69532218"><path d="M 72.421875 0 L 174 0 L 174 164 L 72.421875 164 Z M 72.421875 0 " clip-rule="nonzero"/></clipPath><clipPath id="64eab11e5d"><path d="M 72.421875 0 L 174 0 L 174 164 L 72.421875 164 Z M 72.421875 0 " clip-rule="nonzero"/></clipPath></defs><g clip-path="url(#2d69532218)"><path fill="#8da3ad" d="M 160.5 145.953125 L 169.835938 145.953125 C 170.875 145.953125 171.71875 145.109375 171.71875 144.070312 L 171.71875 1.863281 C 171.71875 0.828125 170.875 -0.0195312 169.835938 -0.0195312 L 74.433594 -0.0195312 C 73.394531 -0.0195312 72.550781 0.828125 72.550781 1.863281 L 72.550781 144.070312 C 72.550781 145.109375 73.394531 145.953125 74.433594 145.953125 L 135.175781 145.953125 C 140.355469 151.84375 151.117188 164.507812 173.898438 162.992188 C 173.898438 162.992188 168.171875 160.800781 160.5 145.953125 " fill-opacity="1" fill-rule="nonzero"/></g><path fill="#9db5c1" d="M 173.898438 162.992188 C 173.847656 162.972656 169.511719 161.269531 163.351562 151.070312 C 163.351562 151.070312 163.351562 151.070312 163.355469 151.074219 C 169.511719 161.265625 173.847656 162.972656 173.898438 162.992188 " fill-opacity="1" fill-rule="nonzero"/><g clip-path="url(#64eab11e5d)"><path fill="#6e8b9a" d="M 170.203125 163.121094 C 166.730469 163.121094 163.5625 162.78125 160.671875 162.183594 C 162.628906 158.332031 164.492188 153.160156 162.136719 150.546875 C 162.535156 150.726562 162.941406 150.902344 163.351562 151.070312 C 169.511719 161.269531 173.847656 162.972656 173.898438 162.992188 C 172.628906 163.078125 171.398438 163.121094 170.203125 163.121094 M 155.246094 160.6875 C 144.703125 156.980469 138.667969 149.925781 135.175781 145.953125 L 74.433594 145.953125 C 73.394531 145.953125 72.550781 145.109375 72.550781 144.070312 L 72.550781 1.863281 C 72.550781 0.828125 73.394531 -0.0195312 74.433594 -0.0195312 L 82.59375 -0.0195312 L 82.59375 135.195312 C 82.59375 136.234375 83.4375 137.078125 84.476562 137.078125 L 145.21875 137.078125 C 148.113281 140.375 152.761719 145.785156 160.273438 149.652344 C 160.140625 149.625 160.007812 149.613281 159.878906 149.613281 C 159.421875 149.613281 159.023438 149.785156 158.84375 150.320312 C 158.582031 151.105469 157.476562 154.390625 156.355469 157.582031 C 155.976562 158.664062 155.59375 159.730469 155.246094 160.6875 " fill-opacity="1" fill-rule="nonzero"/></g><path fill="#181316" d="M 169.792969 213.09375 C 169.792969 213.09375 169.546875 213.109375 169.09375 213.140625 C 168.664062 213.15625 168.035156 213.179688 167.238281 213.210938 C 166.445312 213.230469 165.492188 213.238281 164.398438 213.230469 C 163.304688 213.214844 162.082031 213.199219 160.742188 213.125 C 159.402344 213.050781 157.957031 212.964844 156.421875 212.765625 C 154.890625 212.605469 153.273438 212.339844 151.613281 211.964844 C 149.949219 211.625 148.234375 211.070312 146.539062 210.371094 C 144.839844 209.671875 143.175781 208.679688 141.707031 207.402344 C 140.226562 206.148438 139.078125 204.449219 138.355469 202.699219 C 137.570312 200.941406 137.429688 199.085938 137.347656 197.382812 C 137.398438 196.535156 137.394531 195.6875 137.511719 194.894531 C 137.640625 194.101562 137.757812 193.324219 137.910156 192.582031 C 138.09375 191.851562 138.285156 191.148438 138.464844 190.460938 C 138.628906 189.777344 138.90625 189.15625 139.109375 188.539062 C 139.5 187.300781 139.984375 186.226562 140.394531 185.265625 C 140.78125 184.292969 141.1875 183.476562 141.527344 182.816406 C 142.183594 181.476562 142.554688 180.707031 142.554688 180.707031 L 144.183594 181.535156 C 144.183594 181.535156 143.835938 182.289062 143.230469 183.601562 C 142.925781 184.261719 142.566406 185.066406 142.234375 186.011719 C 141.882812 186.953125 141.457031 188.007812 141.152344 189.195312 C 141 189.785156 140.777344 190.390625 140.664062 191.035156 C 140.542969 191.675781 140.414062 192.335938 140.285156 193.019531 C 140.195312 193.699219 140.160156 194.402344 140.097656 195.113281 C 140.054688 195.820312 140.128906 196.535156 140.136719 197.257812 C 140.320312 198.671875 140.605469 200.117188 141.316406 201.339844 C 141.980469 202.566406 142.882812 203.667969 144.089844 204.441406 C 145.273438 205.238281 146.605469 205.851562 148.027344 206.246094 C 149.464844 206.617188 150.921875 206.878906 152.382812 206.964844 C 153.835938 207.066406 155.257812 207.054688 156.617188 206.976562 C 157.972656 206.898438 159.261719 206.730469 160.4375 206.5625 C 161.621094 206.367188 162.699219 206.171875 163.648438 205.941406 C 164.59375 205.714844 165.410156 205.5 166.074219 205.3125 C 166.746094 205.125 167.25 204.953125 167.585938 204.835938 C 167.910156 204.714844 168.078125 204.652344 168.078125 204.652344 L 169.792969 213.09375 " fill-opacity="1" fill-rule="nonzero"/><path fill="#a5bdbc" d="M 152.65625 183.007812 C 152.253906 185.402344 149.988281 187.019531 147.589844 186.617188 L 139.21875 185.210938 C 136.824219 184.808594 135.207031 182.539062 135.609375 180.144531 C 136.011719 177.75 138.28125 176.132812 140.675781 176.539062 L 149.050781 177.945312 C 151.449219 178.347656 153.058594 180.613281 152.65625 183.007812 " fill-opacity="1" fill-rule="nonzero"/><path fill="#bbb3a1" d="M 152.355469 184.023438 C 149.15625 183.9375 145.484375 181.804688 145.484375 181.804688 C 144.960938 181.828125 144.460938 181.839844 143.984375 181.839844 C 138.941406 181.839844 136.707031 180.605469 135.730469 179.625 C 135.917969 178.996094 136.238281 178.433594 136.652344 177.964844 C 136.820312 178.148438 137.003906 178.300781 137.203125 178.410156 C 137.203125 178.410156 140.148438 179.625 142.914062 179.625 C 143.96875 179.625 145 179.453125 145.824219 178.960938 C 145.824219 178.960938 146.65625 180.847656 150.636719 180.847656 C 150.921875 180.847656 151.214844 180.839844 151.53125 180.816406 C 151.597656 180.8125 151.902344 180.695312 152.335938 180.484375 C 152.679688 181.246094 152.808594 182.121094 152.65625 183.007812 C 152.597656 183.371094 152.492188 183.707031 152.355469 184.023438 " fill-opacity="1" fill-rule="nonzero"/><path fill="#a5bdbc" d="M 153.75 164.324219 C 153.75 164.324219 152.867188 162.996094 152.21875 162.75 C 151.566406 162.5 148.324219 161.613281 147.210938 163.292969 C 147.210938 163.292969 146.929688 162.484375 145.964844 162.046875 C 145 161.605469 141.589844 161.796875 141.117188 163.375 C 141.117188 163.375 140.625 162.597656 139.582031 162.632812 C 138.539062 162.664062 136.273438 164.21875 135.640625 167.570312 C 135.003906 170.917969 134.988281 177.207031 137.203125 178.410156 C 137.203125 178.410156 142.828125 180.734375 145.824219 178.960938 C 145.824219 178.960938 146.777344 181.121094 151.53125 180.816406 C 151.898438 180.792969 159.730469 177.285156 155.960938 172.574219 C 155.960938 172.574219 157.503906 168.597656 157.839844 166.992188 C 157.839844 166.992188 166.457031 154.597656 161.914062 150.320312 C 161.914062 150.320312 159.378906 148.722656 158.84375 150.320312 C 158.308594 151.925781 154.203125 164.097656 153.75 164.324219 " fill-opacity="1" fill-rule="nonzero"/><path fill="#dfcab7" d="M 153.84375 164.203125 C 154.078125 163.804688 154.609375 162.433594 155.246094 160.6875 C 154.613281 162.429688 154.082031 163.800781 153.84375 164.203125 " fill-opacity="1" fill-rule="nonzero"/><path fill="#a4a49b" d="M 155.246094 160.6875 C 155.59375 159.730469 155.976562 158.664062 156.355469 157.582031 C 155.976562 158.664062 155.59375 159.730469 155.246094 160.6875 " fill-opacity="1" fill-rule="nonzero"/><path fill="#bbb3a1" d="M 154.136719 171.953125 C 153.820312 171.953125 152.835938 171.929688 152.234375 171.683594 C 152.234375 171.683594 155.675781 168.792969 153.84375 164.203125 C 154.082031 163.800781 154.613281 162.429688 155.246094 160.6875 C 155.59375 159.730469 155.976562 158.664062 156.355469 157.582031 C 157.476562 154.390625 158.582031 151.105469 158.84375 150.320312 C 159.023438 149.789062 159.421875 149.617188 159.875 149.613281 C 160.347656 149.992188 160.777344 150.546875 160.914062 151.367188 C 161.269531 153.507812 158.535156 161.121094 156.253906 164.546875 C 156.253906 164.546875 155.125 166.449219 155.125 167.546875 C 155.125 168.640625 154.441406 171.945312 154.242188 171.949219 C 154.242188 171.949219 154.207031 171.953125 154.136719 171.953125 " fill-opacity="1" fill-rule="nonzero"/><path fill="#ffffff" d="M 153.628906 164.152344 C 153.371094 163.785156 152.722656 162.941406 152.21875 162.75 C 151.566406 162.5 148.324219 161.613281 147.210938 163.292969 C 147.210938 163.292969 146.929688 162.484375 145.964844 162.046875 C 145 161.605469 141.589844 161.796875 141.117188 163.375 C 141.117188 163.375 140.625 162.597656 139.582031 162.632812 C 138.925781 162.652344 137.777344 163.28125 136.863281 164.582031 C 138.433594 164.164062 140.28125 163.972656 141.757812 164.714844 C 141.757812 164.714844 145.097656 162.632812 147.617188 164.214844 C 147.617188 164.214844 151.816406 163.238281 153.828125 165.230469 C 153.828125 165.230469 153.792969 164.789062 153.628906 164.152344 " fill-opacity="1" fill-rule="nonzero"/><path fill="#bbb3a1" d="M 149.59375 178.429688 C 147.75 178.429688 145.957031 177.890625 145.957031 177.890625 C 145.59375 176.875 140.714844 176.855469 138.113281 175.464844 C 135.511719 174.070312 136.476562 171.949219 136.476562 171.949219 C 137.355469 173.691406 138.300781 174.226562 139.128906 174.226562 C 140.429688 174.226562 141.433594 172.914062 141.433594 172.914062 C 141.636719 172.695312 141.804688 172.632812 141.929688 172.632812 C 142.085938 172.632812 142.175781 172.71875 142.175781 172.71875 C 142.945312 173.132812 143.707031 173.226562 144.25 173.226562 C 144.738281 173.226562 145.050781 173.152344 145.050781 173.152344 C 144.746094 174.480469 145.457031 175.308594 145.457031 175.308594 C 146.898438 176.890625 148.609375 177.335938 150.066406 177.332031 C 151.910156 177.332031 153.347656 176.632812 153.347656 176.632812 C 152.75 178.046875 151.152344 178.429688 149.59375 178.429688 " fill-opacity="1" fill-rule="nonzero"/><path fill="#ffffff" d="M 155.960938 172.574219 L 156 172.535156 C 155.320312 172.21875 154.246094 171.851562 152.824219 171.726562 C 152.824219 171.726562 149.792969 172.4375 148.378906 171.371094 C 148.378906 171.371094 147.601562 170.949219 146.910156 171.101562 C 146.910156 171.101562 145.007812 171.453125 145.09375 173.527344 C 145.09375 173.527344 147.6875 175.503906 152.117188 174.039062 C 156.546875 172.570312 156.589844 174.734375 156.90625 175.867188 C 157.125 174.871094 156.910156 173.757812 155.960938 172.574219 " fill-opacity="1" fill-rule="nonzero"/><path fill="#32151a" d="M 156.335938 172.480469 C 156.320312 172.476562 154.011719 171.472656 151.9375 171.46875 C 151.617188 171.46875 151.308594 171.492188 151.011719 171.546875 L 151.046875 171.746094 L 151.054688 171.546875 C 151.054688 171.546875 150.546875 171.527344 149.890625 171.449219 C 149.226562 171.371094 148.410156 171.234375 147.828125 171.003906 C 147.605469 170.914062 147.371094 170.875 147.148438 170.875 C 146.558594 170.875 146 171.140625 145.585938 171.53125 C 145.171875 171.925781 144.890625 172.453125 144.886719 173.015625 L 144.964844 173.015625 L 144.886719 173.015625 L 144.964844 173.015625 L 144.886719 173.015625 L 144.898438 173.089844 L 145.09375 173.03125 L 144.890625 173.03125 L 144.886719 173.078125 C 144.886719 173.183594 144.886719 173.304688 144.886719 173.441406 C 144.886719 174.132812 144.941406 175.160156 145.695312 176.027344 C 146.441406 176.894531 147.855469 177.550781 150.441406 177.589844 L 150.445312 177.386719 L 150.429688 177.585938 C 150.433594 177.585938 150.5625 177.601562 150.777344 177.601562 C 151.445312 177.597656 152.949219 177.480469 153.953125 176.355469 L 153.644531 176.085938 C 152.789062 177.0625 151.398438 177.195312 150.777344 177.191406 C 150.578125 177.191406 150.464844 177.179688 150.464844 177.179688 L 150.449219 177.179688 C 147.914062 177.136719 146.648438 176.507812 146 175.757812 C 145.355469 175.015625 145.292969 174.113281 145.292969 173.441406 C 145.292969 173.308594 145.296875 173.191406 145.296875 173.078125 L 145.296875 173 L 145.292969 172.96875 L 145.117188 173.023438 L 145.296875 173.015625 L 145.292969 172.96875 L 145.117188 173.023438 L 145.296875 173.015625 L 145.289062 173.015625 L 145.296875 173.015625 L 145.289062 173.015625 L 145.296875 173.015625 C 145.296875 172.597656 145.519531 172.160156 145.867188 171.828125 C 146.21875 171.5 146.6875 171.28125 147.148438 171.28125 C 147.328125 171.28125 147.503906 171.316406 147.679688 171.382812 C 148.96875 171.886719 151.03125 171.949219 151.042969 171.953125 L 151.0625 171.953125 L 151.085938 171.949219 C 151.355469 171.898438 151.640625 171.875 151.9375 171.875 C 152.90625 171.875 153.972656 172.121094 154.789062 172.367188 C 155.199219 172.488281 155.546875 172.613281 155.789062 172.703125 C 156.035156 172.792969 156.171875 172.855469 156.171875 172.855469 L 156.335938 172.480469 " fill-opacity="1" fill-rule="nonzero"/><path fill="#32151a" d="M 145.691406 179.546875 C 145.691406 179.539062 146.5 177.964844 146.507812 176.667969 C 146.507812 176.53125 146.496094 176.394531 146.476562 176.261719 L 146.074219 176.328125 C 146.089844 176.433594 146.097656 176.550781 146.097656 176.667969 C 146.101562 177.230469 145.90625 177.917969 145.714844 178.449219 C 145.617188 178.714844 145.515625 178.949219 145.441406 179.109375 C 145.371094 179.273438 145.320312 179.367188 145.320312 179.367188 L 145.691406 179.550781 " fill-opacity="1" fill-rule="nonzero"/><path fill="#32151a" d="M 147.089844 162.871094 C 147.089844 162.875 147.355469 163.960938 147.628906 165.191406 C 147.894531 166.414062 148.167969 167.796875 148.164062 168.296875 L 148.160156 168.382812 L 148.367188 168.394531 L 148.160156 168.375 C 148.121094 168.800781 148.011719 169.378906 147.84375 169.894531 C 147.679688 170.40625 147.429688 170.851562 147.207031 170.996094 L 147.4375 171.335938 C 147.8125 171.074219 148.042969 170.574219 148.230469 170.023438 C 148.410156 169.472656 148.523438 168.871094 148.566406 168.414062 L 148.566406 168.402344 L 148.570312 168.296875 C 148.570312 167.699219 148.300781 166.347656 148.027344 165.105469 C 147.757812 163.871094 147.484375 162.773438 147.484375 162.773438 L 147.089844 162.871094 " fill-opacity="1" fill-rule="nonzero"/><path fill="#32151a" d="M 140.921875 163.050781 C 140.921875 163.054688 141.390625 164.28125 141.871094 165.625 C 142.113281 166.300781 142.355469 167 142.546875 167.585938 C 142.738281 168.171875 142.878906 168.65625 142.902344 168.851562 L 143.105469 168.824219 L 142.902344 168.847656 L 142.90625 168.933594 C 142.910156 169.410156 142.542969 170.742188 141.878906 171.890625 C 141.546875 172.46875 141.144531 173.007812 140.6875 173.394531 C 140.230469 173.785156 139.730469 174.019531 139.191406 174.019531 L 138.972656 174.007812 C 138.15625 173.910156 137.570312 173.578125 137.171875 173.050781 C 136.777344 172.527344 136.5625 171.789062 136.5625 170.878906 C 136.5625 169.894531 136.8125 168.714844 137.320312 167.410156 L 136.941406 167.261719 C 136.417969 168.601562 136.15625 169.824219 136.15625 170.878906 C 136.15625 171.847656 136.382812 172.679688 136.847656 173.296875 C 137.3125 173.917969 138.023438 174.308594 138.925781 174.414062 L 139.191406 174.425781 C 139.855469 174.425781 140.449219 174.140625 140.953125 173.703125 C 141.710938 173.058594 142.292969 172.089844 142.695312 171.175781 C 143.09375 170.253906 143.3125 169.40625 143.3125 168.933594 L 143.308594 168.796875 L 143.304688 168.796875 C 143.269531 168.53125 143.132812 168.058594 142.9375 167.460938 C 142.355469 165.679688 141.304688 162.910156 141.304688 162.910156 L 140.921875 163.050781 " fill-opacity="1" fill-rule="nonzero"/><path fill="#32151a" d="M 145.039062 172.832031 L 144.96875 172.847656 C 144.828125 172.882812 144.476562 172.949219 144.027344 172.949219 C 143.402344 172.949219 142.597656 172.820312 141.878906 172.300781 L 141.640625 172.636719 C 142.449219 173.214844 143.347656 173.359375 144.027344 173.359375 C 144.683594 173.359375 145.140625 173.226562 145.152344 173.222656 L 145.039062 172.832031 " fill-opacity="1" fill-rule="nonzero"/><path fill="#ffffff" d="M 151.011719 184.546875 C 151.011719 184.546875 150.109375 185.851562 148.46875 185.886719 C 146.835938 185.917969 139.636719 184.609375 139.371094 184.355469 C 139.371094 184.355469 142.894531 184.5625 144.972656 183.726562 C 147.054688 182.886719 151.011719 184.546875 151.011719 184.546875 " fill-opacity="1" fill-rule="nonzero"/><path fill="#ef2c47" d="M 239.359375 184.402344 C 239.359375 184.402344 250.429688 191.34375 252.820312 191.34375 C 255.207031 191.34375 279.175781 187.289062 286.335938 189.242188 C 286.335938 189.242188 290.027344 195.96875 286.335938 201.394531 C 286.335938 201.394531 261.28125 198.9375 254.339844 200.023438 C 247.390625 201.105469 237.628906 204.019531 237.628906 204.019531 L 237.835938 200.890625 C 237.835938 200.890625 255.640625 197.945312 250.648438 194.207031 L 239.53125 188.40625 L 238.523438 187.878906 L 239.359375 184.402344 " fill-opacity="1" fill-rule="nonzero"/><path fill="#b42835" d="M 286.335938 201.394531 C 287.789062 199.261719 288.089844 196.9375 287.933594 194.890625 C 275.367188 194.742188 255.890625 195.515625 255.890625 195.515625 L 243.476562 188.617188 C 243.476562 188.617188 243.121094 189.125 242.535156 189.976562 L 250.648438 194.207031 C 255.640625 197.945312 237.835938 200.890625 237.835938 200.890625 L 237.628906 204.019531 C 237.628906 204.019531 247.390625 201.105469 254.339844 200.023438 C 261.28125 198.9375 286.335938 201.394531 286.335938 201.394531 " fill-opacity="1" fill-rule="nonzero"/><path fill="#e2be94" d="M 242.441406 203.617188 C 242.441406 203.617188 274.101562 204.464844 284.242188 221.84375 C 284.242188 221.84375 302.648438 244.292969 281.339844 332.503906 C 281.339844 332.503906 277.824219 336.644531 273.476562 332.503906 C 273.476562 332.503906 284.949219 246.925781 242.976562 224.035156 C 242.976562 224.035156 239.75 218.691406 242.441406 203.617188 " fill-opacity="1" fill-rule="nonzero"/><path fill="#cd9967" d="M 281.339844 332.503906 C 282.410156 328.070312 283.375 323.8125 284.253906 319.703125 C 282.136719 319.582031 280.167969 318.894531 278.867188 317.199219 C 278.867188 317.199219 289 239.4375 258.027344 217.695312 C 258.027344 217.695312 255.730469 211.402344 256.824219 205.566406 C 248.851562 203.796875 242.441406 203.617188 242.441406 203.617188 C 239.75 218.691406 242.976562 224.035156 242.976562 224.035156 C 284.949219 246.925781 273.476562 332.503906 273.476562 332.503906 C 277.824219 336.644531 281.339844 332.503906 281.339844 332.503906 " fill-opacity="1" fill-rule="nonzero"/><path fill="#3f859e" d="M 239.792969 205.445312 C 239.792969 205.445312 250.648438 214.777344 252.820312 214.777344 C 254.988281 214.777344 275.054688 207.933594 286.78125 212.273438 C 286.78125 212.273438 290.253906 221.390625 285.378906 225.507812 C 285.378906 225.507812 266.710938 219.988281 253.253906 221.289062 C 239.792969 222.589844 238.199219 225.96875 238.199219 225.96875 L 238.199219 222.808594 C 238.199219 222.808594 251.082031 218.25 247.390625 214.777344 C 244.582031 212.136719 240.894531 211.460938 239.292969 211.285156 C 238.789062 211.238281 239.792969 205.445312 239.792969 205.445312 " fill-opacity="1" fill-rule="nonzero"/><path fill="#36667a" d="M 253.253906 221.289062 C 266.710938 219.988281 285.378906 225.507812 285.378906 225.507812 C 287.832031 223.441406 288.167969 220.101562 287.898438 217.300781 C 276.089844 215.785156 254.082031 218.292969 254.082031 218.292969 C 250.316406 214.847656 239.445312 207.71875 239.441406 207.71875 C 239.210938 209.34375 239 211.261719 239.292969 211.285156 C 240.894531 211.460938 244.582031 212.136719 247.390625 214.777344 C 251.082031 218.25 238.199219 222.808594 238.199219 222.808594 L 238.199219 225.96875 C 238.199219 225.96875 239.792969 222.589844 253.253906 221.289062 " fill-opacity="1" fill-rule="nonzero"/><path fill="#992429" d="M 243.148438 193.699219 C 243.148438 193.699219 279.214844 145.992188 247.609375 128.855469 C 226.480469 117.402344 201.949219 126.128906 186.824219 148.808594 C 152.136719 200.832031 150.355469 318.355469 227.5 307.566406 C 227.5 307.566406 265.410156 299.40625 260.585938 252.535156 C 260.585938 252.535156 260.578125 237.996094 242.976562 224.035156 L 243.148438 193.699219 " fill-opacity="1" fill-rule="nonzero"/><path fill="#882024" d="M 245.238281 127.671875 C 244.808594 127.46875 244.375 127.277344 243.941406 127.089844 C 243.738281 127.003906 243.535156 126.917969 243.332031 126.832031 C 242.867188 126.648438 242.402344 126.464844 241.933594 126.296875 C 241.78125 126.242188 241.628906 126.179688 241.480469 126.125 C 240.867188 125.90625 240.25 125.707031 239.632812 125.519531 C 239.492188 125.480469 239.359375 125.441406 239.214844 125.402344 C 238.734375 125.265625 238.25 125.132812 237.765625 125.011719 C 237.558594 124.960938 237.351562 124.910156 237.144531 124.863281 C 236.707031 124.761719 236.269531 124.667969 235.832031 124.582031 C 235.632812 124.542969 235.433594 124.5 235.238281 124.464844 C 234.671875 124.363281 234.105469 124.273438 233.539062 124.195312 L 233.363281 124.167969 C 232.742188 124.085938 232.121094 124.019531 231.496094 123.96875 C 231.304688 123.953125 231.113281 123.941406 230.921875 123.929688 C 230.480469 123.898438 230.039062 123.875 229.597656 123.859375 C 229.378906 123.851562 229.167969 123.847656 228.949219 123.84375 C 228.496094 123.832031 228.039062 123.832031 227.585938 123.839844 C 227.410156 123.84375 227.234375 123.84375 227.058594 123.847656 C 226.441406 123.863281 225.820312 123.890625 225.207031 123.9375 C 225.070312 123.949219 224.9375 123.964844 224.804688 123.976562 C 224.316406 124.019531 223.824219 124.066406 223.335938 124.128906 C 223.121094 124.152344 222.910156 124.183594 222.695312 124.214844 C 222.269531 124.273438 221.847656 124.339844 221.429688 124.40625 C 221.214844 124.441406 221 124.476562 220.792969 124.519531 C 220.292969 124.613281 219.792969 124.714844 219.292969 124.828125 C 219.175781 124.851562 219.054688 124.875 218.9375 124.902344 C 218.335938 125.042969 217.738281 125.199219 217.136719 125.363281 C 216.941406 125.421875 216.75 125.480469 216.554688 125.539062 C 216.136719 125.664062 215.714844 125.792969 215.296875 125.925781 C 215.074219 126 214.851562 126.074219 214.632812 126.152344 C 214.222656 126.296875 213.808594 126.441406 213.398438 126.597656 C 213.203125 126.671875 213.007812 126.746094 212.808594 126.820312 C 212.226562 127.050781 211.644531 127.292969 211.066406 127.546875 C 210.933594 127.605469 210.804688 127.667969 210.675781 127.730469 C 210.214844 127.9375 209.757812 128.152344 209.300781 128.375 C 209.085938 128.484375 208.871094 128.59375 208.652344 128.703125 C 208.277344 128.898438 207.898438 129.097656 207.523438 129.300781 C 207.304688 129.417969 207.085938 129.539062 206.875 129.660156 C 206.453125 129.898438 206.03125 130.144531 205.613281 130.394531 C 205.460938 130.492188 205.304688 130.578125 205.152344 130.675781 C 204.601562 131.011719 204.054688 131.363281 203.511719 131.730469 C 203.328125 131.855469 203.140625 131.988281 202.953125 132.121094 C 202.578125 132.375 202.207031 132.636719 201.839844 132.90625 C 201.625 133.0625 201.410156 133.21875 201.203125 133.378906 C 200.847656 133.644531 200.492188 133.917969 200.140625 134.195312 C 199.945312 134.351562 199.75 134.503906 199.554688 134.660156 C 199.039062 135.082031 198.527344 135.507812 198.019531 135.949219 L 198.011719 135.957031 C 211.636719 131.550781 233.265625 127.976562 240.394531 146.210938 C 251.082031 173.550781 229.371094 186.351562 225.898438 190.148438 C 225.898438 190.148438 231.542969 216.515625 230.238281 226.496094 C 230.238281 226.496094 251.164062 299.371094 184.769531 295.636719 L 184.777344 295.644531 C 185.117188 295.96875 185.476562 296.304688 185.851562 296.65625 C 195.835938 305.621094 209.523438 310.082031 227.5 307.566406 C 227.5 307.566406 265.410156 299.40625 260.585938 252.535156 C 260.585938 252.535156 260.574219 239.660156 245.90625 226.507812 C 244.941406 225.695312 243.964844 224.875 242.976562 224.035156 L 243.148438 193.699219 C 243.148438 193.699219 279.214844 145.992188 247.609375 128.855469 C 247.007812 128.53125 246.402344 128.226562 245.796875 127.933594 C 245.613281 127.839844 245.425781 127.761719 245.238281 127.671875 " fill-opacity="1" fill-rule="nonzero"/><path fill="#731c21" d="M 242.976562 224.035156 L 243.148438 193.699219 C 243.148438 193.699219 273.710938 153.273438 253.90625 133.480469 C 253.78125 133.355469 253.648438 133.230469 253.519531 133.109375 C 253.363281 132.960938 253.203125 132.808594 253.039062 132.664062 C 252.746094 132.398438 252.4375 132.136719 252.128906 131.878906 L 252.054688 131.820312 C 251.6875 131.523438 251.3125 131.230469 250.917969 130.949219 C 254.644531 146.019531 257.792969 174.890625 234.582031 193.296875 C 234.582031 193.296875 241.953125 217.601562 237.835938 226.929688 C 237.835938 226.929688 275.464844 291.84375 204.976562 306.761719 C 211.582031 308.394531 219.070312 308.746094 227.5 307.566406 C 227.5 307.566406 265.410156 299.40625 260.585938 252.535156 C 260.585938 252.535156 260.578125 237.996094 242.976562 224.035156 " fill-opacity="1" fill-rule="nonzero"/><path fill="#ed5d76" d="M 208.828125 131.703125 C 208.828125 131.703125 188.207031 143.132812 182.457031 165.84375 C 182.457031 165.84375 181.621094 168.304688 183.5 168.738281 C 185.386719 169.171875 185.960938 166.710938 186.832031 164.539062 C 187.699219 162.371094 195.660156 145.734375 208.828125 134.597656 C 208.828125 134.597656 214.039062 128.953125 208.828125 131.703125 " fill-opacity="1" fill-rule="nonzero"/><path fill="#ffffff" d="M 192.617188 194.210938 C 192.617188 199.378906 188.425781 203.5625 183.257812 203.5625 C 178.085938 203.5625 173.898438 199.378906 173.898438 194.210938 C 173.898438 189.042969 178.085938 184.855469 183.257812 184.855469 C 188.425781 184.855469 192.617188 189.042969 192.617188 194.210938 " fill-opacity="1" fill-rule="nonzero"/><path fill="#a9dfe3" d="M 183.257812 188.398438 C 187.820312 188.398438 191.613281 191.664062 192.441406 195.984375 C 192.554688 195.410156 192.617188 194.816406 192.617188 194.210938 C 192.617188 189.042969 188.425781 184.855469 183.257812 184.855469 C 178.085938 184.855469 173.898438 189.042969 173.898438 194.210938 C 173.898438 194.816406 173.960938 195.410156 174.074219 195.984375 C 174.898438 191.664062 178.695312 188.398438 183.257812 188.398438 " fill-opacity="1" fill-rule="nonzero"/><path fill="#1f1617" d="M 173.898438 194.210938 C 173.898438 194.210938 173.882812 194.097656 173.851562 193.878906 C 173.835938 193.660156 173.742188 193.347656 173.761719 192.929688 C 173.765625 192.71875 173.765625 192.484375 173.765625 192.230469 C 173.785156 191.976562 173.828125 191.707031 173.863281 191.410156 C 173.964844 190.828125 174.128906 190.171875 174.414062 189.484375 C 174.710938 188.8125 175.085938 188.078125 175.636719 187.40625 C 176.152344 186.714844 176.820312 186.070312 177.59375 185.511719 C 178.371094 184.953125 179.265625 184.492188 180.230469 184.171875 C 180.71875 184.03125 181.207031 183.882812 181.71875 183.820312 C 181.972656 183.78125 182.226562 183.734375 182.484375 183.730469 L 183.320312 183.6875 C 184.152344 183.707031 185.359375 183.855469 186.289062 184.167969 C 187.25 184.488281 188.140625 184.953125 188.921875 185.511719 C 189.695312 186.070312 190.367188 186.710938 190.882812 187.40625 C 191.433594 188.078125 191.804688 188.808594 192.101562 189.484375 C 192.386719 190.171875 192.554688 190.824219 192.648438 191.410156 C 192.6875 191.707031 192.726562 191.976562 192.75 192.230469 C 192.75 192.480469 192.75 192.714844 192.753906 192.921875 C 192.769531 193.335938 192.675781 193.664062 192.664062 193.878906 C 192.636719 194.097656 192.617188 194.210938 192.617188 194.210938 C 192.617188 194.210938 192.589844 194.097656 192.539062 193.882812 C 192.476562 193.675781 192.425781 193.359375 192.292969 192.984375 C 192.183594 192.601562 192.007812 192.160156 191.792969 191.664062 C 191.566406 191.179688 191.269531 190.65625 190.917969 190.117188 C 190.539062 189.597656 190.105469 189.0625 189.578125 188.570312 C 189.074219 188.058594 188.445312 187.640625 187.796875 187.234375 C 187.136719 186.835938 186.390625 186.574219 185.632812 186.34375 C 184.824219 186.140625 184.203125 186.046875 183.199219 186.019531 C 182.507812 186.039062 181.625 186.136719 180.878906 186.339844 C 180.125 186.570312 179.375 186.835938 178.71875 187.234375 C 178.074219 187.640625 177.4375 188.054688 176.929688 188.566406 C 176.40625 189.058594 175.972656 189.59375 175.59375 190.117188 C 175.242188 190.65625 174.945312 191.175781 174.71875 191.664062 C 174.617188 191.914062 174.519531 192.148438 174.425781 192.363281 C 174.351562 192.589844 174.285156 192.789062 174.222656 192.976562 C 174.089844 193.347656 174.039062 193.679688 173.980469 193.882812 C 173.929688 194.097656 173.898438 194.210938 173.898438 194.210938 " fill-opacity="1" fill-rule="nonzero"/><path fill="#754a43" d="M 190.75 195.75 C 190.75 198.886719 188.207031 201.429688 185.070312 201.429688 C 181.929688 201.429688 179.386719 198.886719 179.386719 195.75 C 179.386719 192.613281 181.929688 190.074219 185.070312 190.074219 C 188.207031 190.074219 190.75 192.613281 190.75 195.75 " fill-opacity="1" fill-rule="nonzero"/><path fill="#32151a" d="M 190.75 195.75 L 190.425781 195.75 C 190.425781 197.226562 189.828125 198.566406 188.859375 199.539062 C 187.886719 200.507812 186.550781 201.101562 185.070312 201.101562 C 183.589844 201.101562 182.253906 200.507812 181.285156 199.539062 C 180.3125 198.566406 179.714844 197.226562 179.714844 195.75 C 179.714844 194.269531 180.3125 192.933594 181.285156 191.964844 C 182.253906 190.996094 183.589844 190.398438 185.070312 190.394531 C 186.550781 190.398438 187.886719 190.996094 188.859375 191.964844 C 189.828125 192.933594 190.425781 194.269531 190.425781 195.75 L 191.078125 195.75 C 191.078125 192.433594 188.390625 189.746094 185.070312 189.746094 C 181.753906 189.746094 179.0625 192.433594 179.0625 195.75 C 179.0625 199.066406 181.753906 201.753906 185.070312 201.753906 C 188.390625 201.753906 191.078125 199.066406 191.078125 195.75 L 190.75 195.75 " fill-opacity="1" fill-rule="nonzero"/><path fill="#1f1617" d="M 188.589844 196.082031 C 188.589844 197.410156 187.515625 198.484375 186.191406 198.484375 C 184.867188 198.484375 183.789062 197.410156 183.789062 196.082031 C 183.789062 194.753906 184.867188 193.683594 186.191406 193.683594 C 187.515625 193.683594 188.589844 194.753906 188.589844 196.082031 " fill-opacity="1" fill-rule="nonzero"/><path fill="#ffffff" d="M 184.90625 193.683594 C 184.90625 194.585938 184.171875 195.316406 183.269531 195.316406 C 182.363281 195.316406 181.636719 194.585938 181.636719 193.683594 C 181.636719 192.777344 182.363281 192.046875 183.269531 192.046875 C 184.171875 192.046875 184.90625 192.777344 184.90625 193.683594 " fill-opacity="1" fill-rule="nonzero"/><path fill="#ffffff" d="M 218.8125 194.210938 C 218.8125 199.378906 214.621094 203.5625 209.453125 203.5625 C 204.28125 203.5625 200.089844 199.378906 200.089844 194.210938 C 200.089844 189.042969 204.28125 184.855469 209.453125 184.855469 C 214.621094 184.855469 218.8125 189.042969 218.8125 194.210938 " fill-opacity="1" fill-rule="nonzero"/><path fill="#a9dfe3" d="M 209.453125 188.109375 C 214.0625 188.109375 217.886719 191.449219 218.660156 195.839844 C 218.753906 195.308594 218.8125 194.765625 218.8125 194.210938 C 218.8125 189.042969 214.621094 184.855469 209.453125 184.855469 C 204.28125 184.855469 200.089844 189.042969 200.089844 194.210938 C 200.089844 194.765625 200.152344 195.308594 200.242188 195.839844 C 201.015625 191.449219 204.839844 188.109375 209.453125 188.109375 " fill-opacity="1" fill-rule="nonzero"/><path fill="#1f1617" d="M 200.089844 194.210938 C 200.089844 194.210938 200.09375 194.097656 200.101562 193.878906 C 200.117188 193.667969 200.085938 193.347656 200.15625 192.949219 C 200.179688 192.746094 200.203125 192.527344 200.230469 192.28125 C 200.28125 192.046875 200.335938 191.785156 200.386719 191.507812 C 200.523438 190.957031 200.71875 190.34375 201 189.699219 C 201.308594 189.0625 201.664062 188.371094 202.15625 187.707031 C 202.628906 187.015625 203.234375 186.363281 203.941406 185.742188 C 204.648438 185.125 205.507812 184.621094 206.441406 184.238281 C 206.917969 184.070312 207.40625 183.921875 207.914062 183.832031 C 208.167969 183.785156 208.421875 183.742188 208.679688 183.734375 L 209.511719 183.6875 C 210.34375 183.707031 211.550781 183.90625 212.445312 184.296875 C 213.363281 184.710938 214.195312 185.238281 214.878906 185.871094 C 216.257812 187.121094 217.15625 188.523438 217.792969 189.757812 C 218.097656 190.378906 218.316406 190.980469 218.464844 191.523438 C 218.527344 191.796875 218.589844 192.054688 218.644531 192.289062 C 218.675781 192.53125 218.703125 192.75 218.730469 192.953125 C 218.804688 193.347656 218.777344 193.667969 218.800781 193.878906 C 218.808594 194.097656 218.8125 194.210938 218.8125 194.210938 C 218.8125 194.210938 218.804688 194.097656 218.789062 193.882812 C 218.765625 193.671875 218.785156 193.347656 218.703125 192.957031 C 218.664062 192.757812 218.625 192.539062 218.582031 192.300781 C 218.515625 192.070312 218.441406 191.816406 218.371094 191.550781 C 218.195312 191.023438 217.945312 190.445312 217.617188 189.847656 C 217.261719 189.269531 216.835938 188.65625 216.242188 188.15625 C 215.6875 187.617188 214.964844 187.210938 214.226562 186.875 C 213.472656 186.550781 212.664062 186.359375 211.863281 186.214844 C 211.019531 186.085938 210.390625 186.046875 209.390625 186.019531 C 209.109375 186.046875 208.613281 186.027344 208.246094 186.101562 C 207.84375 186.113281 207.453125 186.210938 207.054688 186.273438 C 206.273438 186.445312 205.488281 186.664062 204.761719 187.003906 C 204.042969 187.351562 203.347656 187.753906 202.796875 188.273438 C 202.214844 188.765625 201.765625 189.34375 201.390625 189.90625 C 201.042969 190.480469 200.773438 191.042969 200.578125 191.566406 C 200.496094 191.828125 200.417969 192.078125 200.351562 192.308594 C 200.300781 192.546875 200.257812 192.757812 200.214844 192.957031 C 200.128906 193.347656 200.144531 193.671875 200.117188 193.882812 C 200.101562 194.097656 200.089844 194.210938 200.089844 194.210938 " fill-opacity="1" fill-rule="nonzero"/><path fill="#754a43" d="M 217.234375 195.75 C 217.234375 198.886719 214.691406 201.429688 211.550781 201.429688 C 208.414062 201.429688 205.871094 198.886719 205.871094 195.75 C 205.871094 192.613281 208.414062 190.074219 211.550781 190.074219 C 214.691406 190.074219 217.234375 192.613281 217.234375 195.75 " fill-opacity="1" fill-rule="nonzero"/><path fill="#32151a" d="M 217.234375 195.75 L 216.90625 195.75 C 216.90625 197.226562 216.308594 198.566406 215.335938 199.539062 C 214.367188 200.507812 213.03125 201.101562 211.550781 201.101562 C 210.070312 201.101562 208.734375 200.507812 207.761719 199.539062 C 206.792969 198.566406 206.195312 197.226562 206.195312 195.75 C 206.195312 194.269531 206.792969 192.933594 207.761719 191.964844 C 208.734375 190.996094 210.070312 190.398438 211.550781 190.394531 C 213.03125 190.398438 214.367188 190.996094 215.335938 191.964844 C 216.308594 192.933594 216.90625 194.269531 216.90625 195.75 L 217.558594 195.75 C 217.558594 192.433594 214.867188 189.746094 211.550781 189.746094 C 208.230469 189.746094 205.542969 192.433594 205.542969 195.75 C 205.542969 199.066406 208.230469 201.753906 211.550781 201.753906 C 214.867188 201.753906 217.558594 199.066406 217.558594 195.75 L 217.234375 195.75 " fill-opacity="1" fill-rule="nonzero"/><path fill="#1f1617" d="M 213.953125 196.082031 C 213.953125 197.410156 212.878906 198.484375 211.550781 198.484375 C 210.222656 198.484375 209.148438 197.410156 209.148438 196.082031 C 209.148438 194.753906 210.222656 193.683594 211.550781 193.683594 C 212.878906 193.683594 213.953125 194.753906 213.953125 196.082031 " fill-opacity="1" fill-rule="nonzero"/><path fill="#ffffff" d="M 215.277344 193.683594 C 215.277344 194.585938 214.542969 195.316406 213.640625 195.316406 C 212.734375 195.316406 212.003906 194.585938 212.003906 193.683594 C 212.003906 192.777344 212.734375 192.046875 213.640625 192.046875 C 214.542969 192.046875 215.277344 192.777344 215.277344 193.683594 " fill-opacity="1" fill-rule="nonzero"/><path fill="#1f1617" d="M 202.132812 175.910156 C 202.132812 175.910156 202.160156 175.824219 202.238281 175.664062 C 202.3125 175.507812 202.4375 175.285156 202.617188 175.03125 C 202.792969 174.757812 203.039062 174.480469 203.335938 174.160156 C 203.644531 173.867188 204 173.515625 204.445312 173.222656 C 204.875 172.90625 205.382812 172.632812 205.949219 172.382812 C 206.511719 172.132812 207.144531 171.945312 207.8125 171.84375 C 208.488281 171.777344 209.191406 171.757812 209.902344 171.882812 C 210.613281 171.945312 211.308594 172.144531 212 172.292969 C 212.691406 172.445312 213.339844 172.742188 213.984375 172.960938 C 214.597656 173.257812 215.183594 173.59375 215.738281 173.90625 C 216.25 174.289062 216.746094 174.648438 217.195312 175.003906 C 217.632812 175.371094 217.992188 175.78125 218.347656 176.121094 C 218.699219 176.46875 219.007812 176.789062 219.238281 177.117188 C 219.480469 177.429688 219.691406 177.703125 219.859375 177.933594 C 220.191406 178.382812 220.386719 178.640625 220.386719 178.640625 L 220.125 178.875 C 220.125 178.875 219.871094 178.6875 219.417969 178.363281 C 219.199219 178.199219 218.933594 178.003906 218.628906 177.773438 C 218.34375 177.53125 217.972656 177.3125 217.570312 177.089844 C 217.164062 176.863281 216.757812 176.589844 216.289062 176.367188 C 215.800781 176.167969 215.316406 175.945312 214.8125 175.726562 C 214.292969 175.578125 213.753906 175.417969 213.207031 175.261719 C 212.648438 175.191406 212.101562 175.046875 211.539062 175.035156 C 210.980469 175.027344 210.425781 175.015625 209.890625 175.140625 C 209.355469 175.203125 208.847656 175.351562 208.351562 175.421875 C 207.363281 175.601562 206.390625 175.652344 205.515625 175.796875 C 204.59375 175.914062 203.824219 176.011719 203.285156 176.082031 C 202.6875 176.144531 202.347656 176.179688 202.347656 176.179688 L 202.132812 175.910156 " fill-opacity="1" fill-rule="nonzero"/><path fill="#1f1617" d="M 189.828125 176.15625 C 189.832031 176.15625 189.519531 176.105469 189.03125 176.011719 C 188.789062 175.957031 188.492188 175.910156 188.179688 175.839844 C 187.859375 175.785156 187.519531 175.691406 187.152344 175.640625 C 186.792969 175.566406 186.410156 175.507812 186.019531 175.4375 C 185.632812 175.378906 185.242188 175.304688 184.847656 175.234375 C 184.648438 175.195312 184.441406 175.160156 184.242188 175.097656 C 184.035156 175.050781 183.828125 175.027344 183.613281 174.980469 C 183.175781 174.859375 182.734375 174.921875 182.273438 174.914062 C 181.828125 175 181.359375 175.070312 180.917969 175.210938 C 180.492188 175.402344 180.019531 175.503906 179.613281 175.730469 C 179.199219 175.957031 178.796875 176.175781 178.417969 176.386719 C 178.054688 176.640625 177.710938 176.886719 177.394531 177.113281 C 177.0625 177.332031 176.789062 177.570312 176.558594 177.792969 C 176.316406 178.011719 176.105469 178.203125 175.929688 178.359375 C 175.574219 178.671875 175.371094 178.851562 175.371094 178.851562 L 175.117188 178.664062 C 175.117188 178.664062 175.253906 178.429688 175.5 178.015625 C 175.617188 177.800781 175.765625 177.554688 175.949219 177.261719 C 176.121094 176.972656 176.328125 176.644531 176.601562 176.328125 C 176.867188 175.996094 177.160156 175.632812 177.460938 175.25 C 177.800781 174.898438 178.207031 174.5625 178.613281 174.183594 C 179.015625 173.8125 179.53125 173.535156 180.027344 173.207031 C 180.550781 172.917969 181.132812 172.695312 181.714844 172.46875 C 182.316406 172.332031 182.921875 172.09375 183.554688 172.042969 C 183.871094 172.007812 184.191406 171.941406 184.5 171.949219 C 184.8125 171.953125 185.117188 171.992188 185.421875 172.019531 C 186.011719 172.128906 186.566406 172.320312 187.046875 172.570312 C 187.53125 172.816406 187.957031 173.097656 188.304688 173.40625 C 188.667969 173.6875 188.945312 174.03125 189.1875 174.304688 C 189.414062 174.617188 189.597656 174.871094 189.71875 175.125 C 189.847656 175.363281 189.9375 175.566406 189.984375 175.710938 C 190.035156 175.855469 190.046875 175.933594 190.046875 175.933594 L 189.828125 176.15625 " fill-opacity="1" fill-rule="nonzero"/><path fill="#c5ba93" d="M 235.597656 292.027344 C 235.597656 292.027344 231.691406 293.691406 231.398438 290.800781 C 231.109375 287.90625 235.003906 283.320312 236.167969 282.683594 C 236.167969 282.683594 234.433594 278.355469 234.726562 276.695312 C 235.015625 275.03125 239.441406 275.488281 239.441406 275.488281 C 239.441406 275.488281 240.300781 283.609375 240.371094 283.769531 C 240.445312 283.925781 235.597656 292.027344 235.597656 292.027344 " fill-opacity="1" fill-rule="nonzero"/><path fill="#181316" d="M 229.8125 213.242188 C 229.8125 213.242188 229.867188 213.296875 229.976562 213.40625 C 230.117188 213.539062 230.28125 213.714844 230.472656 213.914062 C 230.859375 214.335938 231.402344 214.933594 232.046875 215.699219 C 233.339844 217.234375 235.023438 219.496094 236.773438 222.324219 C 237.628906 223.753906 238.527344 225.308594 239.34375 227.019531 C 240.179688 228.71875 240.980469 230.546875 241.652344 232.484375 C 242.378906 234.40625 242.9375 236.453125 243.425781 238.539062 C 243.628906 239.589844 243.890625 240.632812 244.027344 241.707031 L 244.261719 243.3125 L 244.410156 244.929688 C 244.613281 247.078125 244.617188 249.234375 244.554688 251.339844 C 244.496094 252.394531 244.394531 253.4375 244.316406 254.464844 C 244.175781 255.484375 244.042969 256.492188 243.910156 257.480469 C 243.71875 258.460938 243.539062 259.421875 243.359375 260.363281 C 243.152344 261.296875 242.898438 262.199219 242.679688 263.078125 C 242.480469 263.96875 242.167969 264.796875 241.921875 265.613281 C 241.65625 266.425781 241.425781 267.214844 241.125 267.945312 C 240.574219 269.425781 240.089844 270.789062 239.550781 271.949219 C 239.042969 273.125 238.613281 274.152344 238.179688 274.960938 C 237.382812 276.609375 236.921875 277.554688 236.921875 277.554688 L 235.238281 276.699219 C 235.238281 276.699219 235.671875 275.769531 236.425781 274.152344 C 236.816406 273.347656 237.195312 272.332031 237.644531 271.179688 C 238.125 270.03125 238.550781 268.699219 239.019531 267.25 C 239.265625 266.527344 239.441406 265.753906 239.640625 264.960938 C 239.828125 264.160156 240.074219 263.351562 240.210938 262.492188 C 240.367188 261.636719 240.554688 260.765625 240.6875 259.867188 C 240.804688 258.96875 240.921875 258.046875 241.035156 257.113281 C 241.09375 256.175781 241.152344 255.222656 241.214844 254.25 C 241.199219 253.285156 241.214844 252.308594 241.183594 251.328125 C 241.078125 249.367188 240.910156 247.386719 240.519531 245.445312 L 240.242188 243.992188 L 239.878906 242.554688 C 239.664062 241.597656 239.332031 240.675781 239.054688 239.75 C 238.410156 237.929688 237.695312 236.171875 236.851562 234.542969 C 236.027344 232.902344 235.09375 231.402344 234.160156 230.019531 C 233.21875 228.640625 232.21875 227.417969 231.28125 226.320312 C 230.304688 225.246094 229.402344 224.285156 228.535156 223.503906 C 227.671875 222.722656 226.90625 222.070312 226.257812 221.574219 C 225.621094 221.066406 225.097656 220.71875 224.761719 220.503906 C 224.578125 220.386719 224.46875 220.320312 224.414062 220.296875 L 224.28125 220.214844 L 229.8125 213.242188 " fill-opacity="1" fill-rule="nonzero"/><path fill="#a5bdbc" d="M 232.300781 267.917969 C 232.601562 265.890625 234.484375 264.496094 236.511719 264.792969 L 243.589844 265.839844 C 245.613281 266.136719 247.011719 268.023438 246.710938 270.046875 C 246.410156 272.070312 244.53125 273.46875 242.503906 273.171875 L 235.425781 272.121094 C 233.398438 271.824219 232 269.9375 232.300781 267.917969 " fill-opacity="1" fill-rule="nonzero"/><path fill="#ac6854" d="M 232.289062 267.980469 C 232.289062 267.980469 232.289062 267.980469 232.289062 267.976562 C 232.289062 267.980469 232.289062 267.980469 232.289062 267.980469 M 232.292969 267.96875 C 232.292969 267.964844 232.292969 267.964844 232.292969 267.964844 C 232.292969 267.964844 232.292969 267.964844 232.292969 267.96875 M 232.292969 267.957031 C 232.292969 267.953125 232.292969 267.953125 232.292969 267.953125 C 232.292969 267.953125 232.292969 267.953125 232.292969 267.957031 M 232.296875 267.941406 C 232.296875 267.941406 232.296875 267.941406 232.296875 267.9375 C 232.296875 267.941406 232.296875 267.941406 232.296875 267.941406 M 232.296875 267.929688 C 232.296875 267.925781 232.296875 267.925781 232.296875 267.925781 C 232.296875 267.925781 232.296875 267.925781 232.296875 267.929688 " fill-opacity="1" fill-rule="nonzero"/><path fill="#bbb3a1" d="M 244.398438 272.949219 C 244.398438 272.949219 235.617188 270.4375 232.777344 270.332031 C 232.777344 270.332031 232.773438 270.335938 232.773438 270.335938 C 232.371094 269.652344 232.183594 268.835938 232.289062 267.992188 C 232.289062 267.988281 232.289062 267.984375 232.289062 267.980469 C 232.289062 267.980469 232.289062 267.980469 232.289062 267.976562 C 232.292969 267.976562 232.292969 267.972656 232.292969 267.96875 C 232.292969 267.964844 232.292969 267.964844 232.292969 267.964844 C 232.292969 267.960938 232.292969 267.957031 232.292969 267.957031 C 232.292969 267.953125 232.292969 267.953125 232.292969 267.953125 C 232.292969 267.949219 232.296875 267.945312 232.296875 267.941406 C 232.296875 267.941406 232.296875 267.941406 232.296875 267.9375 C 232.296875 267.933594 232.296875 267.933594 232.296875 267.929688 C 232.296875 267.925781 232.296875 267.925781 232.296875 267.925781 C 232.296875 267.921875 232.300781 267.917969 232.300781 267.917969 C 232.300781 267.910156 232.300781 267.90625 232.300781 267.902344 C 232.347656 267.601562 232.429688 267.324219 232.542969 267.054688 C 235.238281 267.074219 238.367188 268.8125 238.367188 268.8125 C 238.988281 268.773438 239.570312 268.753906 240.113281 268.753906 C 244.027344 268.753906 245.8125 269.710938 246.617188 270.484375 C 246.300781 271.636719 245.460938 272.535156 244.398438 272.949219 " fill-opacity="1" fill-rule="nonzero"/><path fill="#ffffff" d="M 233.664062 266.589844 C 233.664062 266.589844 234.402344 265.480469 235.78125 265.425781 C 237.160156 265.367188 243.242188 266.355469 243.476562 266.5625 C 243.476562 266.5625 240.503906 266.445312 238.761719 267.183594 C 237.019531 267.925781 233.664062 266.589844 233.664062 266.589844 " fill-opacity="1" fill-rule="nonzero"/><path fill="#a5bdbc" d="M 232.777344 270.332031 C 232.777344 270.332031 229.847656 272.773438 230.148438 277.003906 C 230.148438 277.003906 226.203125 284.121094 228.273438 285.90625 C 228.273438 285.90625 231.371094 286.472656 232.914062 281.230469 C 234.453125 275.992188 236.132812 276.769531 236.808594 276.8125 C 236.808594 276.8125 239.269531 280.351562 238.566406 283.464844 C 238.566406 283.464844 232.363281 292.699219 234.34375 294.703125 C 236.328125 296.703125 243.714844 289.238281 244.660156 284.445312 C 245.679688 279.316406 245.664062 276.359375 244.398438 272.949219 C 244.398438 272.949219 235.617188 270.4375 232.777344 270.332031 " fill-opacity="1" fill-rule="nonzero"/><path fill="#ffffff" d="M 243.085938 286.300781 C 242.3125 287.355469 237.339844 293.371094 234.085938 294.285156 C 234.148438 294.445312 234.234375 294.585938 234.34375 294.703125 C 236.328125 296.703125 243.714844 289.238281 244.660156 284.445312 C 245.425781 280.613281 245.609375 277.992188 245.125 275.488281 C 244.6875 278.730469 243.726562 285.433594 243.085938 286.300781 " fill-opacity="1" fill-rule="nonzero"/><path fill="#bbb3a1" d="M 228.539062 285.925781 C 228.371094 285.925781 228.277344 285.90625 228.273438 285.90625 C 227.84375 285.53125 227.671875 284.933594 227.671875 284.210938 C 227.671875 281.46875 230.148438 277.003906 230.148438 277.003906 C 230.136719 276.792969 230.128906 276.59375 230.128906 276.394531 C 230.128906 272.539062 232.777344 270.332031 232.777344 270.332031 C 235.617188 270.4375 244.398438 272.949219 244.398438 272.949219 C 244.496094 273.210938 244.582031 273.460938 244.660156 273.71875 C 241.917969 272.980469 233.734375 271.886719 233.734375 271.886719 C 231.902344 272.300781 231.847656 277.257812 231.847656 277.257812 C 231.847656 277.257812 230.96875 280.0625 229.695312 282.417969 C 229.027344 283.652344 230.078125 284.261719 231.226562 284.554688 C 230.152344 285.769531 229.035156 285.925781 228.539062 285.925781 " fill-opacity="1" fill-rule="nonzero"/><path fill="#ac6854" d="M 234.332031 277.929688 C 234.332031 277.929688 234.332031 277.925781 234.332031 277.925781 C 234.457031 277.742188 234.582031 277.585938 234.707031 277.453125 C 234.707031 277.453125 234.707031 277.453125 234.707031 277.457031 C 234.582031 277.589844 234.457031 277.742188 234.332031 277.929688 " fill-opacity="1" fill-rule="nonzero"/><path fill="#c9b291" d="M 234.707031 277.457031 C 234.707031 277.453125 234.707031 277.453125 234.707031 277.453125 C 235.003906 277.136719 235.289062 276.953125 235.550781 276.855469 L 235.554688 276.855469 C 235.292969 276.953125 235.003906 277.136719 234.707031 277.457031 " fill-opacity="1" fill-rule="nonzero"/><path fill="#6d5751" d="M 237.078125 277.234375 C 236.914062 276.964844 236.808594 276.8125 236.808594 276.8125 C 236.644531 276.804688 236.417969 276.75 236.15625 276.75 C 235.972656 276.75 235.773438 276.773438 235.554688 276.855469 L 235.550781 276.855469 C 235.769531 276.773438 235.96875 276.75 236.152344 276.75 C 236.417969 276.75 236.644531 276.800781 236.808594 276.8125 C 236.808594 276.8125 236.914062 276.964844 237.078125 277.234375 " fill-opacity="1" fill-rule="nonzero"/><path fill="#bbb3a1" d="M 234.039062 292.695312 C 234.644531 289.335938 238.480469 283.589844 238.5625 283.464844 C 238.566406 283.464844 238.566406 283.464844 238.566406 283.464844 C 238.652344 283.070312 238.691406 282.675781 238.691406 282.285156 C 238.691406 280.175781 237.597656 278.105469 237.078125 277.234375 C 236.914062 276.964844 236.808594 276.8125 236.808594 276.8125 C 236.644531 276.800781 236.417969 276.75 236.152344 276.75 C 235.96875 276.75 235.769531 276.773438 235.550781 276.855469 C 235.289062 276.953125 235.003906 277.136719 234.707031 277.453125 C 234.582031 277.585938 234.457031 277.742188 234.332031 277.925781 C 234.53125 276.8125 235.148438 275.375 236.929688 274.84375 C 236.929688 274.84375 239.894531 278.164062 239.988281 282.664062 C 239.988281 282.664062 236.101562 288.851562 234.039062 292.695312 " fill-opacity="1" fill-rule="nonzero"/><path fill="#1f1617" d="M 194.902344 222.464844 L 194.828125 222.457031 L 194.703125 222.46875 C 191.214844 222.46875 185.351562 219.789062 183.242188 213.835938 C 182.710938 212.347656 182.707031 211.226562 183.21875 210.496094 C 183.621094 209.925781 184.335938 209.625 185.273438 209.625 C 186.023438 209.625 186.675781 209.8125 186.703125 209.820312 C 188.957031 210.832031 190.980469 210.949219 192.9375 211.0625 C 193.625 211.101562 194.289062 211.140625 194.9375 211.21875 C 195.582031 211.140625 196.246094 211.101562 196.929688 211.0625 C 198.882812 210.949219 200.902344 210.832031 203.097656 209.839844 C 203.179688 209.8125 203.835938 209.625 204.582031 209.625 C 205.523438 209.625 206.234375 209.925781 206.640625 210.496094 C 207.152344 211.226562 207.144531 212.347656 206.617188 213.835938 C 204.503906 219.789062 198.640625 222.46875 195.15625 222.46875 L 194.902344 222.464844 " fill-opacity="1" fill-rule="nonzero"/><path fill="#1f1617" d="M 204.582031 209.191406 C 203.785156 209.191406 203.105469 209.382812 203.03125 209.402344 L 202.972656 209.421875 L 202.921875 209.445312 C 200.796875 210.402344 198.816406 210.519531 196.90625 210.628906 C 196.230469 210.667969 195.582031 210.707031 194.9375 210.78125 C 194.289062 210.707031 193.644531 210.667969 192.964844 210.628906 C 191.046875 210.519531 189.058594 210.402344 186.9375 209.445312 L 186.882812 209.421875 L 186.824219 209.402344 C 186.75 209.382812 186.070312 209.191406 185.277344 209.191406 C 183.898438 209.191406 183.207031 209.765625 182.863281 210.25 C 182.257812 211.109375 182.246094 212.328125 182.832031 213.980469 C 185.011719 220.132812 191.089844 222.902344 194.703125 222.902344 L 194.902344 222.898438 L 194.957031 222.898438 L 195.15625 222.902344 C 198.769531 222.902344 204.84375 220.132812 207.03125 213.980469 C 207.609375 212.328125 207.601562 211.109375 206.996094 210.25 C 206.652344 209.765625 205.957031 209.191406 204.582031 209.191406 M 204.582031 210.058594 C 205.808594 210.058594 207.300781 210.617188 206.207031 213.695312 C 204.105469 219.617188 198.335938 222.03125 195.15625 222.03125 L 194.949219 222.027344 L 194.90625 222.027344 L 194.703125 222.03125 C 191.523438 222.03125 185.75 219.617188 183.648438 213.695312 C 182.554688 210.617188 184.046875 210.058594 185.277344 210.058594 C 185.96875 210.058594 186.578125 210.238281 186.578125 210.238281 C 189.660156 211.628906 192.453125 211.355469 194.9375 211.65625 C 197.417969 211.355469 200.199219 211.628906 203.277344 210.238281 C 203.277344 210.238281 203.886719 210.058594 204.582031 210.058594 " fill-opacity="1" fill-rule="nonzero"/><path fill="#ffffff" d="M 203.84375 210.121094 C 203.503906 210.171875 203.277344 210.238281 203.277344 210.238281 C 200.199219 211.628906 197.417969 211.355469 194.9375 211.65625 C 192.453125 211.355469 189.660156 211.628906 186.578125 210.238281 C 186.578125 210.238281 186.167969 210.117188 185.636719 210.074219 C 185.480469 210.789062 185.335938 212.355469 186.558594 213.617188 C 188.207031 215.308594 198.707031 217.257812 202.726562 213.617188 C 202.726562 213.617188 204.035156 212.796875 203.84375 210.121094 " fill-opacity="1" fill-rule="nonzero"/><path fill="#ef2b44" d="M 194.9375 218.085938 C 190.320312 217.089844 188.433594 218.191406 187.664062 219.28125 C 190.144531 221.253906 193.035156 222.089844 194.910156 222.027344 L 194.949219 222.027344 C 196.824219 222.089844 199.722656 221.25 202.203125 219.273438 C 201.429688 218.1875 199.542969 217.09375 194.9375 218.085938 " fill-opacity="1" fill-rule="nonzero"/><path fill="#d8283c" d="M 200.332031 217.996094 C 201.023438 218.65625 200.917969 219.113281 200.917969 219.113281 C 196.605469 222.441406 188.878906 219.527344 188.542969 219.113281 C 188.375 218.910156 188.617188 218.558594 188.902344 218.253906 C 188.320312 218.542969 187.925781 218.914062 187.664062 219.28125 C 190.144531 221.253906 193.035156 222.089844 194.910156 222.027344 L 194.949219 222.027344 C 196.824219 222.089844 199.722656 221.25 202.203125 219.273438 C 201.859375 218.785156 201.277344 218.292969 200.332031 217.996094 " fill-opacity="1" fill-rule="nonzero"/><path fill="#bed1cf" d="M 195.097656 213.308594 C 192.347656 213.308594 189.101562 212.707031 185.535156 210.917969 C 185.542969 210.582031 185.589844 210.289062 185.636719 210.074219 C 186.167969 210.117188 186.578125 210.238281 186.578125 210.238281 C 189.660156 211.628906 192.453125 211.355469 194.9375 211.65625 C 197.417969 211.355469 200.199219 211.628906 203.277344 210.238281 C 203.277344 210.238281 203.503906 210.171875 203.84375 210.121094 C 203.867188 210.460938 203.867188 210.777344 203.847656 211.058594 C 202.628906 211.769531 199.488281 213.308594 195.097656 213.308594 " fill-opacity="1" fill-rule="nonzero"/><path fill="#e45b73" d="M 198.902344 217.726562 C 197.878906 217.644531 196.585938 217.730469 194.9375 218.085938 C 193.171875 217.703125 191.808594 217.628906 190.75 217.746094 C 191.96875 217.839844 193.902344 218.113281 194.929688 218.890625 C 194.929688 218.890625 196.925781 218.097656 198.902344 217.726562 " fill-opacity="1" fill-rule="nonzero"/><path fill="#3873ac" d="M 226.59375 355.335938 C 226.59375 355.335938 242.234375 368.71875 243.398438 370.976562 C 244.625 373.363281 242.375 375.027344 239.988281 374.535156 C 237.550781 374.03125 220.796875 368.582031 217.972656 364.109375 C 217.972656 364.109375 216.359375 357.242188 217.882812 355.234375 L 226.59375 355.335938 " fill-opacity="1" fill-rule="nonzero"/><path fill="#346594" d="M 217.972656 364.109375 C 217.972656 364.109375 216.359375 357.242188 217.882812 355.234375 L 225.0625 355.320312 C 225.71875 355.527344 226.101562 355.824219 226.027344 356.242188 C 225.640625 358.347656 219.96875 358.957031 219.96875 358.957031 C 219.96875 358.957031 219.59375 361.304688 221.21875 363.652344 C 222.847656 366.003906 240.644531 371.773438 241.824219 371.050781 C 242.226562 370.804688 242.082031 369.976562 241.71875 369.003906 C 242.589844 369.902344 243.199219 370.597656 243.398438 370.976562 C 244.625 373.363281 242.375 375.027344 239.988281 374.535156 C 237.550781 374.03125 220.796875 368.582031 217.972656 364.109375 " fill-opacity="1" fill-rule="nonzero"/><path fill="#a2bbc9" d="M 217.015625 354.082031 C 217.105469 355.957031 219.5 357.367188 222.371094 357.234375 C 225.242188 357.101562 227.496094 355.46875 227.410156 353.597656 C 227.320312 351.722656 224.925781 350.3125 222.050781 350.441406 C 219.183594 350.578125 216.925781 352.210938 217.015625 354.082031 " fill-opacity="1" fill-rule="nonzero"/><path fill="#a9c0bd" d="M 217.015625 354.082031 C 217.015625 354.082031 217.015625 354.078125 217.015625 354.074219 C 217.015625 354.078125 217.015625 354.082031 217.015625 354.082031 M 217.011719 354.070312 C 217.011719 354.066406 217.011719 354.066406 217.011719 354.0625 C 217.011719 354.066406 217.011719 354.066406 217.011719 354.070312 M 217.011719 354.0625 C 216.996094 353.5625 217.144531 353.085938 217.417969 352.648438 C 217.144531 353.085938 216.996094 353.5625 217.011719 354.0625 M 217.421875 352.644531 C 217.421875 352.640625 217.421875 352.640625 217.425781 352.640625 C 217.421875 352.640625 217.421875 352.640625 217.421875 352.644531 " fill-opacity="1" fill-rule="nonzero"/><path fill="#85aaae" d="M 219.816406 356.917969 C 218.207031 356.414062 217.085938 355.363281 217.015625 354.097656 C 217.015625 354.09375 217.015625 354.089844 217.015625 354.082031 C 217.015625 354.082031 217.015625 354.078125 217.015625 354.074219 C 217.015625 354.074219 217.011719 354.074219 217.011719 354.070312 C 217.011719 354.066406 217.011719 354.066406 217.011719 354.0625 C 216.996094 353.5625 217.144531 353.085938 217.417969 352.648438 C 217.417969 352.644531 217.421875 352.644531 217.421875 352.644531 C 217.421875 352.640625 217.421875 352.640625 217.425781 352.640625 C 217.425781 352.636719 217.425781 352.636719 217.429688 352.632812 C 217.941406 351.839844 218.886719 351.183594 220.066406 350.800781 L 224.886719 350.859375 C 226.304688 351.378906 227.285156 352.339844 227.394531 353.488281 C 226.210938 354.203125 223.816406 355.410156 221.195312 355.410156 C 220.554688 355.410156 219.902344 355.335938 219.25 355.171875 C 219.25 355.171875 219.195312 355.960938 219.816406 356.917969 " fill-opacity="1" fill-rule="nonzero"/><path fill="#a2bbc9" d="M 216.554688 350.476562 C 216.648438 352.453125 219.179688 353.941406 222.210938 353.804688 C 225.238281 353.660156 227.621094 351.9375 227.527344 349.960938 C 227.433594 347.984375 224.902344 346.496094 221.875 346.632812 C 218.847656 346.777344 216.460938 348.496094 216.554688 350.476562 " fill-opacity="1" fill-rule="nonzero"/><path fill="#ffffff" d="M 216.714844 349.507812 C 217.285156 347.964844 219.351562 346.753906 221.875 346.632812 C 224.253906 346.523438 226.324219 347.425781 227.144531 348.773438 C 225.066406 348.117188 220.3125 347.0625 216.714844 349.507812 " fill-opacity="1" fill-rule="nonzero"/><path fill="#181316" d="M 225.988281 303.253906 L 223.179688 350.246094 L 220.90625 350.191406 L 220.246094 303.117188 L 225.988281 303.253906 " fill-opacity="1" fill-rule="nonzero"/><path fill="#a2bbc9" d="M 226.28125 362.414062 C 226.457031 362.40625 226.617188 362.320312 226.714844 362.160156 C 229.164062 358.324219 232.515625 359.601562 232.65625 359.660156 C 232.9375 359.769531 232.574219 359.6875 232.6875 359.40625 C 232.796875 359.125 232.253906 358.78125 231.96875 358.671875 C 231.925781 358.65625 228.496094 357.332031 225.796875 361.578125 C 225.636719 361.832031 225.710938 362.167969 225.964844 362.332031 C 226.066406 362.394531 226.171875 362.421875 226.28125 362.414062 " fill-opacity="1" fill-rule="nonzero"/><path fill="#a2bbc9" d="M 223.625 360.109375 C 223.796875 360.101562 223.960938 360.011719 224.058594 359.855469 C 226.503906 356.015625 229.855469 357.292969 230 357.347656 C 230.277344 357.460938 229.917969 357.375 230.03125 357.097656 C 230.144531 356.816406 229.59375 356.472656 229.3125 356.363281 C 229.269531 356.34375 225.839844 355.023438 223.140625 359.269531 C 222.980469 359.527344 223.050781 359.863281 223.308594 360.023438 C 223.40625 360.085938 223.519531 360.113281 223.625 360.109375 " fill-opacity="1" fill-rule="nonzero"/><path fill="#32151a" d="M 218.34375 349.8125 L 218.382812 349.894531 C 218.421875 349.933594 218.484375 349.964844 218.578125 350 C 218.769531 350.078125 219.066406 350.101562 219.417969 350.125 C 220.128906 350.167969 221.085938 350.148438 222.03125 350.101562 C 222.992188 350.058594 223.941406 349.988281 224.644531 349.882812 C 224.992188 349.824219 225.289062 349.773438 225.46875 349.679688 C 225.558594 349.632812 225.617188 349.589844 225.652344 349.546875 L 225.6875 349.464844 C 225.683594 349.457031 225.730469 349.625 225.550781 349.789062 C 225.378906 349.945312 225.101562 350.121094 224.75 350.261719 C 224.046875 350.546875 223.054688 350.742188 222.074219 350.789062 C 221.074219 350.835938 220.078125 350.734375 219.351562 350.511719 C 218.984375 350.410156 218.695312 350.257812 218.511719 350.117188 C 218.3125 349.96875 218.34375 349.800781 218.34375 349.8125 " fill-opacity="1" fill-rule="nonzero"/><path fill="#3873ac" d="M 201.574219 355.335938 C 201.574219 355.335938 185.933594 368.71875 184.773438 370.976562 C 183.546875 373.363281 185.796875 375.027344 188.179688 374.535156 C 190.613281 374.03125 207.375 368.582031 210.195312 364.109375 C 210.195312 364.109375 211.808594 357.242188 210.285156 355.234375 L 201.574219 355.335938 " fill-opacity="1" fill-rule="nonzero"/><path fill="#346594" d="M 210.195312 364.109375 C 210.195312 364.109375 211.808594 357.242188 210.285156 355.234375 L 203.105469 355.320312 C 202.445312 355.527344 202.0625 355.824219 202.140625 356.242188 C 202.523438 358.347656 208.195312 358.957031 208.195312 358.957031 C 208.195312 358.957031 208.574219 361.304688 206.949219 363.652344 C 205.320312 366.003906 187.519531 371.773438 186.347656 371.050781 C 185.941406 370.804688 186.082031 369.976562 186.449219 369.003906 C 185.574219 369.902344 184.964844 370.597656 184.773438 370.976562 C 183.546875 373.363281 185.796875 375.027344 188.179688 374.535156 C 190.613281 374.03125 207.375 368.582031 210.195312 364.109375 " fill-opacity="1" fill-rule="nonzero"/><path fill="#a2bbc9" d="M 211.15625 354.082031 C 211.066406 355.957031 208.664062 357.367188 205.796875 357.234375 C 202.929688 357.101562 200.671875 355.46875 200.761719 353.597656 C 200.847656 351.722656 203.246094 350.3125 206.113281 350.441406 C 208.984375 350.578125 211.238281 352.210938 211.15625 354.082031 " fill-opacity="1" fill-rule="nonzero"/><path fill="#85aaae" d="M 208.351562 356.917969 C 208.972656 355.960938 208.917969 355.171875 208.917969 355.171875 C 208.265625 355.335938 207.609375 355.410156 206.972656 355.410156 C 204.351562 355.410156 201.957031 354.203125 200.773438 353.488281 C 200.878906 352.339844 201.863281 351.378906 203.28125 350.859375 L 208.097656 350.800781 C 209.953125 351.402344 211.210938 352.664062 211.15625 354.074219 C 211.15625 354.078125 211.15625 354.082031 211.15625 354.082031 C 211.15625 354.089844 211.152344 354.09375 211.152344 354.097656 C 211.085938 355.363281 209.960938 356.414062 208.351562 356.917969 " fill-opacity="1" fill-rule="nonzero"/><path fill="#a2bbc9" d="M 211.613281 350.476562 C 211.519531 352.453125 208.988281 353.941406 205.960938 353.804688 C 202.929688 353.660156 200.546875 351.9375 200.640625 349.960938 C 200.734375 347.984375 203.265625 346.496094 206.292969 346.632812 C 209.324219 346.777344 211.703125 348.496094 211.613281 350.476562 " fill-opacity="1" fill-rule="nonzero"/><path fill="#ffffff" d="M 211.453125 349.507812 C 210.882812 347.964844 208.816406 346.753906 206.292969 346.632812 C 203.914062 346.523438 201.84375 347.425781 201.019531 348.773438 C 203.101562 348.117188 207.855469 347.0625 211.453125 349.507812 " fill-opacity="1" fill-rule="nonzero"/><path fill="#181316" d="M 207.921875 303.117188 L 207.265625 350.191406 L 204.992188 350.246094 L 202.179688 303.253906 L 207.921875 303.117188 " fill-opacity="1" fill-rule="nonzero"/><path fill="#a2bbc9" d="M 201.886719 362.414062 C 201.714844 362.40625 201.550781 362.320312 201.449219 362.160156 C 199.003906 358.324219 195.65625 359.601562 195.511719 359.660156 C 195.230469 359.769531 195.59375 359.6875 195.480469 359.40625 C 195.367188 359.125 195.917969 358.78125 196.199219 358.671875 C 196.242188 358.65625 199.671875 357.332031 202.371094 361.578125 C 202.53125 361.832031 202.457031 362.167969 202.203125 362.332031 C 202.105469 362.394531 201.992188 362.421875 201.886719 362.414062 " fill-opacity="1" fill-rule="nonzero"/><path fill="#a2bbc9" d="M 204.542969 360.109375 C 204.371094 360.101562 204.207031 360.011719 204.105469 359.855469 C 201.664062 356.015625 198.308594 357.292969 198.167969 357.347656 C 197.886719 357.460938 198.25 357.375 198.140625 357.097656 C 198.027344 356.816406 198.574219 356.472656 198.851562 356.363281 C 198.894531 356.34375 202.328125 355.023438 205.027344 359.269531 C 205.1875 359.527344 205.113281 359.863281 204.863281 360.023438 C 204.761719 360.085938 204.652344 360.113281 204.542969 360.109375 " fill-opacity="1" fill-rule="nonzero"/><path fill="#32151a" d="M 209.828125 349.8125 C 209.828125 349.800781 209.855469 349.96875 209.65625 350.117188 C 209.472656 350.257812 209.179688 350.410156 208.816406 350.511719 C 208.089844 350.734375 207.089844 350.835938 206.097656 350.789062 C 205.109375 350.742188 204.121094 350.550781 203.421875 350.261719 C 203.0625 350.121094 202.789062 349.945312 202.621094 349.789062 C 202.433594 349.625 202.480469 349.457031 202.476562 349.464844 L 202.511719 349.546875 C 202.546875 349.589844 202.609375 349.636719 202.699219 349.679688 C 202.882812 349.773438 203.175781 349.824219 203.523438 349.882812 C 204.226562 349.988281 205.179688 350.058594 206.128906 350.101562 C 207.082031 350.148438 208.039062 350.167969 208.75 350.125 C 209.101562 350.101562 209.398438 350.078125 209.589844 350 C 209.679688 349.964844 209.746094 349.933594 209.785156 349.894531 L 209.828125 349.8125 " fill-opacity="1" fill-rule="nonzero"/><path fill="#32151a" d="M 214.636719 301.902344 C 214.636719 301.902344 215.792969 301.898438 217.460938 301.996094 C 218.304688 302.035156 219.273438 302.097656 220.308594 302.160156 C 221.339844 302.210938 222.4375 302.316406 223.527344 302.339844 C 224.621094 302.417969 225.707031 302.414062 226.726562 302.429688 C 227.238281 302.421875 227.730469 302.414062 228.195312 302.40625 C 228.664062 302.375 229.105469 302.347656 229.511719 302.320312 C 229.921875 302.289062 230.28125 302.21875 230.625 302.191406 C 230.964844 302.160156 231.246094 302.097656 231.484375 302.046875 C 231.964844 301.949219 232.261719 301.902344 232.261719 301.902344 C 232.261719 301.902344 232.039062 302.078125 231.621094 302.363281 C 231.40625 302.507812 231.152344 302.691406 230.824219 302.824219 C 230.503906 302.96875 230.144531 303.164062 229.726562 303.292969 C 229.3125 303.425781 228.859375 303.582031 228.371094 303.6875 C 227.882812 303.777344 227.367188 303.910156 226.828125 303.957031 C 226.289062 303.996094 225.726562 304.097656 225.164062 304.082031 C 224.597656 304.085938 224.023438 304.101562 223.449219 304.070312 C 222.875 304.042969 222.304688 303.992188 221.746094 303.925781 C 221.183594 303.878906 220.640625 303.757812 220.113281 303.675781 C 219.589844 303.59375 219.089844 303.457031 218.609375 303.347656 C 218.136719 303.230469 217.695312 303.097656 217.285156 302.972656 C 215.652344 302.460938 214.636719 301.902344 214.636719 301.902344 " fill-opacity="1" fill-rule="nonzero"/><path fill="#32151a" d="M 193.667969 301.902344 C 193.667969 301.902344 194.820312 301.898438 196.492188 301.996094 C 197.332031 302.035156 198.304688 302.097656 199.335938 302.160156 C 200.367188 302.210938 201.464844 302.316406 202.558594 302.339844 C 203.652344 302.417969 204.738281 302.414062 205.757812 302.429688 C 206.269531 302.421875 206.761719 302.414062 207.226562 302.40625 C 207.691406 302.375 208.132812 302.347656 208.542969 302.320312 C 208.949219 302.289062 209.3125 302.21875 209.652344 302.191406 C 209.996094 302.160156 210.277344 302.097656 210.515625 302.046875 C 211 301.949219 211.289062 301.902344 211.289062 301.902344 C 211.289062 301.902344 211.070312 302.078125 210.652344 302.363281 C 210.4375 302.507812 210.179688 302.691406 209.855469 302.824219 C 209.535156 302.96875 209.171875 303.164062 208.757812 303.292969 C 208.34375 303.425781 207.890625 303.582031 207.402344 303.6875 C 206.914062 303.777344 206.398438 303.910156 205.859375 303.957031 C 205.320312 303.996094 204.757812 304.097656 204.191406 304.082031 C 203.628906 304.085938 203.050781 304.101562 202.476562 304.070312 C 201.90625 304.042969 201.335938 303.992188 200.777344 303.925781 C 200.214844 303.878906 199.671875 303.757812 199.144531 303.675781 C 198.621094 303.59375 198.121094 303.457031 197.640625 303.347656 C 197.167969 303.230469 196.726562 303.097656 196.316406 302.972656 C 194.683594 302.460938 193.667969 301.902344 193.667969 301.902344 " fill-opacity="1" fill-rule="nonzero"/><path fill="#32151a" d="M 153.171875 163.085938 L 153.21875 163.164062 C 153.425781 163.523438 154.261719 165.144531 154.257812 167.035156 C 154.257812 168.5 153.769531 170.121094 152.101562 171.523438 L 152.367188 171.835938 C 154.128906 170.359375 154.671875 168.589844 154.667969 167.035156 C 154.664062 164.738281 153.527344 162.890625 153.523438 162.875 L 153.171875 163.085938 " fill-opacity="1" fill-rule="nonzero"/><path fill="#32151a" d="M 237.011719 218.890625 C 237.011719 218.890625 237.289062 218.945312 237.753906 219.09375 C 238.226562 219.234375 238.878906 219.480469 239.640625 219.816406 C 240.023438 219.980469 240.425781 220.183594 240.847656 220.410156 C 241.261719 220.636719 241.722656 220.847656 242.152344 221.136719 C 243.035156 221.683594 243.96875 222.285156 244.832031 222.976562 C 245.261719 223.324219 245.691406 223.671875 246.117188 224.015625 C 246.546875 224.351562 246.898438 224.761719 247.277344 225.117188 C 247.65625 225.472656 248 225.84375 248.324219 226.1875 C 248.664062 226.519531 248.933594 226.886719 249.191406 227.214844 C 250.21875 228.527344 250.777344 229.496094 250.777344 229.496094 C 250.777344 229.496094 249.785156 228.925781 248.5 227.933594 C 247.863281 227.421875 247.070312 226.898438 246.277344 226.269531 C 245.488281 225.640625 244.628906 224.992188 243.773438 224.347656 C 243.359375 224.003906 242.945312 223.660156 242.515625 223.355469 C 242.082031 223.046875 241.6875 222.707031 241.289062 222.394531 C 240.894531 222.082031 240.507812 221.78125 240.144531 221.496094 C 239.78125 221.199219 239.441406 220.921875 239.121094 220.664062 C 238.480469 220.160156 237.960938 219.703125 237.589844 219.398438 C 237.222656 219.078125 237.011719 218.890625 237.011719 218.890625 " fill-opacity="1" fill-rule="nonzero"/><path fill="#97dde8" d="M 152.863281 40.488281 L 144.136719 116.917969 C 144.136719 119.210938 134.371094 121.070312 122.320312 121.070312 C 110.273438 121.070312 100.507812 119.210938 100.507812 116.917969 L 91.773438 40.488281 L 152.863281 40.488281 " fill-opacity="1" fill-rule="nonzero"/><path fill="#5bcaef" d="M 96.894531 68.050781 L 102.078125 113.480469 C 102.078125 115.605469 111.140625 117.332031 122.320312 117.332031 C 133.496094 117.332031 142.5625 115.605469 142.5625 113.480469 L 147.75 68.050781 L 96.894531 68.050781 " fill-opacity="1" fill-rule="nonzero"/><path fill="#4ca9c4" d="M 142.5625 113.480469 L 143.351562 106.539062 C 128.429688 108.847656 116.859375 100.449219 112.898438 99.097656 C 108.339844 97.535156 96.207031 79.285156 106.859375 78.066406 C 115.203125 77.113281 138.085938 71.515625 147.625 69.128906 L 147.75 68.050781 L 96.894531 68.050781 L 102.078125 113.480469 C 102.078125 115.605469 111.140625 117.332031 122.320312 117.332031 C 133.496094 117.332031 142.5625 115.605469 142.5625 113.480469 " fill-opacity="1" fill-rule="nonzero"/><path fill="#5bcaef" d="M 147.9375 67.265625 C 147.9375 68.558594 136.488281 69.609375 122.355469 69.609375 C 108.230469 69.609375 96.777344 68.558594 96.777344 67.265625 C 96.777344 65.980469 108.230469 64.933594 122.355469 64.933594 C 136.488281 64.933594 147.9375 65.980469 147.9375 67.265625 " fill-opacity="1" fill-rule="nonzero"/><path fill="#ffffff" d="M 105.925781 117.332031 C 105.925781 117.332031 119.792969 121.058594 127.894531 119.65625 C 136 118.257812 125.71875 116.386719 120.105469 114.828125 C 114.496094 113.269531 111.378906 109.222656 111.378906 104.390625 C 111.378906 99.5625 104.367188 48.472656 104.523438 43.179688 C 104.558594 42.054688 104.246094 41.175781 103.746094 40.488281 L 96.84375 40.488281 L 105.925781 117.332031 " fill-opacity="1" fill-rule="nonzero"/><path fill="#5db5be" d="M 152.863281 40.488281 C 152.863281 43.703125 139.1875 46.304688 122.320312 46.304688 C 105.453125 46.304688 91.773438 43.703125 91.773438 40.488281 C 91.773438 37.277344 105.453125 34.675781 122.320312 34.675781 C 139.1875 34.675781 152.863281 37.277344 152.863281 40.488281 " fill-opacity="1" fill-rule="nonzero"/><path fill="#4c9ea7" d="M 122.320312 34.675781 C 105.453125 34.675781 91.773438 37.277344 91.773438 40.488281 C 91.773438 43.703125 105.453125 46.304688 122.320312 46.304688 C 123.839844 46.304688 125.335938 46.28125 126.796875 46.238281 C 118.203125 46.230469 99.503906 46.148438 99.382812 41.777344 C 99.257812 37.425781 137.257812 40.019531 152.597656 41.246094 C 152.769531 40.996094 152.863281 40.746094 152.863281 40.488281 C 152.863281 37.277344 139.1875 34.675781 122.320312 34.675781 " fill-opacity="1" fill-rule="nonzero"/><path fill="#ffffff" d="M 147.75 49.097656 C 147.75 49.097656 144.882812 85.546875 143.480469 85.855469 C 142.078125 86.167969 144.570312 52.058594 144.882812 50.652344 C 145.195312 49.25 147.03125 46.292969 147.75 49.097656 " fill-opacity="1" fill-rule="nonzero"/></svg>