<svg xmlns="http://www.w3.org/2000/svg" xmlns:xlink="http://www.w3.org/1999/xlink" width="500" zoomAndPan="magnify" viewBox="0 0 375 374.999991" height="500" preserveAspectRatio="xMidYMid meet" version="1.0"><defs><clipPath id="ed52081747"><path d="M 78.796875 12.898438 L 181.546875 12.898438 L 181.546875 162.898438 L 78.796875 162.898438 Z M 78.796875 12.898438 " clip-rule="nonzero"/></clipPath><clipPath id="f523daa8e2"><path d="M 123 81 L 167 81 L 167 124.835938 L 123 124.835938 Z M 123 81 " clip-rule="nonzero"/></clipPath><clipPath id="8c0e981f39"><path d="M 130.078125 166 L 149 166 L 149 178 L 130.078125 178 Z M 130.078125 166 " clip-rule="nonzero"/></clipPath><clipPath id="4a03233a26"><path d="M 130.078125 167 L 149 167 L 149 175 L 130.078125 175 Z M 130.078125 167 " clip-rule="nonzero"/></clipPath><clipPath id="231f5e1e56"><path d="M 130.078125 138 L 160 138 L 160 171 L 130.078125 171 Z M 130.078125 138 " clip-rule="nonzero"/></clipPath><clipPath id="79b9b2ae9d"><path d="M 216 354 L 245 354 L 245 374.886719 L 216 374.886719 Z M 216 354 " clip-rule="nonzero"/></clipPath><clipPath id="61fbabcf7e"><path d="M 182 354 L 210 354 L 210 374.886719 L 182 374.886719 Z M 182 354 " clip-rule="nonzero"/></clipPath></defs><path fill="#ffffff" d="M 174.65625 145.3125 L 169.894531 145.3125 L 171.535156 147.941406 L 180.15625 161.753906 L 166.324219 153.144531 L 153.738281 145.3125 L 85.601562 145.3125 C 82.5625 145.3125 80.101562 142.855469 80.101562 139.824219 L 80.101562 19.558594 C 80.101562 16.527344 82.5625 14.070312 85.601562 14.070312 L 174.65625 14.070312 C 177.695312 14.070312 180.15625 16.527344 180.15625 19.558594 L 180.15625 139.824219 C 180.15625 142.855469 177.695312 145.3125 174.65625 145.3125 Z M 174.65625 145.3125 " fill-opacity="1" fill-rule="nonzero"/><g clip-path="url(#ed52081747)"><path fill="#000000" d="M 180.15625 162.921875 C 179.945312 162.921875 179.726562 162.863281 179.535156 162.746094 L 153.402344 146.484375 L 85.601562 146.484375 C 81.917969 146.484375 78.925781 143.492188 78.925781 139.824219 L 78.925781 19.558594 C 78.925781 15.886719 81.917969 12.898438 85.601562 12.898438 L 174.65625 12.898438 C 178.332031 12.898438 181.328125 15.886719 181.328125 19.558594 L 181.328125 139.824219 C 181.328125 143.492188 178.332031 146.484375 174.65625 146.484375 L 172.007812 146.484375 L 181.148438 161.132812 C 181.433594 161.59375 181.371094 162.191406 180.984375 162.578125 C 180.761719 162.804688 180.460938 162.921875 180.15625 162.921875 Z M 85.601562 15.242188 C 83.214844 15.242188 81.273438 17.179688 81.273438 19.558594 L 81.273438 139.824219 C 81.273438 142.207031 83.214844 144.144531 85.601562 144.144531 L 153.738281 144.144531 C 153.953125 144.144531 154.171875 144.203125 154.359375 144.316406 L 176.492188 158.089844 L 168.90625 145.925781 C 168.683594 145.566406 168.671875 145.113281 168.875 144.738281 C 169.082031 144.371094 169.472656 144.136719 169.902344 144.136719 L 174.664062 144.136719 C 177.046875 144.136719 178.988281 142.199219 178.988281 139.816406 L 178.988281 19.558594 C 178.988281 17.179688 177.046875 15.242188 174.664062 15.242188 Z M 85.601562 15.242188 " fill-opacity="1" fill-rule="nonzero"/></g><path fill="#00bcd4" d="M 114.328125 76.238281 C 121.835938 68.691406 131.042969 59.433594 132.09375 58.386719 C 139.046875 51.375 150.355469 51.375 157.308594 58.386719 C 164.28125 65.378906 164.28125 76.742188 157.308594 83.734375 C 156.269531 84.785156 146.753906 94.347656 139.550781 101.585938 Z M 114.328125 76.238281 " fill-opacity="1" fill-rule="nonzero"/><path fill="#e91e63" d="M 142.082031 99.039062 C 142.082031 99.039062 126.285156 114.914062 125.210938 115.996094 C 118.253906 123.003906 106.949219 123.003906 99.992188 115.996094 C 93.019531 109.003906 93.019531 97.640625 99.992188 90.648438 C 99.992188 90.648438 108.84375 81.753906 116.867188 73.691406 Z M 142.082031 99.039062 " fill-opacity="1" fill-rule="nonzero"/><path fill="#00838f" d="M 139.550781 101.585938 C 140.386719 100.742188 141.242188 99.882812 142.082031 99.039062 L 124.84375 81.710938 C 123.996094 82.5625 123.152344 83.414062 122.308594 84.257812 Z M 120.644531 77.492188 L 116.863281 73.691406 L 114.328125 76.238281 L 118.109375 80.039062 C 118.953125 79.195312 119.800781 78.34375 120.644531 77.492188 Z M 120.644531 77.492188 " fill-opacity="1" fill-rule="nonzero"/><path fill="#fce4ec" d="M 103.769531 94.453125 C 98.894531 99.351562 98.894531 107.296875 103.769531 112.199219 C 104.175781 112.601562 104.609375 112.960938 105.050781 113.296875 C 102.703125 108.890625 103.378906 103.285156 107.074219 99.566406 C 107.785156 98.855469 114.824219 91.78125 122.308594 84.257812 L 118.109375 80.039062 C 111.058594 87.128906 104.449219 93.769531 103.769531 94.453125 Z M 103.769531 94.453125 " fill-opacity="1" fill-rule="nonzero"/><path fill="#e0f7fa" d="M 154.625 63.46875 C 154.289062 63.027344 153.933594 62.589844 153.53125 62.183594 C 148.65625 57.28125 140.75 57.28125 135.875 62.183594 C 135.03125 63.03125 127.949219 70.148438 120.644531 77.492188 L 124.84375 81.710938 C 132.648438 73.863281 140.226562 66.25 140.964844 65.507812 C 144.664062 61.789062 150.238281 61.109375 154.625 63.46875 Z M 154.625 63.46875 " fill-opacity="1" fill-rule="nonzero"/><path fill="#80deea" d="M 118.109375 80.039062 L 122.308594 84.257812 C 123.152344 83.414062 123.996094 82.5625 124.84375 81.710938 L 120.644531 77.492188 C 119.800781 78.34375 118.953125 79.195312 118.109375 80.039062 Z M 118.109375 80.039062 " fill-opacity="1" fill-rule="nonzero"/><g clip-path="url(#f523daa8e2)"><path fill="#b0bec5" d="M 144.703125 81.8125 C 144.003906 81.8125 143.304688 81.847656 142.605469 81.917969 C 141.90625 81.984375 141.214844 82.089844 140.527344 82.226562 C 139.839844 82.363281 139.160156 82.535156 138.492188 82.738281 C 137.820312 82.945312 137.160156 83.179688 136.511719 83.449219 C 135.867188 83.71875 135.234375 84.019531 134.613281 84.351562 C 133.996094 84.683594 133.394531 85.046875 132.8125 85.4375 C 132.230469 85.828125 131.667969 86.25 131.125 86.695312 C 130.582031 87.144531 130.066406 87.617188 129.570312 88.113281 C 129.074219 88.613281 128.605469 89.132812 128.160156 89.679688 C 127.714844 90.222656 127.296875 90.789062 126.90625 91.375 C 126.519531 91.960938 126.160156 92.5625 125.828125 93.183594 C 125.496094 93.804688 125.199219 94.441406 124.929688 95.09375 C 124.660156 95.742188 124.425781 96.40625 124.222656 97.082031 C 124.019531 97.753906 123.847656 98.4375 123.710938 99.128906 C 123.574219 99.820312 123.472656 100.515625 123.402344 101.214844 C 123.335938 101.917969 123.300781 102.621094 123.300781 103.324219 C 123.300781 104.03125 123.335938 104.734375 123.402344 105.433594 C 123.472656 106.136719 123.574219 106.832031 123.710938 107.523438 C 123.847656 108.214844 124.019531 108.894531 124.222656 109.570312 C 124.425781 110.246094 124.660156 110.90625 124.929688 111.558594 C 125.199219 112.207031 125.496094 112.84375 125.828125 113.464844 C 126.160156 114.085938 126.519531 114.691406 126.90625 115.277344 C 127.296875 115.863281 127.714844 116.429688 128.160156 116.972656 C 128.605469 117.515625 129.074219 118.039062 129.570312 118.535156 C 130.066406 119.035156 130.582031 119.507812 131.125 119.953125 C 131.667969 120.402344 132.230469 120.820312 132.8125 121.210938 C 133.394531 121.601562 133.996094 121.964844 134.613281 122.296875 C 135.234375 122.628906 135.867188 122.929688 136.511719 123.199219 C 137.160156 123.46875 137.820312 123.707031 138.492188 123.910156 C 139.160156 124.117188 139.839844 124.285156 140.527344 124.425781 C 141.214844 124.5625 141.90625 124.664062 142.605469 124.734375 C 143.304688 124.804688 144.003906 124.835938 144.703125 124.835938 C 145.402344 124.835938 146.105469 124.804688 146.800781 124.734375 C 147.5 124.664062 148.191406 124.5625 148.878906 124.425781 C 149.566406 124.285156 150.246094 124.117188 150.917969 123.910156 C 151.585938 123.707031 152.246094 123.46875 152.894531 123.199219 C 153.542969 122.929688 154.175781 122.628906 154.792969 122.296875 C 155.410156 121.964844 156.011719 121.601562 156.59375 121.210938 C 157.175781 120.820312 157.738281 120.402344 158.28125 119.953125 C 158.824219 119.507812 159.339844 119.035156 159.835938 118.535156 C 160.332031 118.039062 160.804688 117.515625 161.246094 116.972656 C 161.691406 116.429688 162.109375 115.863281 162.5 115.277344 C 162.886719 114.691406 163.25 114.085938 163.578125 113.464844 C 163.910156 112.84375 164.207031 112.207031 164.476562 111.558594 C 164.746094 110.90625 164.980469 110.246094 165.183594 109.570312 C 165.386719 108.894531 165.558594 108.214844 165.695312 107.523438 C 165.832031 106.832031 165.933594 106.136719 166.003906 105.433594 C 166.070312 104.734375 166.105469 104.03125 166.105469 103.324219 C 166.105469 102.621094 166.070312 101.917969 166.003906 101.214844 C 165.933594 100.515625 165.832031 99.820312 165.695312 99.128906 C 165.558594 98.4375 165.386719 97.753906 165.183594 97.082031 C 164.980469 96.40625 164.746094 95.742188 164.476562 95.09375 C 164.207031 94.441406 163.910156 93.804688 163.578125 93.183594 C 163.25 92.5625 162.886719 91.960938 162.5 91.375 C 162.109375 90.789062 161.691406 90.222656 161.246094 89.679688 C 160.804688 89.132812 160.332031 88.613281 159.835938 88.113281 C 159.339844 87.617188 158.824219 87.144531 158.28125 86.695312 C 157.738281 86.25 157.175781 85.828125 156.59375 85.4375 C 156.011719 85.046875 155.410156 84.683594 154.792969 84.351562 C 154.175781 84.019531 153.542969 83.71875 152.894531 83.449219 C 152.246094 83.179688 151.585938 82.945312 150.917969 82.738281 C 150.246094 82.535156 149.566406 82.363281 148.878906 82.226562 C 148.191406 82.089844 147.5 81.984375 146.800781 81.917969 C 146.105469 81.847656 145.402344 81.8125 144.703125 81.8125 Z M 144.703125 81.8125 " fill-opacity="1" fill-rule="nonzero"/></g><path fill="#cfd8dc" d="M 144.703125 85.398438 C 144.121094 85.398438 143.535156 85.425781 142.957031 85.484375 C 142.375 85.542969 141.796875 85.628906 141.222656 85.742188 C 140.652344 85.859375 140.085938 86 139.527344 86.171875 C 138.96875 86.339844 138.417969 86.539062 137.878906 86.761719 C 137.339844 86.988281 136.8125 87.238281 136.296875 87.515625 C 135.78125 87.792969 135.28125 88.09375 134.792969 88.417969 C 134.308594 88.746094 133.839844 89.09375 133.390625 89.46875 C 132.9375 89.839844 132.503906 90.234375 132.09375 90.648438 C 131.679688 91.0625 131.285156 91.5 130.917969 91.953125 C 130.546875 92.40625 130.199219 92.878906 129.875 93.367188 C 129.550781 93.855469 129.25 94.355469 128.972656 94.875 C 128.699219 95.390625 128.449219 95.921875 128.226562 96.464844 C 128.003906 97.007812 127.804688 97.558594 127.636719 98.121094 C 127.464844 98.683594 127.324219 99.253906 127.210938 99.828125 C 127.097656 100.402344 127.011719 100.984375 126.953125 101.566406 C 126.898438 102.152344 126.867188 102.738281 126.867188 103.324219 C 126.867188 103.914062 126.898438 104.5 126.953125 105.082031 C 127.011719 105.667969 127.097656 106.246094 127.210938 106.824219 C 127.324219 107.398438 127.464844 107.96875 127.636719 108.527344 C 127.804688 109.089844 128.003906 109.644531 128.226562 110.1875 C 128.449219 110.726562 128.699219 111.257812 128.972656 111.777344 C 129.25 112.292969 129.550781 112.796875 129.875 113.285156 C 130.199219 113.773438 130.546875 114.242188 130.917969 114.699219 C 131.285156 115.152344 131.679688 115.585938 132.09375 116 C 132.503906 116.417969 132.9375 116.808594 133.390625 117.183594 C 133.839844 117.554688 134.308594 117.90625 134.792969 118.230469 C 135.28125 118.558594 135.78125 118.859375 136.296875 119.136719 C 136.8125 119.414062 137.339844 119.664062 137.878906 119.886719 C 138.417969 120.113281 138.96875 120.308594 139.527344 120.480469 C 140.085938 120.652344 140.652344 120.792969 141.222656 120.90625 C 141.796875 121.023438 142.375 121.109375 142.957031 121.164062 C 143.535156 121.222656 144.121094 121.253906 144.703125 121.253906 C 145.289062 121.253906 145.871094 121.222656 146.453125 121.164062 C 147.03125 121.109375 147.609375 121.023438 148.183594 120.90625 C 148.753906 120.792969 149.320312 120.652344 149.878906 120.480469 C 150.441406 120.308594 150.988281 120.113281 151.527344 119.886719 C 152.066406 119.664062 152.597656 119.414062 153.109375 119.136719 C 153.625 118.859375 154.125 118.558594 154.613281 118.230469 C 155.097656 117.90625 155.566406 117.554688 156.019531 117.183594 C 156.46875 116.808594 156.902344 116.417969 157.316406 116 C 157.726562 115.585938 158.121094 115.152344 158.492188 114.699219 C 158.859375 114.242188 159.207031 113.773438 159.53125 113.285156 C 159.859375 112.796875 160.15625 112.292969 160.433594 111.777344 C 160.707031 111.257812 160.957031 110.726562 161.179688 110.1875 C 161.40625 109.644531 161.601562 109.089844 161.769531 108.527344 C 161.941406 107.96875 162.082031 107.398438 162.195312 106.824219 C 162.308594 106.246094 162.394531 105.667969 162.453125 105.082031 C 162.511719 104.5 162.539062 103.914062 162.539062 103.324219 C 162.539062 102.738281 162.511719 102.152344 162.453125 101.566406 C 162.394531 100.984375 162.308594 100.402344 162.195312 99.828125 C 162.082031 99.253906 161.941406 98.683594 161.769531 98.121094 C 161.601562 97.558594 161.40625 97.007812 161.179688 96.464844 C 160.957031 95.921875 160.707031 95.390625 160.433594 94.875 C 160.15625 94.355469 159.859375 93.855469 159.53125 93.367188 C 159.207031 92.878906 158.859375 92.40625 158.492188 91.953125 C 158.121094 91.5 157.726562 91.0625 157.316406 90.648438 C 156.902344 90.234375 156.46875 89.839844 156.019531 89.46875 C 155.566406 89.09375 155.097656 88.746094 154.613281 88.417969 C 154.125 88.09375 153.625 87.792969 153.109375 87.515625 C 152.597656 87.238281 152.066406 86.988281 151.527344 86.761719 C 150.988281 86.539062 150.441406 86.339844 149.878906 86.171875 C 149.320312 86 148.753906 85.859375 148.183594 85.742188 C 147.609375 85.628906 147.03125 85.542969 146.453125 85.484375 C 145.871094 85.425781 145.289062 85.398438 144.703125 85.398438 Z M 144.703125 85.398438 " fill-opacity="1" fill-rule="nonzero"/><path fill="#c0cbd1" d="M 157.3125 90.667969 L 132.113281 116 C 131.523438 115.425781 130.988281 114.816406 130.507812 114.152344 C 130.273438 113.847656 130.042969 113.527344 129.828125 113.203125 L 154.53125 88.390625 C 154.851562 88.589844 155.171875 88.824219 155.476562 89.054688 C 156.136719 89.539062 156.742188 90.078125 157.3125 90.667969 Z M 157.3125 90.667969 " fill-opacity="1" fill-rule="nonzero"/><path fill="#eceff1" d="M 159.558594 93.449219 L 134.894531 118.257812 C 134.214844 117.828125 133.554688 117.324219 132.949219 116.789062 C 132.664062 116.539062 132.378906 116.269531 132.113281 116 L 157.3125 90.667969 C 157.582031 90.9375 157.847656 91.226562 158.097656 91.511719 C 158.632812 92.121094 159.113281 92.765625 159.558594 93.449219 Z M 159.558594 93.449219 " fill-opacity="1" fill-rule="nonzero"/><path fill="#181316" d="M 166.648438 204.765625 C 166.648438 204.765625 166.578125 204.773438 166.441406 204.785156 C 166.316406 204.792969 166.136719 204.804688 165.902344 204.8125 C 165.449219 204.832031 164.789062 204.855469 163.945312 204.882812 C 162.285156 204.914062 159.9375 204.949219 157.121094 204.804688 C 155.714844 204.734375 154.191406 204.628906 152.582031 204.429688 C 150.972656 204.253906 149.273438 203.988281 147.523438 203.589844 C 145.777344 203.210938 143.972656 202.675781 142.191406 201.914062 C 140.414062 201.164062 138.640625 200.171875 137.109375 198.800781 C 135.570312 197.453125 134.320312 195.71875 133.570312 193.863281 C 132.8125 192 132.542969 190.066406 132.53125 188.273438 C 132.523438 186.46875 132.78125 184.785156 133.117188 183.234375 C 133.453125 181.679688 133.914062 180.265625 134.359375 178.980469 C 135.269531 176.414062 136.214844 174.375 136.914062 172.972656 C 137.246094 172.261719 137.535156 171.71875 137.71875 171.34375 C 137.90625 170.96875 138.007812 170.769531 138.007812 170.769531 L 139.722656 171.636719 C 139.722656 171.636719 139.628906 171.832031 139.449219 172.203125 C 139.28125 172.570312 138.996094 173.101562 138.695312 173.800781 C 138.082031 175.191406 137.253906 177.203125 136.507812 179.671875 C 136.167969 180.910156 135.824219 182.257812 135.617188 183.691406 C 135.417969 185.125 135.332031 186.636719 135.460938 188.140625 C 135.589844 189.648438 135.992188 191.132812 136.683594 192.4375 C 137.378906 193.738281 138.367188 194.859375 139.609375 195.695312 C 140.832031 196.550781 142.265625 197.152344 143.753906 197.582031 C 145.253906 197.996094 146.804688 198.226562 148.332031 198.339844 C 151.390625 198.550781 154.324219 198.289062 156.804688 197.914062 C 159.289062 197.519531 161.335938 197.015625 162.730469 196.605469 C 163.429688 196.402344 163.964844 196.222656 164.320312 196.097656 C 164.492188 196.035156 164.621094 195.984375 164.710938 195.957031 C 164.777344 195.925781 164.8125 195.910156 164.820312 195.910156 L 166.648438 204.765625 " fill-opacity="1" fill-rule="nonzero"/><g clip-path="url(#8c0e981f39)"><path fill="#a5bdbc" d="M 148.625 173.183594 C 148.203125 175.699219 145.820312 177.394531 143.300781 176.972656 L 134.5 175.492188 C 131.984375 175.074219 130.285156 172.691406 130.707031 170.175781 C 131.128906 167.660156 133.515625 165.964844 136.035156 166.390625 L 144.835938 167.867188 C 147.355469 168.289062 149.050781 170.667969 148.625 173.183594 " fill-opacity="1" fill-rule="nonzero"/></g><path fill="#dfcab7" d="M 148.621094 173.222656 C 148.625 173.207031 148.625 173.199219 148.625 173.183594 C 148.625 173.199219 148.625 173.207031 148.621094 173.222656 " fill-opacity="1" fill-rule="nonzero"/><g clip-path="url(#4a03233a26)"><path fill="#bbb3a1" d="M 148.308594 174.25 C 144.945312 174.160156 141.089844 171.921875 141.089844 171.921875 C 140.535156 171.945312 140.011719 171.957031 139.511719 171.957031 C 134.210938 171.957031 131.863281 170.660156 130.835938 169.632812 C 131.035156 168.96875 131.367188 168.378906 131.804688 167.882812 C 131.980469 168.082031 132.171875 168.238281 132.382812 168.355469 C 132.382812 168.355469 135.480469 169.632812 138.386719 169.632812 C 139.496094 169.632812 140.578125 169.445312 141.449219 168.929688 C 141.449219 168.929688 142.316406 170.914062 146.503906 170.914062 C 146.796875 170.914062 147.109375 170.902344 147.441406 170.878906 C 147.511719 170.878906 147.832031 170.753906 148.285156 170.53125 C 148.648438 171.335938 148.785156 172.25 148.625 173.183594 C 148.625 173.199219 148.625 173.207031 148.621094 173.222656 C 148.558594 173.582031 148.449219 173.925781 148.308594 174.25 " fill-opacity="1" fill-rule="nonzero"/></g><g clip-path="url(#231f5e1e56)"><path fill="#a5bdbc" d="M 149.773438 153.5625 C 149.773438 153.5625 148.847656 152.171875 148.164062 151.914062 C 147.480469 151.65625 144.066406 150.71875 142.898438 152.480469 C 142.898438 152.480469 142.605469 151.632812 141.59375 151.175781 C 140.578125 150.714844 136.992188 150.910156 136.496094 152.570312 C 136.496094 152.570312 135.980469 151.757812 134.882812 151.789062 C 133.789062 151.824219 131.402344 153.457031 130.738281 156.972656 C 130.074219 160.492188 130.054688 167.09375 132.382812 168.355469 C 132.382812 168.355469 138.296875 170.796875 141.449219 168.929688 C 141.449219 168.929688 142.445312 171.203125 147.441406 170.878906 C 147.824219 170.855469 156.0625 167.171875 152.097656 162.226562 C 152.097656 162.226562 153.71875 158.050781 154.074219 156.367188 C 154.074219 156.367188 163.132812 143.351562 158.359375 138.867188 C 158.359375 138.867188 155.6875 137.183594 155.128906 138.867188 C 154.566406 140.546875 150.25 153.328125 149.773438 153.5625 " fill-opacity="1" fill-rule="nonzero"/></g><path fill="#dfcab7" d="M 149.875 153.441406 C 149.875 153.441406 149.875 153.4375 149.875 153.4375 C 150.660156 152.117188 154.59375 140.46875 155.128906 138.867188 C 154.59375 140.464844 150.667969 152.09375 149.875 153.441406 " fill-opacity="1" fill-rule="nonzero"/><path fill="#bbb3a1" d="M 150.183594 161.574219 C 149.84375 161.574219 148.8125 161.550781 148.179688 161.292969 C 148.179688 161.292969 151.800781 158.257812 149.875 153.441406 C 150.667969 152.09375 154.59375 140.464844 155.128906 138.867188 C 155.3125 138.308594 155.734375 138.125 156.210938 138.125 C 156.710938 138.515625 157.160156 139.101562 157.304688 139.964844 C 157.679688 142.207031 154.804688 150.203125 152.40625 153.796875 C 152.40625 153.796875 151.21875 155.796875 151.21875 156.949219 C 151.21875 158.097656 150.503906 161.566406 150.292969 161.574219 C 150.292969 161.574219 150.253906 161.574219 150.183594 161.574219 " fill-opacity="1" fill-rule="nonzero"/><path fill="#ffffff" d="M 149.648438 153.386719 C 149.375 153 148.695312 152.117188 148.164062 151.914062 C 147.480469 151.65625 144.066406 150.71875 142.898438 152.480469 C 142.898438 152.480469 142.605469 151.632812 141.59375 151.175781 C 140.578125 150.714844 136.992188 150.910156 136.496094 152.570312 C 136.496094 152.570312 135.980469 151.757812 134.882812 151.789062 C 134.191406 151.8125 132.988281 152.472656 132.027344 153.839844 C 133.675781 153.398438 135.617188 153.199219 137.171875 153.976562 C 137.171875 153.976562 140.679688 151.792969 143.328125 153.449219 C 143.328125 153.449219 147.742188 152.425781 149.855469 154.515625 C 149.855469 154.515625 149.816406 154.054688 149.648438 153.386719 " fill-opacity="1" fill-rule="nonzero"/><path fill="#bbb3a1" d="M 145.410156 168.375 C 143.464844 168.375 141.582031 167.808594 141.582031 167.808594 C 141.203125 166.742188 136.078125 166.722656 133.34375 165.261719 C 130.609375 163.796875 131.613281 161.574219 131.613281 161.574219 C 132.542969 163.402344 133.539062 163.960938 134.40625 163.960938 C 135.773438 163.960938 136.828125 162.582031 136.828125 162.582031 C 137.039062 162.351562 137.21875 162.289062 137.351562 162.289062 C 137.511719 162.289062 137.605469 162.382812 137.605469 162.382812 C 138.417969 162.8125 139.214844 162.914062 139.789062 162.914062 C 140.300781 162.914062 140.632812 162.835938 140.632812 162.835938 C 140.308594 164.226562 141.058594 165.097656 141.058594 165.097656 C 142.570312 166.761719 144.371094 167.222656 145.90625 167.222656 C 147.835938 167.222656 149.351562 166.488281 149.351562 166.488281 C 148.722656 167.972656 147.042969 168.375 145.410156 168.375 " fill-opacity="1" fill-rule="nonzero"/><path fill="#ffffff" d="M 152.097656 162.226562 L 152.140625 162.183594 C 151.425781 161.859375 150.296875 161.46875 148.800781 161.339844 C 148.800781 161.339844 145.613281 162.082031 144.132812 160.964844 C 144.132812 160.964844 143.3125 160.519531 142.589844 160.679688 C 142.589844 160.679688 140.585938 161.054688 140.675781 163.230469 C 140.675781 163.230469 143.402344 165.304688 148.058594 163.761719 C 152.710938 162.222656 152.757812 164.496094 153.089844 165.6875 C 153.316406 164.636719 153.097656 163.476562 152.097656 162.226562 " fill-opacity="1" fill-rule="nonzero"/><path fill="#32151a" d="M 152.492188 162.128906 C 152.480469 162.125 150.046875 161.070312 147.867188 161.066406 C 147.535156 161.066406 147.210938 161.089844 146.898438 161.148438 L 146.9375 161.359375 L 146.941406 161.144531 C 146.941406 161.144531 146.8125 161.144531 146.59375 161.125 C 145.933594 161.085938 144.472656 160.945312 143.550781 160.578125 C 143.316406 160.488281 143.074219 160.445312 142.835938 160.445312 C 142.21875 160.445312 141.632812 160.722656 141.191406 161.136719 C 140.757812 161.546875 140.460938 162.105469 140.460938 162.691406 L 140.464844 162.730469 L 140.679688 162.707031 L 140.460938 162.707031 L 140.460938 162.761719 C 140.460938 162.871094 140.457031 162.996094 140.457031 163.132812 C 140.457031 163.859375 140.515625 164.9375 141.304688 165.851562 C 142.09375 166.761719 143.570312 167.449219 146.300781 167.492188 L 146.304688 167.277344 L 146.28125 167.492188 C 146.289062 167.492188 146.425781 167.503906 146.648438 167.503906 C 147.347656 167.503906 148.933594 167.378906 149.988281 166.199219 L 149.667969 165.914062 C 148.761719 166.9375 147.300781 167.078125 146.648438 167.074219 C 146.546875 167.074219 146.464844 167.074219 146.40625 167.070312 L 146.328125 167.066406 L 146.308594 167.066406 C 143.640625 167.019531 142.304688 166.351562 141.628906 165.566406 C 140.949219 164.785156 140.890625 163.835938 140.890625 163.132812 C 140.890625 163 140.890625 162.875 140.890625 162.761719 L 140.890625 162.679688 L 140.773438 162.691406 L 140.890625 162.691406 L 140.890625 162.679688 L 140.773438 162.691406 L 140.890625 162.691406 C 140.890625 162.25 141.121094 161.792969 141.488281 161.445312 C 141.855469 161.097656 142.351562 160.871094 142.835938 160.875 C 143.023438 160.875 143.210938 160.90625 143.394531 160.980469 C 144.75 161.507812 146.917969 161.574219 146.929688 161.574219 L 146.976562 161.574219 C 147.253906 161.519531 147.558594 161.496094 147.867188 161.496094 C 148.890625 161.496094 150.011719 161.75 150.867188 162.011719 C 151.296875 162.140625 151.664062 162.269531 151.917969 162.363281 C 152.175781 162.460938 152.320312 162.523438 152.320312 162.523438 L 152.492188 162.128906 " fill-opacity="1" fill-rule="nonzero"/><path fill="#32151a" d="M 141.300781 169.554688 C 141.304688 169.535156 142.15625 167.890625 142.164062 166.527344 C 142.164062 166.382812 142.152344 166.234375 142.128906 166.097656 L 141.707031 166.171875 C 141.722656 166.28125 141.734375 166.398438 141.734375 166.527344 C 141.734375 167.121094 141.53125 167.835938 141.328125 168.394531 C 141.222656 168.675781 141.121094 168.917969 141.046875 169.089844 C 140.96875 169.261719 140.917969 169.359375 140.917969 169.359375 L 141.304688 169.554688 " fill-opacity="1" fill-rule="nonzero"/><path fill="#32151a" d="M 142.773438 152.039062 C 142.773438 152.042969 143.058594 153.183594 143.339844 154.472656 C 143.625 155.761719 143.90625 157.210938 143.902344 157.734375 L 143.898438 157.820312 L 143.898438 157.816406 C 143.855469 158.265625 143.746094 158.878906 143.566406 159.414062 C 143.390625 159.957031 143.132812 160.417969 142.894531 160.570312 L 143.140625 160.925781 C 143.53125 160.652344 143.777344 160.125 143.976562 159.550781 C 144.164062 158.972656 144.28125 158.339844 144.328125 157.859375 L 144.328125 157.855469 L 144.332031 157.734375 C 144.328125 157.105469 144.042969 155.6875 143.761719 154.382812 C 143.476562 153.089844 143.191406 151.9375 143.191406 151.9375 L 142.773438 152.039062 " fill-opacity="1" fill-rule="nonzero"/><path fill="#32151a" d="M 136.292969 152.230469 C 136.292969 152.230469 136.414062 152.554688 136.601562 153.050781 C 136.878906 153.800781 137.300781 154.949219 137.664062 155.996094 C 138.027344 157.035156 138.335938 158.003906 138.371094 158.320312 L 138.378906 158.40625 C 138.378906 158.648438 138.285156 159.132812 138.101562 159.691406 C 137.824219 160.535156 137.351562 161.566406 136.71875 162.375 C 136.089844 163.183594 135.324219 163.746094 134.472656 163.742188 C 134.398438 163.742188 134.320312 163.742188 134.242188 163.730469 C 133.386719 163.628906 132.773438 163.28125 132.355469 162.726562 C 131.933594 162.175781 131.714844 161.402344 131.714844 160.449219 C 131.714844 159.414062 131.972656 158.175781 132.507812 156.804688 L 132.109375 156.648438 C 131.558594 158.054688 131.28125 159.34375 131.28125 160.449219 C 131.28125 161.464844 131.519531 162.335938 132.007812 162.988281 C 132.5 163.640625 133.246094 164.050781 134.191406 164.15625 C 134.289062 164.167969 134.382812 164.171875 134.472656 164.171875 C 135.171875 164.171875 135.792969 163.867188 136.324219 163.417969 C 137.125 162.734375 137.734375 161.71875 138.152344 160.757812 C 138.574219 159.792969 138.804688 158.902344 138.808594 158.40625 L 138.800781 158.261719 C 138.761719 157.984375 138.613281 157.484375 138.410156 156.859375 C 137.800781 154.988281 136.695312 152.078125 136.691406 152.078125 L 136.292969 152.230469 " fill-opacity="1" fill-rule="nonzero"/><path fill="#32151a" d="M 140.617188 162.496094 L 140.546875 162.515625 C 140.394531 162.550781 140.027344 162.625 139.554688 162.625 C 138.898438 162.625 138.050781 162.488281 137.296875 161.941406 L 137.046875 162.289062 C 137.898438 162.902344 138.839844 163.050781 139.554688 163.050781 C 140.242188 163.050781 140.722656 162.917969 140.734375 162.910156 L 140.617188 162.496094 " fill-opacity="1" fill-rule="nonzero"/><path fill="#ffffff" d="M 146.898438 174.796875 C 146.898438 174.796875 145.949219 176.164062 144.226562 176.199219 C 142.507812 176.238281 134.941406 174.863281 134.660156 174.597656 C 134.660156 174.597656 138.363281 174.816406 140.550781 173.933594 C 142.738281 173.054688 146.898438 174.796875 146.898438 174.796875 " fill-opacity="1" fill-rule="nonzero"/><path fill="#ef2c47" d="M 239.753906 174.644531 C 239.753906 174.644531 251.390625 181.933594 253.902344 181.933594 C 256.410156 181.933594 281.605469 177.675781 289.132812 179.726562 C 289.132812 179.726562 293.011719 186.789062 289.132812 192.484375 C 289.132812 192.484375 262.800781 189.90625 255.5 191.046875 C 248.195312 192.183594 237.9375 195.242188 237.9375 195.242188 L 238.148438 191.957031 C 238.148438 191.957031 256.867188 188.863281 251.617188 184.941406 L 239.933594 178.851562 L 238.875 178.300781 L 239.753906 174.644531 " fill-opacity="1" fill-rule="nonzero"/><path fill="#b42835" d="M 289.132812 192.484375 C 290.65625 190.246094 290.976562 187.804688 290.8125 185.65625 C 277.601562 185.5 257.128906 186.3125 257.128906 186.3125 L 244.078125 179.070312 C 244.078125 179.070312 243.710938 179.605469 243.089844 180.496094 L 251.617188 184.941406 C 256.867188 188.863281 238.148438 191.957031 238.148438 191.957031 L 237.9375 195.242188 C 237.9375 195.242188 248.195312 192.183594 255.5 191.046875 C 262.800781 189.90625 289.132812 192.484375 289.132812 192.484375 " fill-opacity="1" fill-rule="nonzero"/><path fill="#e2be94" d="M 242.992188 194.820312 C 242.992188 194.820312 276.269531 195.710938 286.925781 213.953125 C 286.925781 213.953125 306.273438 237.519531 283.875 330.136719 C 283.875 330.136719 280.183594 334.480469 275.617188 330.136719 C 275.617188 330.136719 287.671875 240.289062 243.558594 216.257812 C 243.558594 216.257812 240.164062 210.648438 242.992188 194.820312 " fill-opacity="1" fill-rule="nonzero"/><path fill="#cd9967" d="M 283.875 330.136719 C 285.003906 325.480469 286.019531 321.007812 286.941406 316.699219 C 284.710938 316.566406 282.648438 315.847656 281.28125 314.066406 C 281.28125 314.066406 291.933594 232.425781 259.378906 209.601562 C 259.378906 209.601562 256.960938 202.992188 258.109375 196.867188 C 249.730469 195.003906 242.992188 194.820312 242.992188 194.820312 C 240.164062 210.648438 243.558594 216.257812 243.558594 216.257812 C 287.671875 240.289062 275.617188 330.136719 275.617188 330.136719 C 280.183594 334.480469 283.875 330.136719 283.875 330.136719 " fill-opacity="1" fill-rule="nonzero"/><path fill="#3f859e" d="M 240.210938 196.742188 C 240.210938 196.742188 251.617188 206.539062 253.902344 206.539062 C 256.179688 206.539062 277.273438 199.351562 289.597656 203.90625 C 289.597656 203.90625 293.246094 213.476562 288.125 217.804688 C 288.125 217.804688 268.503906 212.003906 254.355469 213.371094 C 240.210938 214.738281 238.535156 218.289062 238.535156 218.289062 L 238.535156 214.964844 C 238.535156 214.964844 252.074219 210.183594 248.195312 206.539062 C 245.242188 203.761719 241.367188 203.054688 239.683594 202.875 C 239.15625 202.820312 240.210938 196.742188 240.210938 196.742188 " fill-opacity="1" fill-rule="nonzero"/><path fill="#36667a" d="M 254.355469 213.371094 C 268.503906 212.003906 288.125 217.804688 288.125 217.804688 C 290.699219 215.628906 291.058594 212.128906 290.773438 209.1875 C 278.363281 207.59375 255.226562 210.230469 255.226562 210.230469 C 251.277344 206.609375 239.839844 199.128906 239.839844 199.125 C 239.597656 200.835938 239.378906 202.839844 239.683594 202.875 C 241.367188 203.054688 245.242188 203.761719 248.195312 206.539062 C 252.074219 210.183594 238.535156 214.964844 238.535156 214.964844 L 238.535156 218.289062 C 238.535156 218.289062 240.210938 214.738281 254.355469 213.371094 " fill-opacity="1" fill-rule="nonzero"/><path fill="#992429" d="M 243.742188 184.402344 C 243.742188 184.402344 281.648438 134.320312 248.421875 116.328125 C 226.214844 104.300781 200.4375 113.460938 184.539062 137.28125 C 148.082031 191.890625 146.207031 315.28125 227.289062 303.953125 C 227.289062 303.953125 267.132812 295.386719 262.066406 246.175781 C 262.066406 246.175781 262.054688 230.914062 243.558594 216.257812 L 243.742188 184.402344 " fill-opacity="1" fill-rule="nonzero"/><path fill="#882024" d="M 245.9375 115.085938 C 245.480469 114.871094 245.027344 114.671875 244.570312 114.472656 C 244.355469 114.382812 244.144531 114.292969 243.925781 114.207031 C 243.441406 114.007812 242.953125 113.820312 242.460938 113.640625 C 242.300781 113.582031 242.140625 113.519531 241.980469 113.460938 C 241.335938 113.234375 240.695312 113.023438 240.042969 112.828125 C 239.898438 112.78125 239.75 112.746094 239.605469 112.703125 C 239.097656 112.558594 238.589844 112.417969 238.078125 112.292969 C 237.863281 112.238281 237.644531 112.1875 237.429688 112.136719 C 236.964844 112.03125 236.503906 111.929688 236.046875 111.839844 C 235.835938 111.800781 235.628906 111.757812 235.421875 111.71875 C 234.824219 111.609375 234.234375 111.515625 233.636719 111.433594 L 233.453125 111.40625 C 232.800781 111.316406 232.144531 111.253906 231.488281 111.199219 C 231.289062 111.179688 231.089844 111.171875 230.886719 111.15625 C 230.421875 111.125 229.957031 111.097656 229.492188 111.082031 C 229.265625 111.074219 229.039062 111.066406 228.816406 111.0625 C 228.335938 111.054688 227.859375 111.054688 227.378906 111.0625 C 227.195312 111.0625 227.011719 111.0625 226.824219 111.066406 C 226.175781 111.085938 225.527344 111.117188 224.878906 111.167969 C 224.738281 111.175781 224.597656 111.195312 224.457031 111.207031 C 223.941406 111.25 223.425781 111.300781 222.914062 111.363281 C 222.6875 111.390625 222.464844 111.421875 222.238281 111.453125 C 221.792969 111.515625 221.347656 111.582031 220.90625 111.660156 C 220.683594 111.695312 220.460938 111.734375 220.238281 111.773438 C 219.714844 111.875 219.1875 111.980469 218.664062 112.097656 C 218.539062 112.125 218.417969 112.148438 218.292969 112.175781 C 217.65625 112.324219 217.027344 112.488281 216.398438 112.664062 C 216.195312 112.722656 215.992188 112.785156 215.785156 112.84375 C 215.34375 112.972656 214.902344 113.109375 214.464844 113.253906 C 214.230469 113.328125 214 113.410156 213.765625 113.488281 C 213.332031 113.640625 212.898438 113.792969 212.46875 113.960938 C 212.261719 114.035156 212.054688 114.113281 211.851562 114.191406 C 211.234375 114.433594 210.625 114.6875 210.015625 114.957031 C 209.878906 115.015625 209.746094 115.082031 209.609375 115.144531 C 209.125 115.363281 208.640625 115.589844 208.160156 115.824219 C 207.9375 115.9375 207.707031 116.050781 207.484375 116.167969 C 207.085938 116.371094 206.6875 116.582031 206.292969 116.796875 C 206.0625 116.921875 205.835938 117.042969 205.613281 117.171875 C 205.167969 117.421875 204.726562 117.679688 204.289062 117.945312 C 204.125 118.042969 203.960938 118.136719 203.800781 118.234375 C 203.222656 118.59375 202.648438 118.964844 202.082031 119.34375 C 201.882812 119.480469 201.6875 119.617188 201.488281 119.753906 C 201.097656 120.023438 200.707031 120.296875 200.320312 120.578125 C 200.09375 120.742188 199.871094 120.910156 199.652344 121.074219 C 199.273438 121.355469 198.902344 121.644531 198.535156 121.9375 C 198.328125 122.097656 198.125 122.257812 197.917969 122.421875 C 197.375 122.859375 196.839844 123.308594 196.308594 123.773438 L 196.292969 123.785156 C 210.613281 119.160156 233.347656 115.40625 240.839844 134.546875 C 252.074219 163.253906 229.257812 176.691406 225.609375 180.675781 C 225.609375 180.675781 231.539062 208.359375 230.171875 218.839844 C 230.171875 218.839844 252.164062 295.351562 182.375 291.425781 L 182.386719 291.433594 C 182.742188 291.777344 183.121094 292.132812 183.511719 292.5 C 194.011719 301.914062 208.394531 306.59375 227.289062 303.953125 C 227.289062 303.953125 267.132812 295.386719 262.066406 246.175781 C 262.066406 246.175781 262.050781 232.660156 246.636719 218.855469 C 245.621094 218 244.59375 217.132812 243.558594 216.257812 L 243.742188 184.402344 C 243.742188 184.402344 281.648438 134.320312 248.421875 116.328125 C 247.792969 115.988281 247.160156 115.667969 246.523438 115.355469 C 246.324219 115.265625 246.132812 115.175781 245.9375 115.085938 " fill-opacity="1" fill-rule="nonzero"/><path fill="#731c21" d="M 243.558594 216.257812 L 243.742188 184.402344 C 243.742188 184.402344 275.859375 141.960938 255.046875 121.183594 C 254.914062 121.050781 254.773438 120.921875 254.636719 120.792969 C 254.472656 120.636719 254.304688 120.480469 254.132812 120.328125 C 253.824219 120.046875 253.503906 119.773438 253.175781 119.503906 L 253.097656 119.441406 C 252.710938 119.128906 252.3125 118.824219 251.90625 118.527344 C 255.820312 134.347656 259.128906 164.660156 234.734375 183.984375 C 234.734375 183.984375 242.480469 209.5 238.148438 219.296875 C 238.148438 219.296875 277.703125 287.441406 203.617188 303.105469 C 210.558594 304.820312 218.425781 305.195312 227.289062 303.953125 C 227.289062 303.953125 267.132812 295.386719 262.066406 246.175781 C 262.066406 246.175781 262.054688 230.914062 243.558594 216.257812 " fill-opacity="1" fill-rule="nonzero"/><path fill="#ed5d76" d="M 207.664062 119.316406 C 207.664062 119.316406 185.988281 131.316406 179.949219 155.160156 C 179.949219 155.160156 179.070312 157.742188 181.046875 158.199219 C 183.023438 158.652344 183.632812 156.074219 184.542969 153.792969 C 185.457031 151.515625 193.824219 134.046875 207.664062 122.355469 C 207.664062 122.355469 213.140625 116.433594 207.664062 119.316406 " fill-opacity="1" fill-rule="nonzero"/><path fill="#ffffff" d="M 190.625 184.941406 C 190.625 190.367188 186.222656 194.765625 180.789062 194.765625 C 175.355469 194.765625 170.953125 190.367188 170.953125 184.941406 C 170.953125 179.519531 175.355469 175.121094 180.789062 175.121094 C 186.222656 175.121094 190.625 179.519531 190.625 184.941406 " fill-opacity="1" fill-rule="nonzero"/><path fill="#a9dfe3" d="M 180.789062 178.839844 C 185.582031 178.839844 189.574219 182.269531 190.445312 186.804688 C 190.558594 186.203125 190.625 185.582031 190.625 184.941406 C 190.625 179.519531 186.222656 175.121094 180.789062 175.121094 C 175.355469 175.121094 170.953125 179.519531 170.953125 184.941406 C 170.953125 185.582031 171.019531 186.203125 171.132812 186.804688 C 172.003906 182.269531 175.992188 178.839844 180.789062 178.839844 " fill-opacity="1" fill-rule="nonzero"/><path fill="#1f1617" d="M 170.953125 184.941406 C 170.953125 184.941406 170.933594 184.824219 170.898438 184.59375 C 170.882812 184.363281 170.789062 184.039062 170.808594 183.601562 C 170.808594 183.378906 170.8125 183.128906 170.8125 182.859375 C 170.835938 182.597656 170.878906 182.3125 170.917969 182.003906 C 170.964844 181.695312 171.054688 181.378906 171.128906 181.03125 C 171.210938 180.691406 171.367188 180.351562 171.496094 179.980469 C 171.65625 179.632812 171.828125 179.257812 172.03125 178.886719 C 172.257812 178.53125 172.480469 178.144531 172.769531 177.796875 C 173.3125 177.066406 174.027344 176.402344 174.832031 175.804688 C 175.648438 175.210938 176.59375 174.746094 177.605469 174.402344 C 178.117188 174.257812 178.632812 174.097656 179.171875 174.035156 C 179.4375 173.992188 179.707031 173.945312 179.976562 173.941406 L 180.382812 173.914062 L 180.6875 173.898438 L 180.738281 173.894531 L 180.851562 173.894531 C 181.726562 173.914062 182.996094 174.066406 183.972656 174.402344 C 184.980469 174.742188 185.929688 175.210938 186.746094 175.804688 C 187.554688 176.402344 188.269531 177.0625 188.8125 177.796875 C 189.101562 178.144531 189.320312 178.527344 189.546875 178.886719 C 189.75 179.257812 189.921875 179.628906 190.085938 179.980469 C 190.214844 180.351562 190.363281 180.6875 190.449219 181.03125 C 190.527344 181.378906 190.617188 181.695312 190.664062 182 C 190.703125 182.3125 190.742188 182.597656 190.765625 182.859375 C 190.769531 183.125 190.769531 183.371094 190.769531 183.589844 C 190.789062 184.027344 190.695312 184.367188 190.675781 184.597656 C 190.644531 184.824219 190.625 184.941406 190.625 184.941406 C 190.625 184.941406 190.59375 184.824219 190.539062 184.601562 C 190.476562 184.378906 190.425781 184.050781 190.28125 183.65625 C 190.21875 183.460938 190.148438 183.242188 190.070312 183.003906 C 189.964844 182.777344 189.867188 182.53125 189.761719 182.269531 C 189.519531 181.757812 189.207031 181.210938 188.839844 180.648438 C 188.441406 180.097656 187.984375 179.535156 187.429688 179.027344 C 186.894531 178.492188 186.238281 178.042969 185.554688 177.625 C 184.859375 177.214844 184.082031 176.921875 183.285156 176.679688 C 182.4375 176.46875 181.78125 176.371094 180.726562 176.34375 C 180.847656 176.351562 180.753906 176.347656 180.777344 176.347656 L 180.769531 176.347656 L 180.746094 176.351562 L 180.710938 176.351562 L 180.628906 176.355469 L 180.472656 176.363281 L 180.15625 176.375 C 179.941406 176.371094 179.734375 176.410156 179.523438 176.441406 C 179.105469 176.484375 178.699219 176.585938 178.289062 176.679688 C 177.496094 176.917969 176.714844 177.214844 176.019531 177.621094 C 175.335938 178.039062 174.675781 178.488281 174.144531 179.023438 C 173.585938 179.53125 173.132812 180.097656 172.734375 180.644531 C 172.367188 181.210938 172.054688 181.753906 171.8125 182.269531 C 171.707031 182.53125 171.609375 182.777344 171.507812 183.003906 C 171.429688 183.238281 171.359375 183.453125 171.292969 183.648438 C 171.152344 184.039062 171.101562 184.382812 171.039062 184.601562 C 170.980469 184.824219 170.953125 184.941406 170.953125 184.941406 " fill-opacity="1" fill-rule="nonzero"/><path fill="#754a43" d="M 188.664062 186.5625 C 188.664062 189.851562 185.992188 192.519531 182.695312 192.519531 C 179.398438 192.519531 176.722656 189.851562 176.722656 186.5625 C 176.722656 183.265625 179.398438 180.597656 182.695312 180.597656 C 185.992188 180.597656 188.664062 183.265625 188.664062 186.5625 " fill-opacity="1" fill-rule="nonzero"/><path fill="#32151a" d="M 188.664062 186.5625 L 188.324219 186.5625 C 188.324219 188.113281 187.691406 189.515625 186.675781 190.535156 C 185.652344 191.550781 184.25 192.179688 182.695312 192.179688 C 181.136719 192.179688 179.734375 191.550781 178.710938 190.535156 C 177.695312 189.515625 177.0625 188.113281 177.0625 186.5625 C 177.0625 185.007812 177.695312 183.601562 178.710938 182.585938 C 179.734375 181.570312 181.136719 180.941406 182.695312 180.941406 C 184.25 180.941406 185.652344 181.570312 186.675781 182.585938 C 187.691406 183.601562 188.324219 185.007812 188.324219 186.5625 L 189.007812 186.5625 C 189.007812 183.078125 186.179688 180.253906 182.695312 180.253906 C 179.207031 180.253906 176.378906 183.078125 176.378906 186.5625 C 176.378906 190.042969 179.207031 192.863281 182.695312 192.863281 C 186.183594 192.863281 189.007812 190.042969 189.007812 186.5625 L 188.664062 186.5625 " fill-opacity="1" fill-rule="nonzero"/><path fill="#1f1617" d="M 186.394531 186.910156 C 186.394531 188.300781 185.265625 189.429688 183.871094 189.429688 C 182.476562 189.429688 181.347656 188.300781 181.347656 186.910156 C 181.347656 185.515625 182.476562 184.386719 183.871094 184.386719 C 185.265625 184.386719 186.394531 185.515625 186.394531 186.910156 " fill-opacity="1" fill-rule="nonzero"/><path fill="#ffffff" d="M 182.519531 184.386719 C 182.519531 185.335938 181.75 186.105469 180.800781 186.105469 C 179.851562 186.105469 179.082031 185.335938 179.082031 184.386719 C 179.082031 183.441406 179.851562 182.671875 180.800781 182.671875 C 181.75 182.671875 182.519531 183.441406 182.519531 184.386719 " fill-opacity="1" fill-rule="nonzero"/><path fill="#ffffff" d="M 218.15625 184.941406 C 218.15625 190.367188 213.75 194.765625 208.320312 194.765625 C 202.886719 194.765625 198.484375 190.367188 198.484375 184.941406 C 198.484375 179.519531 202.886719 175.121094 208.320312 175.121094 C 213.75 175.121094 218.15625 179.519531 218.15625 184.941406 " fill-opacity="1" fill-rule="nonzero"/><path fill="#a9dfe3" d="M 208.320312 178.535156 C 213.164062 178.535156 217.1875 182.046875 217.996094 186.652344 C 218.097656 186.09375 218.15625 185.527344 218.15625 184.941406 C 218.15625 179.519531 213.75 175.121094 208.320312 175.121094 C 202.886719 175.121094 198.484375 179.519531 198.484375 184.941406 C 198.484375 185.527344 198.542969 186.09375 198.640625 186.652344 C 199.453125 182.046875 203.472656 178.535156 208.320312 178.535156 " fill-opacity="1" fill-rule="nonzero"/><path fill="#1f1617" d="M 198.484375 184.941406 C 198.484375 184.941406 198.488281 184.824219 198.492188 184.597656 C 198.511719 184.371094 198.480469 184.039062 198.550781 183.621094 C 198.574219 183.40625 198.597656 183.175781 198.628906 182.921875 C 198.679688 182.667969 198.734375 182.398438 198.796875 182.109375 C 198.863281 181.816406 198.960938 181.515625 199.054688 181.195312 C 199.15625 180.871094 199.304688 180.550781 199.441406 180.203125 C 199.609375 179.878906 199.769531 179.523438 199.96875 179.167969 C 200.183594 178.828125 200.386719 178.457031 200.652344 178.113281 C 201.148438 177.394531 201.785156 176.703125 202.527344 176.050781 C 203.269531 175.40625 204.171875 174.875 205.15625 174.472656 C 206.148438 174.085938 207.234375 173.910156 208.320312 173.894531 C 208.9375 173.9375 209.273438 173.929688 209.898438 174.066406 C 210.472656 174.164062 210.96875 174.347656 211.464844 174.535156 C 212.433594 174.96875 213.308594 175.523438 214.027344 176.1875 C 214.742188 176.851562 215.359375 177.53125 215.84375 178.238281 C 216.351562 178.925781 216.746094 179.621094 217.085938 180.265625 C 217.230469 180.601562 217.390625 180.914062 217.503906 181.222656 C 217.605469 181.542969 217.722656 181.835938 217.792969 182.121094 C 217.859375 182.410156 217.921875 182.675781 217.980469 182.925781 C 218.015625 183.179688 218.042969 183.410156 218.070312 183.621094 C 218.148438 184.039062 218.125 184.375 218.140625 184.597656 C 218.152344 184.824219 218.15625 184.941406 218.15625 184.941406 C 218.15625 184.941406 218.148438 184.824219 218.132812 184.597656 C 218.109375 184.375 218.128906 184.039062 218.042969 183.625 C 218.003906 183.417969 217.960938 183.1875 217.917969 182.941406 C 217.847656 182.695312 217.773438 182.433594 217.691406 182.152344 C 217.609375 181.871094 217.476562 181.589844 217.363281 181.285156 C 217.234375 180.980469 217.058594 180.683594 216.902344 180.363281 C 216.53125 179.753906 216.078125 179.113281 215.460938 178.582031 C 214.867188 178.023438 214.113281 177.59375 213.335938 177.246094 C 212.546875 176.902344 211.695312 176.699219 210.859375 176.546875 C 210.429688 176.496094 210.003906 176.417969 209.621094 176.40625 C 209.425781 176.390625 209.242188 176.363281 208.980469 176.367188 L 208.320312 176.347656 C 207.472656 176.378906 206.632812 176.449219 205.800781 176.609375 C 204.980469 176.792969 204.152344 177.019531 203.390625 177.375 C 202.636719 177.742188 201.902344 178.164062 201.324219 178.710938 C 200.710938 179.226562 200.242188 179.835938 199.847656 180.421875 C 199.484375 181.03125 199.195312 181.617188 198.992188 182.164062 C 198.90625 182.445312 198.828125 182.703125 198.753906 182.945312 C 198.703125 183.195312 198.65625 183.421875 198.613281 183.628906 C 198.519531 184.039062 198.53125 184.375 198.503906 184.597656 C 198.492188 184.824219 198.484375 184.941406 198.484375 184.941406 " fill-opacity="1" fill-rule="nonzero"/><path fill="#754a43" d="M 216.496094 186.5625 C 216.496094 189.851562 213.824219 192.519531 210.527344 192.519531 C 207.230469 192.519531 204.554688 189.851562 204.554688 186.5625 C 204.554688 183.265625 207.230469 180.597656 210.527344 180.597656 C 213.824219 180.597656 216.496094 183.265625 216.496094 186.5625 " fill-opacity="1" fill-rule="nonzero"/><path fill="#32151a" d="M 216.496094 186.5625 L 216.15625 186.5625 C 216.15625 188.113281 215.527344 189.515625 214.507812 190.535156 C 213.488281 191.550781 212.082031 192.179688 210.527344 192.179688 C 208.96875 192.179688 207.566406 191.550781 206.546875 190.535156 C 205.527344 189.515625 204.898438 188.113281 204.898438 186.5625 C 204.898438 185.007812 205.527344 183.601562 206.546875 182.585938 C 207.566406 181.570312 208.96875 180.941406 210.527344 180.941406 C 212.082031 180.941406 213.488281 181.570312 214.507812 182.585938 C 215.527344 183.601562 216.15625 185.007812 216.15625 186.5625 L 216.839844 186.5625 C 216.839844 183.078125 214.015625 180.253906 210.527344 180.253906 C 207.039062 180.253906 204.214844 183.078125 204.214844 186.5625 C 204.214844 190.042969 207.039062 192.863281 210.527344 192.863281 C 214.015625 192.863281 216.839844 190.042969 216.839844 186.5625 L 216.496094 186.5625 " fill-opacity="1" fill-rule="nonzero"/><path fill="#1f1617" d="M 213.050781 186.910156 C 213.050781 188.300781 211.921875 189.429688 210.527344 189.429688 C 209.132812 189.429688 208.003906 188.300781 208.003906 186.910156 C 208.003906 185.515625 209.132812 184.386719 210.527344 184.386719 C 211.921875 184.386719 213.050781 185.515625 213.050781 186.910156 " fill-opacity="1" fill-rule="nonzero"/><path fill="#ffffff" d="M 214.441406 184.386719 C 214.441406 185.335938 213.667969 186.105469 212.722656 186.105469 C 211.769531 186.105469 211 185.335938 211 184.386719 C 211 183.441406 211.769531 182.671875 212.722656 182.671875 C 213.667969 182.671875 214.441406 183.441406 214.441406 184.386719 " fill-opacity="1" fill-rule="nonzero"/><path fill="#1f1617" d="M 200.625 165.726562 C 200.625 165.726562 200.65625 165.640625 200.738281 165.476562 C 200.816406 165.304688 200.949219 165.074219 201.140625 164.804688 C 201.320312 164.519531 201.582031 164.230469 201.890625 163.886719 C 202.214844 163.574219 202.589844 163.210938 203.058594 162.910156 C 203.285156 162.75 203.527344 162.585938 203.792969 162.433594 C 204.0625 162.304688 204.339844 162.15625 204.640625 162.023438 C 204.925781 161.875 205.25 161.785156 205.574219 161.6875 C 205.90625 161.601562 206.238281 161.488281 206.597656 161.464844 C 207.308594 161.386719 208.046875 161.375 208.792969 161.503906 C 209.539062 161.566406 210.269531 161.777344 210.996094 161.933594 C 211.363281 161.996094 211.710938 162.140625 212.058594 162.261719 C 212.402344 162.386719 212.742188 162.511719 213.082031 162.632812 C 213.730469 162.949219 214.34375 163.296875 214.925781 163.628906 C 215.464844 164.027344 215.984375 164.40625 216.460938 164.773438 C 216.921875 165.164062 217.300781 165.585938 217.671875 165.945312 C 218.050781 166.308594 218.371094 166.648438 218.609375 166.992188 C 218.859375 167.324219 219.078125 167.617188 219.261719 167.851562 C 219.613281 168.328125 219.8125 168.597656 219.8125 168.597656 L 219.539062 168.839844 C 219.539062 168.839844 219.273438 168.648438 218.800781 168.304688 C 218.566406 168.132812 218.285156 167.925781 217.964844 167.6875 C 217.800781 167.574219 217.644531 167.4375 217.453125 167.324219 C 217.261719 167.214844 217.058594 167.09375 216.847656 166.976562 C 216.425781 166.738281 215.992188 166.445312 215.503906 166.210938 C 215.011719 165.996094 214.492188 165.769531 213.953125 165.539062 C 213.410156 165.378906 212.84375 165.214844 212.265625 165.046875 C 211.976562 165 211.683594 164.957031 211.390625 164.910156 C 211.097656 164.867188 210.8125 164.796875 210.515625 164.808594 C 209.925781 164.800781 209.347656 164.789062 208.78125 164.917969 C 208.222656 164.984375 207.6875 165.148438 207.164062 165.21875 C 206.898438 165.234375 206.648438 165.320312 206.386719 165.339844 C 206.132812 165.375 205.875 165.375 205.628906 165.421875 C 205.117188 165.488281 204.632812 165.550781 204.1875 165.609375 C 203.214844 165.734375 202.40625 165.835938 201.835938 165.90625 C 201.535156 165.945312 201.292969 165.96875 201.121094 165.988281 C 200.945312 165.996094 200.851562 166.015625 200.851562 166.015625 L 200.625 165.726562 " fill-opacity="1" fill-rule="nonzero"/><path fill="#1f1617" d="M 187.699219 165.992188 C 187.699219 165.988281 187.617188 165.96875 187.464844 165.945312 C 187.316406 165.925781 187.113281 165.886719 186.855469 165.835938 C 186.601562 165.78125 186.289062 165.730469 185.964844 165.652344 C 185.621094 165.609375 185.273438 165.503906 184.882812 165.449219 C 184.503906 165.367188 184.101562 165.308594 183.695312 165.230469 C 183.496094 165.179688 183.28125 165.179688 183.078125 165.136719 C 182.871094 165.113281 182.667969 165.035156 182.457031 165.023438 C 182.25 164.980469 182.035156 164.945312 181.820312 164.875 C 181.605469 164.828125 181.386719 164.800781 181.160156 164.753906 C 180.703125 164.625 180.238281 164.691406 179.753906 164.683594 C 179.515625 164.710938 179.28125 164.78125 179.042969 164.820312 C 178.808594 164.882812 178.550781 164.890625 178.332031 164.996094 C 178.101562 165.082031 177.871094 165.175781 177.640625 165.257812 C 177.40625 165.339844 177.167969 165.40625 176.960938 165.539062 C 176.523438 165.777344 176.101562 166.007812 175.703125 166.226562 C 175.320312 166.5 174.960938 166.757812 174.628906 166.992188 C 174.460938 167.113281 174.289062 167.222656 174.144531 167.34375 C 174.003906 167.472656 173.875 167.59375 173.746094 167.707031 C 173.5 167.9375 173.277344 168.136719 173.089844 168.300781 C 172.714844 168.628906 172.5 168.816406 172.5 168.816406 L 172.234375 168.621094 C 172.234375 168.621094 172.378906 168.375 172.632812 167.9375 C 172.757812 167.714844 172.917969 167.453125 173.105469 167.148438 C 173.199219 167 173.300781 166.839844 173.40625 166.664062 C 173.519531 166.5 173.65625 166.34375 173.792969 166.167969 C 174.074219 165.816406 174.378906 165.441406 174.699219 165.039062 C 175.054688 164.667969 175.480469 164.3125 175.90625 163.917969 C 176.332031 163.53125 176.875 163.234375 177.394531 162.890625 C 177.652344 162.710938 177.96875 162.625 178.257812 162.484375 C 178.554688 162.359375 178.851562 162.214844 179.164062 162.117188 C 179.800781 161.976562 180.441406 161.71875 181.105469 161.671875 C 181.433594 161.632812 181.769531 161.566406 182.097656 161.574219 C 182.421875 161.574219 182.746094 161.617188 183.0625 161.648438 C 183.382812 161.675781 183.671875 161.785156 183.960938 161.878906 C 184.246094 161.980469 184.527344 162.074219 184.773438 162.222656 C 185.027344 162.351562 185.261719 162.5 185.488281 162.632812 C 185.707031 162.785156 185.910156 162.945312 186.09375 163.101562 C 186.480469 163.394531 186.769531 163.75 187.019531 164.042969 C 187.257812 164.371094 187.453125 164.640625 187.582031 164.90625 C 187.714844 165.15625 187.808594 165.367188 187.855469 165.523438 C 187.910156 165.671875 187.925781 165.75 187.925781 165.75 L 187.699219 165.992188 " fill-opacity="1" fill-rule="nonzero"/><path fill="#c5ba93" d="M 235.796875 287.640625 C 235.796875 287.640625 231.691406 289.386719 231.386719 286.351562 C 231.085938 283.3125 235.175781 278.496094 236.402344 277.828125 C 236.402344 277.828125 234.578125 273.285156 234.886719 271.539062 C 235.191406 269.792969 239.839844 270.277344 239.839844 270.277344 C 239.839844 270.277344 240.742188 278.804688 240.820312 278.96875 C 240.894531 279.132812 235.796875 287.640625 235.796875 287.640625 " fill-opacity="1" fill-rule="nonzero"/><path fill="#181316" d="M 229.71875 204.929688 C 229.71875 204.929688 229.777344 204.984375 229.890625 205.09375 C 229.957031 205.160156 230.039062 205.242188 230.136719 205.339844 C 230.214844 205.421875 230.308594 205.519531 230.414062 205.628906 C 230.824219 206.074219 231.390625 206.703125 232.070312 207.507812 C 233.429688 209.117188 235.195312 211.488281 237.035156 214.460938 C 237.9375 215.960938 238.882812 217.59375 239.738281 219.390625 C 240.617188 221.171875 241.457031 223.089844 242.167969 225.128906 C 242.925781 227.144531 243.515625 229.296875 244.027344 231.480469 C 244.246094 232.585938 244.515625 233.683594 244.65625 234.8125 L 244.910156 236.492188 L 245.066406 238.1875 C 245.273438 240.449219 245.277344 242.710938 245.210938 244.925781 C 245.152344 246.03125 245.046875 247.125 244.964844 248.203125 C 244.816406 249.273438 244.675781 250.328125 244.53125 251.367188 C 244.332031 252.394531 244.136719 253.40625 243.945312 254.390625 C 243.726562 255.375 243.453125 256.316406 243.226562 257.242188 C 243.015625 258.175781 242.695312 259.046875 242.4375 259.90625 C 242.164062 260.761719 241.925781 261.589844 241.609375 262.359375 C 241.320312 263.136719 241.046875 263.878906 240.785156 264.585938 C 240.535156 265.300781 240.214844 265.941406 239.957031 266.5625 C 239.421875 267.792969 238.96875 268.875 238.515625 269.722656 C 237.675781 271.453125 237.195312 272.441406 237.195312 272.441406 L 235.421875 271.542969 C 235.421875 271.542969 235.878906 270.574219 236.671875 268.875 C 237.082031 268.027344 237.480469 266.964844 237.957031 265.75 C 238.460938 264.546875 238.90625 263.148438 239.398438 261.625 C 239.65625 260.871094 239.847656 260.058594 240.058594 259.226562 C 240.261719 258.386719 240.523438 257.535156 240.671875 256.636719 C 240.835938 255.738281 241.027344 254.820312 241.167969 253.878906 C 241.285156 252.929688 241.402344 251.964844 241.523438 250.984375 C 241.585938 249.996094 241.640625 248.996094 241.703125 247.980469 C 241.691406 246.964844 241.703125 245.941406 241.675781 244.914062 C 241.59375 243.882812 241.574219 242.847656 241.441406 241.816406 C 241.300781 240.785156 241.199219 239.75 240.976562 238.734375 L 240.683594 237.207031 L 240.300781 235.703125 C 240.078125 234.695312 239.730469 233.726562 239.4375 232.757812 C 238.753906 230.84375 238.003906 228.996094 237.117188 227.285156 C 236.257812 225.566406 235.269531 223.988281 234.289062 222.539062 C 233.300781 221.089844 232.25 219.808594 231.265625 218.652344 C 230.238281 217.527344 229.292969 216.519531 228.378906 215.699219 C 227.472656 214.878906 226.664062 214.195312 225.984375 213.675781 C 225.316406 213.140625 224.765625 212.773438 224.410156 212.546875 C 224.320312 212.492188 224.242188 212.441406 224.175781 212.398438 L 224.046875 212.332031 L 223.90625 212.25 L 229.71875 204.929688 " fill-opacity="1" fill-rule="nonzero"/><path fill="#a5bdbc" d="M 232.335938 262.324219 C 232.648438 260.199219 234.628906 258.734375 236.761719 259.042969 L 244.199219 260.144531 C 246.328125 260.460938 247.796875 262.4375 247.480469 264.5625 C 247.167969 266.6875 245.1875 268.15625 243.058594 267.84375 L 235.621094 266.738281 C 233.492188 266.429688 232.023438 264.449219 232.335938 262.324219 " fill-opacity="1" fill-rule="nonzero"/><path fill="#ac6854" d="M 232.3125 263.277344 C 232.3125 263.277344 232.3125 263.277344 232.3125 263.273438 C 232.3125 263.277344 232.3125 263.277344 232.3125 263.277344 M 232.3125 263.265625 C 232.3125 263.265625 232.308594 263.257812 232.308594 263.257812 C 232.308594 263.261719 232.3125 263.265625 232.3125 263.265625 M 232.308594 263.257812 C 232.308594 263.25 232.308594 263.246094 232.308594 263.246094 C 232.308594 263.246094 232.308594 263.25 232.308594 263.257812 M 232.308594 263.242188 C 232.28125 262.953125 232.289062 262.652344 232.335938 262.347656 C 232.289062 262.652344 232.28125 262.953125 232.308594 263.242188 M 232.335938 262.347656 C 232.335938 262.34375 232.335938 262.339844 232.335938 262.335938 C 232.335938 262.339844 232.335938 262.34375 232.335938 262.347656 " fill-opacity="1" fill-rule="nonzero"/><path fill="#bbb3a1" d="M 245.050781 267.609375 C 245.050781 267.609375 235.824219 264.976562 232.832031 264.863281 C 232.554688 264.394531 232.375 263.863281 232.316406 263.304688 C 232.316406 263.296875 232.3125 263.289062 232.3125 263.277344 C 232.3125 263.277344 232.3125 263.277344 232.3125 263.273438 C 232.3125 263.269531 232.3125 263.269531 232.3125 263.265625 C 232.3125 263.265625 232.308594 263.261719 232.308594 263.257812 C 232.308594 263.25 232.308594 263.246094 232.308594 263.246094 L 232.308594 263.242188 C 232.28125 262.953125 232.289062 262.652344 232.335938 262.347656 C 232.335938 262.34375 232.335938 262.339844 232.335938 262.335938 C 232.335938 262.332031 232.335938 262.328125 232.335938 262.324219 C 232.382812 262.003906 232.472656 261.707031 232.589844 261.421875 C 235.421875 261.441406 238.710938 263.265625 238.710938 263.265625 C 239.363281 263.222656 239.976562 263.203125 240.546875 263.203125 C 244.65625 263.203125 246.535156 264.207031 247.382812 265.023438 C 247.050781 266.230469 246.167969 267.171875 245.050781 267.609375 " fill-opacity="1" fill-rule="nonzero"/><path fill="#ffffff" d="M 233.765625 260.9375 C 233.765625 260.9375 234.542969 259.769531 235.992188 259.710938 C 237.441406 259.648438 243.835938 260.6875 244.078125 260.90625 C 244.078125 260.90625 240.953125 260.78125 239.125 261.558594 C 237.296875 262.339844 233.765625 260.9375 233.765625 260.9375 " fill-opacity="1" fill-rule="nonzero"/><path fill="#a5bdbc" d="M 232.832031 264.863281 C 232.832031 264.863281 229.757812 267.425781 230.074219 271.867188 C 230.074219 271.867188 225.929688 279.339844 228.105469 281.210938 C 228.105469 281.210938 231.359375 281.808594 232.980469 276.308594 C 234.601562 270.804688 236.363281 271.625 237.074219 271.667969 C 237.074219 271.667969 239.660156 275.378906 238.921875 278.648438 C 238.921875 278.648438 232.402344 288.34375 234.484375 290.445312 C 236.566406 292.546875 244.332031 284.707031 245.332031 279.675781 C 246.398438 274.296875 246.386719 271.191406 245.050781 267.609375 C 245.050781 267.609375 235.824219 264.976562 232.832031 264.863281 " fill-opacity="1" fill-rule="nonzero"/><path fill="#ffffff" d="M 243.675781 281.625 C 242.859375 282.734375 237.632812 289.050781 234.214844 290.011719 C 234.277344 290.179688 234.363281 290.328125 234.484375 290.445312 C 236.566406 292.546875 244.332031 284.707031 245.332031 279.675781 C 246.128906 275.65625 246.324219 272.902344 245.808594 270.277344 C 245.355469 273.679688 244.34375 280.714844 243.675781 281.625 " fill-opacity="1" fill-rule="nonzero"/><path fill="#bbb3a1" d="M 228.382812 281.230469 C 228.207031 281.230469 228.105469 281.210938 228.105469 281.210938 C 227.652344 280.824219 227.472656 280.191406 227.472656 279.433594 C 227.472656 276.554688 230.074219 271.867188 230.074219 271.867188 C 230.054688 271.648438 230.050781 271.4375 230.050781 271.226562 C 230.050781 267.179688 232.832031 264.863281 232.832031 264.863281 C 235.824219 264.976562 245.050781 267.609375 245.050781 267.609375 C 245.152344 267.882812 245.242188 268.148438 245.328125 268.414062 C 242.441406 267.644531 233.839844 266.492188 233.839844 266.492188 C 231.917969 266.929688 231.863281 272.132812 231.863281 272.132812 C 231.863281 272.132812 230.9375 275.074219 229.597656 277.550781 C 228.890625 278.847656 230 279.484375 231.203125 279.796875 C 230.074219 281.070312 228.902344 281.230469 228.382812 281.230469 " fill-opacity="1" fill-rule="nonzero"/><path fill="#ac6854" d="M 234.46875 272.835938 C 234.601562 272.640625 234.734375 272.480469 234.863281 272.339844 C 234.734375 272.480469 234.601562 272.644531 234.46875 272.835938 " fill-opacity="1" fill-rule="nonzero"/><path fill="#c9b291" d="M 234.863281 272.339844 C 235.175781 272.003906 235.476562 271.8125 235.753906 271.710938 C 235.476562 271.8125 235.175781 272.003906 234.863281 272.339844 " fill-opacity="1" fill-rule="nonzero"/><path fill="#6d5751" d="M 237.355469 272.113281 C 237.183594 271.828125 237.074219 271.667969 237.074219 271.667969 C 236.898438 271.65625 236.667969 271.601562 236.386719 271.601562 C 236.195312 271.601562 235.980469 271.628906 235.753906 271.710938 C 235.980469 271.628906 236.191406 271.601562 236.382812 271.601562 C 236.664062 271.601562 236.898438 271.65625 237.074219 271.667969 C 237.074219 271.667969 237.183594 271.828125 237.355469 272.113281 " fill-opacity="1" fill-rule="nonzero"/><path fill="#bbb3a1" d="M 234.164062 288.339844 C 234.804688 284.789062 238.878906 278.707031 238.921875 278.648438 C 239.011719 278.238281 239.054688 277.824219 239.054688 277.410156 C 239.054688 275.199219 237.902344 273.019531 237.355469 272.113281 C 237.183594 271.828125 237.074219 271.667969 237.074219 271.667969 C 236.898438 271.65625 236.664062 271.601562 236.382812 271.601562 C 236.191406 271.601562 235.980469 271.628906 235.753906 271.710938 C 235.476562 271.8125 235.175781 272.003906 234.863281 272.339844 C 234.734375 272.480469 234.601562 272.640625 234.46875 272.835938 C 234.683594 271.664062 235.328125 270.15625 237.203125 269.597656 C 237.203125 269.597656 240.316406 273.082031 240.414062 277.808594 C 240.414062 277.808594 236.332031 284.304688 234.164062 288.339844 " fill-opacity="1" fill-rule="nonzero"/><path fill="#1f1617" d="M 193.027344 214.605469 C 192.960938 214.609375 192.890625 214.609375 192.820312 214.609375 C 189.152344 214.609375 182.988281 211.796875 180.769531 205.550781 C 180.214844 203.988281 180.207031 202.808594 180.746094 202.042969 C 181.171875 201.441406 181.917969 201.125 182.90625 201.125 C 183.695312 201.125 184.378906 201.324219 184.410156 201.332031 C 186.777344 202.394531 188.902344 202.519531 190.960938 202.636719 C 191.691406 202.679688 192.378906 202.71875 193.066406 202.796875 C 193.746094 202.71875 194.433594 202.679688 195.160156 202.636719 C 197.214844 202.519531 199.335938 202.394531 201.644531 201.355469 C 201.730469 201.324219 202.414062 201.125 203.203125 201.125 C 204.191406 201.125 204.941406 201.441406 205.363281 202.042969 C 205.90625 202.808594 205.898438 203.988281 205.339844 205.550781 C 203.121094 211.796875 196.960938 214.609375 193.289062 214.609375 C 193.222656 214.609375 193.027344 214.605469 193.027344 214.605469 " fill-opacity="1" fill-rule="nonzero"/><path fill="#1f1617" d="M 203.203125 200.671875 C 202.363281 200.671875 201.652344 200.871094 201.570312 200.894531 L 201.511719 200.914062 L 201.457031 200.9375 C 199.222656 201.945312 197.144531 202.066406 195.136719 202.179688 C 194.421875 202.222656 193.742188 202.261719 193.066406 202.339844 C 192.386719 202.261719 191.707031 202.222656 190.988281 202.179688 C 188.972656 202.066406 186.886719 201.945312 184.65625 200.9375 L 184.597656 200.914062 L 184.539062 200.894531 C 184.457031 200.871094 183.746094 200.671875 182.90625 200.671875 C 181.464844 200.671875 180.734375 201.273438 180.375 201.78125 C 179.734375 202.683594 179.722656 203.96875 180.339844 205.699219 C 182.632812 212.160156 189.019531 215.066406 192.820312 215.066406 C 192.890625 215.066406 192.964844 215.0625 193.03125 215.058594 L 193.042969 215.0625 L 193.082031 215.0625 C 193.148438 215.0625 193.222656 215.066406 193.289062 215.066406 C 197.089844 215.066406 203.476562 212.160156 205.769531 205.699219 C 206.386719 203.96875 206.375 202.683594 205.738281 201.78125 C 205.378906 201.273438 204.648438 200.671875 203.203125 200.671875 M 203.203125 201.582031 C 204.492188 201.582031 206.058594 202.164062 204.910156 205.398438 C 202.699219 211.617188 196.636719 214.152344 193.289062 214.152344 C 193.21875 214.152344 193.148438 214.152344 193.078125 214.148438 L 193.070312 214.152344 L 193.054688 214.148438 L 193.042969 214.152344 L 193.035156 214.148438 C 192.964844 214.152344 192.894531 214.152344 192.820312 214.152344 C 189.476562 214.152344 183.410156 211.617188 181.199219 205.398438 C 180.050781 202.164062 181.621094 201.582031 182.90625 201.582031 C 183.640625 201.582031 184.28125 201.769531 184.28125 201.769531 C 187.519531 203.230469 190.453125 202.945312 193.066406 203.257812 C 195.671875 202.945312 198.59375 203.230469 201.832031 201.769531 C 201.832031 201.769531 202.472656 201.582031 203.203125 201.582031 " fill-opacity="1" fill-rule="nonzero"/><path fill="#ffffff" d="M 202.421875 201.644531 C 202.070312 201.699219 201.832031 201.769531 201.832031 201.769531 C 198.59375 203.230469 195.671875 202.945312 193.066406 203.257812 C 190.453125 202.945312 187.519531 203.230469 184.28125 201.769531 C 184.28125 201.769531 183.847656 201.640625 183.289062 201.597656 C 183.125 202.351562 182.972656 203.996094 184.261719 205.316406 C 185.992188 207.097656 197.023438 209.144531 201.25 205.316406 C 201.25 205.316406 202.628906 204.457031 202.421875 201.644531 " fill-opacity="1" fill-rule="nonzero"/><path fill="#ef2b44" d="M 193.0625 210.011719 C 188.210938 208.960938 186.230469 210.121094 185.421875 211.265625 C 188.027344 213.335938 191.0625 214.214844 193.035156 214.148438 L 193.078125 214.148438 C 195.050781 214.214844 198.09375 213.332031 200.703125 211.253906 C 199.890625 210.117188 197.90625 208.964844 193.0625 210.011719 " fill-opacity="1" fill-rule="nonzero"/><path fill="#d8283c" d="M 198.730469 209.914062 C 199.460938 210.609375 199.355469 211.089844 199.355469 211.089844 C 194.816406 214.582031 186.699219 211.519531 186.34375 211.089844 C 186.167969 210.875 186.421875 210.503906 186.71875 210.1875 C 186.109375 210.488281 185.691406 210.878906 185.421875 211.265625 C 188.027344 213.335938 191.0625 214.214844 193.035156 214.148438 L 193.078125 214.148438 C 195.050781 214.214844 198.09375 213.332031 200.703125 211.253906 C 200.335938 210.742188 199.726562 210.230469 198.730469 209.914062 " fill-opacity="1" fill-rule="nonzero"/><path fill="#bed1cf" d="M 193.234375 204.996094 C 190.34375 204.996094 186.9375 204.359375 183.183594 202.484375 C 183.191406 202.128906 183.238281 201.824219 183.289062 201.597656 C 183.847656 201.640625 184.28125 201.769531 184.28125 201.769531 C 187.519531 203.230469 190.453125 202.945312 193.066406 203.257812 C 195.671875 202.945312 198.59375 203.230469 201.832031 201.769531 C 201.832031 201.769531 202.070312 201.699219 202.421875 201.644531 C 202.449219 202.007812 202.449219 202.335938 202.429688 202.632812 C 201.148438 203.382812 197.847656 204.996094 193.234375 204.996094 " fill-opacity="1" fill-rule="nonzero"/><path fill="#e45b73" d="M 197.234375 209.632812 C 196.15625 209.546875 194.796875 209.636719 193.0625 210.011719 C 191.210938 209.609375 189.777344 209.535156 188.664062 209.65625 C 189.941406 209.753906 191.976562 210.035156 193.054688 210.855469 C 193.054688 210.855469 195.15625 210.019531 197.234375 209.632812 " fill-opacity="1" fill-rule="nonzero"/><g clip-path="url(#79b9b2ae9d)"><path fill="#3873ac" d="M 226.335938 354.109375 C 226.335938 354.109375 242.777344 368.15625 244 370.53125 C 245.285156 373.035156 242.921875 374.78125 240.414062 374.261719 C 237.855469 373.734375 220.242188 368.015625 217.277344 363.316406 C 217.277344 363.316406 215.582031 356.105469 217.183594 354 L 226.335938 354.109375 " fill-opacity="1" fill-rule="nonzero"/><path fill="#346594" d="M 217.277344 363.316406 C 217.277344 363.316406 215.582031 356.105469 217.183594 354 L 224.726562 354.089844 C 225.417969 354.308594 225.820312 354.621094 225.742188 355.058594 C 225.335938 357.273438 219.375 357.910156 219.375 357.910156 C 219.375 357.910156 218.980469 360.371094 220.6875 362.839844 C 222.398438 365.304688 241.105469 371.363281 242.34375 370.605469 C 242.769531 370.347656 242.617188 369.480469 242.234375 368.457031 C 243.15625 369.398438 243.792969 370.132812 244 370.53125 C 245.285156 373.035156 242.921875 374.78125 240.414062 374.261719 C 237.855469 373.734375 220.242188 368.015625 217.277344 363.316406 " fill-opacity="1" fill-rule="nonzero"/></g><path fill="#a2bbc9" d="M 216.269531 352.792969 C 216.359375 354.757812 218.882812 356.238281 221.898438 356.101562 C 224.917969 355.957031 227.285156 354.246094 227.195312 352.28125 C 227.101562 350.3125 224.582031 348.832031 221.5625 348.972656 C 218.546875 349.113281 216.175781 350.824219 216.269531 352.792969 " fill-opacity="1" fill-rule="nonzero"/><path fill="#a9c0bd" d="M 216.277344 352.910156 C 216.277344 352.910156 216.277344 352.910156 216.277344 352.90625 C 216.277344 352.910156 216.277344 352.910156 216.277344 352.910156 M 216.277344 352.886719 L 216.277344 352.886719 M 216.277344 352.875 C 216.277344 352.875 216.277344 352.875 216.277344 352.871094 C 216.277344 352.875 216.277344 352.875 216.277344 352.875 M 216.273438 352.867188 C 216.273438 352.863281 216.273438 352.863281 216.273438 352.859375 C 216.273438 352.863281 216.273438 352.863281 216.273438 352.867188 M 216.273438 352.855469 C 216.273438 352.855469 216.273438 352.851562 216.273438 352.847656 C 216.273438 352.851562 216.273438 352.855469 216.273438 352.855469 M 216.273438 352.84375 C 216.273438 352.839844 216.273438 352.839844 216.273438 352.839844 C 216.273438 352.839844 216.273438 352.84375 216.273438 352.84375 M 216.273438 352.832031 C 216.273438 352.832031 216.273438 352.832031 216.273438 352.828125 C 216.273438 352.832031 216.273438 352.832031 216.273438 352.832031 M 216.269531 352.824219 C 216.269531 352.820312 216.269531 352.816406 216.269531 352.8125 C 216.269531 352.816406 216.269531 352.820312 216.269531 352.824219 M 216.269531 352.8125 C 216.269531 352.808594 216.269531 352.808594 216.269531 352.804688 C 216.269531 352.808594 216.269531 352.808594 216.269531 352.8125 M 216.269531 352.804688 C 216.269531 352.796875 216.269531 352.792969 216.269531 352.792969 C 216.269531 352.789062 216.269531 352.785156 216.269531 352.785156 C 216.269531 352.785156 216.269531 352.789062 216.269531 352.792969 C 216.269531 352.792969 216.269531 352.796875 216.269531 352.804688 M 216.269531 352.777344 C 216.269531 352.777344 216.269531 352.777344 216.269531 352.773438 C 216.269531 352.777344 216.269531 352.777344 216.269531 352.777344 " fill-opacity="1" fill-rule="nonzero"/><path fill="#85aaae" d="M 219.210938 355.769531 C 217.566406 355.253906 216.402344 354.191406 216.277344 352.910156 C 216.277344 352.910156 216.277344 352.910156 216.277344 352.90625 C 216.277344 352.902344 216.277344 352.898438 216.277344 352.894531 C 216.277344 352.890625 216.277344 352.890625 216.277344 352.886719 C 216.277344 352.882812 216.277344 352.878906 216.277344 352.875 C 216.277344 352.875 216.277344 352.875 216.277344 352.871094 C 216.277344 352.867188 216.277344 352.867188 216.273438 352.867188 C 216.273438 352.863281 216.273438 352.863281 216.273438 352.859375 C 216.273438 352.859375 216.273438 352.859375 216.273438 352.855469 C 216.273438 352.855469 216.273438 352.851562 216.273438 352.847656 C 216.273438 352.847656 216.273438 352.847656 216.273438 352.84375 C 216.273438 352.84375 216.273438 352.839844 216.273438 352.839844 C 216.273438 352.835938 216.273438 352.835938 216.273438 352.832031 C 216.273438 352.832031 216.273438 352.832031 216.273438 352.828125 C 216.269531 352.824219 216.269531 352.824219 216.269531 352.824219 C 216.269531 352.820312 216.269531 352.816406 216.269531 352.8125 C 216.269531 352.808594 216.269531 352.808594 216.269531 352.804688 C 216.269531 352.796875 216.269531 352.792969 216.269531 352.792969 C 216.269531 352.789062 216.269531 352.785156 216.269531 352.785156 C 216.269531 352.78125 216.269531 352.777344 216.269531 352.777344 C 216.269531 352.777344 216.269531 352.777344 216.269531 352.773438 C 216.210938 351.296875 217.535156 349.96875 219.476562 349.34375 L 224.542969 349.402344 C 226.03125 349.949219 227.0625 350.960938 227.179688 352.167969 C 225.933594 352.914062 223.421875 354.183594 220.664062 354.183594 C 219.992188 354.183594 219.304688 354.109375 218.617188 353.929688 C 218.617188 353.929688 218.558594 354.761719 219.210938 355.769531 " fill-opacity="1" fill-rule="nonzero"/><path fill="#a2bbc9" d="M 215.789062 349.003906 C 215.882812 351.082031 218.546875 352.644531 221.730469 352.492188 C 224.914062 352.347656 227.414062 350.539062 227.320312 348.460938 C 227.21875 346.386719 224.5625 344.824219 221.375 344.972656 C 218.191406 345.117188 215.691406 346.925781 215.789062 349.003906 " fill-opacity="1" fill-rule="nonzero"/><path fill="#ffffff" d="M 215.953125 347.988281 C 216.554688 346.367188 218.726562 345.097656 221.375 344.972656 C 223.878906 344.851562 226.054688 345.800781 226.917969 347.214844 C 224.730469 346.53125 219.734375 345.417969 215.953125 347.988281 " fill-opacity="1" fill-rule="nonzero"/><path fill="#181316" d="M 225.703125 299.429688 L 222.75 348.761719 L 220.355469 348.703125 L 219.667969 299.285156 L 225.703125 299.429688 " fill-opacity="1" fill-rule="nonzero"/><path fill="#a2bbc9" d="M 226.007812 361.539062 C 226.1875 361.53125 226.363281 361.441406 226.464844 361.273438 C 229.035156 357.246094 232.5625 358.585938 232.710938 358.644531 C 233.003906 358.761719 232.625 358.671875 232.742188 358.378906 C 232.859375 358.085938 232.28125 357.722656 231.988281 357.609375 C 231.945312 357.589844 228.339844 356.203125 225.5 360.660156 C 225.332031 360.929688 225.410156 361.28125 225.675781 361.449219 C 225.78125 361.515625 225.894531 361.542969 226.007812 361.539062 " fill-opacity="1" fill-rule="nonzero"/><path fill="#a2bbc9" d="M 223.21875 359.117188 C 223.398438 359.109375 223.570312 359.015625 223.671875 358.851562 C 226.246094 354.820312 229.769531 356.164062 229.917969 356.222656 C 230.210938 356.339844 229.832031 356.25 229.945312 355.957031 C 230.066406 355.664062 229.488281 355.300781 229.195312 355.1875 C 229.152344 355.167969 225.546875 353.78125 222.707031 358.238281 C 222.539062 358.503906 222.617188 358.859375 222.882812 359.027344 C 222.988281 359.089844 223.101562 359.121094 223.21875 359.117188 " fill-opacity="1" fill-rule="nonzero"/><path fill="#32151a" d="M 217.664062 348.308594 L 217.707031 348.390625 C 217.75 348.429688 217.8125 348.46875 217.914062 348.507812 C 218.113281 348.574219 218.425781 348.613281 218.796875 348.636719 C 219.171875 348.65625 219.609375 348.664062 220.078125 348.660156 C 220.542969 348.648438 221.054688 348.644531 221.542969 348.609375 C 222.0625 348.59375 222.542969 348.554688 223.015625 348.519531 C 223.484375 348.480469 223.921875 348.433594 224.289062 348.378906 C 224.65625 348.320312 224.957031 348.253906 225.152344 348.167969 C 225.25 348.125 225.316406 348.074219 225.351562 348.027344 L 225.386719 347.945312 C 225.386719 347.945312 225.386719 347.980469 225.386719 348.042969 C 225.371094 348.105469 225.328125 348.199219 225.238281 348.28125 C 225.066406 348.453125 224.769531 348.632812 224.398438 348.78125 C 224.03125 348.929688 223.585938 349.058594 223.105469 349.148438 C 222.628906 349.246094 222.089844 349.304688 221.585938 349.332031 C 221.054688 349.347656 220.539062 349.347656 220.046875 349.292969 C 219.558594 349.246094 219.105469 349.160156 218.722656 349.042969 C 218.34375 348.929688 218.03125 348.785156 217.84375 348.628906 C 217.746094 348.554688 217.691406 348.460938 217.671875 348.402344 L 217.664062 348.308594 " fill-opacity="1" fill-rule="nonzero"/><g clip-path="url(#61fbabcf7e)"><path fill="#3873ac" d="M 200.039062 354.109375 C 200.039062 354.109375 183.601562 368.15625 182.382812 370.53125 C 181.09375 373.035156 183.457031 374.78125 185.964844 374.261719 C 188.523438 373.734375 206.136719 368.015625 209.101562 363.316406 C 209.101562 363.316406 210.796875 356.105469 209.195312 354 L 200.039062 354.109375 " fill-opacity="1" fill-rule="nonzero"/><path fill="#346594" d="M 209.101562 363.316406 C 209.101562 363.316406 210.796875 356.105469 209.195312 354 L 201.648438 354.089844 C 200.957031 354.308594 200.554688 354.621094 200.632812 355.058594 C 201.039062 357.273438 207 357.910156 207 357.910156 C 207 357.910156 207.398438 360.371094 205.6875 362.839844 C 203.976562 365.304688 185.273438 371.363281 184.035156 370.605469 C 183.609375 370.347656 183.761719 369.480469 184.144531 368.457031 C 183.226562 369.398438 182.585938 370.132812 182.382812 370.53125 C 181.09375 373.035156 183.457031 374.78125 185.964844 374.261719 C 188.523438 373.734375 206.136719 368.015625 209.101562 363.316406 " fill-opacity="1" fill-rule="nonzero"/></g><path fill="#a2bbc9" d="M 210.105469 352.792969 C 210.015625 354.757812 207.496094 356.238281 204.480469 356.101562 C 201.460938 355.957031 199.089844 354.246094 199.183594 352.28125 C 199.277344 350.3125 201.796875 348.832031 204.8125 348.972656 C 207.828125 349.113281 210.199219 350.824219 210.105469 352.792969 " fill-opacity="1" fill-rule="nonzero"/><path fill="#a9c0bd" d="M 210.105469 352.8125 C 210.105469 352.808594 210.105469 352.808594 210.105469 352.804688 C 210.105469 352.808594 210.105469 352.808594 210.105469 352.8125 M 210.105469 352.800781 C 210.105469 352.796875 210.105469 352.792969 210.105469 352.792969 C 210.105469 352.789062 210.109375 352.785156 210.109375 352.78125 C 210.109375 352.785156 210.105469 352.789062 210.105469 352.792969 C 210.105469 352.792969 210.105469 352.796875 210.105469 352.800781 M 210.109375 352.78125 C 210.128906 352.285156 209.996094 351.808594 209.730469 351.367188 C 209.996094 351.808594 210.128906 352.285156 210.109375 352.78125 M 209.730469 351.363281 C 209.726562 351.359375 209.726562 351.359375 209.726562 351.355469 C 209.726562 351.359375 209.726562 351.359375 209.730469 351.363281 " fill-opacity="1" fill-rule="nonzero"/><path fill="#85aaae" d="M 207.164062 355.769531 C 207.816406 354.761719 207.761719 353.929688 207.761719 353.929688 C 207.074219 354.109375 206.386719 354.183594 205.714844 354.183594 C 202.957031 354.183594 200.441406 352.914062 199.199219 352.167969 C 199.3125 350.960938 200.34375 349.949219 201.835938 349.402344 L 206.898438 349.34375 C 208.1875 349.757812 209.203125 350.484375 209.726562 351.355469 C 209.726562 351.359375 209.726562 351.359375 209.730469 351.363281 C 209.730469 351.363281 209.730469 351.363281 209.730469 351.367188 C 209.996094 351.808594 210.128906 352.285156 210.109375 352.78125 C 210.109375 352.785156 210.105469 352.789062 210.105469 352.792969 C 210.105469 352.792969 210.105469 352.796875 210.105469 352.800781 C 210.105469 352.804688 210.105469 352.804688 210.105469 352.804688 C 210.105469 352.808594 210.105469 352.808594 210.105469 352.8125 C 210.035156 354.136719 208.855469 355.238281 207.164062 355.769531 " fill-opacity="1" fill-rule="nonzero"/><path fill="#a2bbc9" d="M 210.589844 349.003906 C 210.492188 351.082031 207.832031 352.644531 204.648438 352.492188 C 201.464844 352.347656 198.960938 350.539062 199.058594 348.460938 C 199.15625 346.386719 201.820312 344.824219 205.003906 344.972656 C 208.183594 345.117188 210.6875 346.925781 210.589844 349.003906 " fill-opacity="1" fill-rule="nonzero"/><path fill="#ffffff" d="M 210.425781 347.988281 C 209.824219 346.367188 207.652344 345.097656 205.003906 344.972656 C 202.5 344.851562 200.320312 345.800781 199.457031 347.214844 C 201.648438 346.53125 206.644531 345.417969 210.425781 347.988281 " fill-opacity="1" fill-rule="nonzero"/><path fill="#181316" d="M 206.710938 299.285156 L 206.019531 348.703125 L 203.628906 348.761719 L 200.679688 299.429688 L 206.710938 299.285156 " fill-opacity="1" fill-rule="nonzero"/><path fill="#a2bbc9" d="M 200.367188 361.539062 C 200.1875 361.53125 200.015625 361.441406 199.910156 361.273438 C 197.34375 357.246094 193.816406 358.585938 193.667969 358.644531 C 193.375 358.761719 193.753906 358.671875 193.636719 358.378906 C 193.519531 358.085938 194.09375 357.722656 194.386719 357.609375 C 194.433594 357.589844 198.042969 356.203125 200.878906 360.660156 C 201.046875 360.929688 200.96875 361.28125 200.703125 361.449219 C 200.597656 361.515625 200.480469 361.542969 200.367188 361.539062 " fill-opacity="1" fill-rule="nonzero"/><path fill="#a2bbc9" d="M 203.160156 359.117188 C 202.980469 359.109375 202.808594 359.015625 202.699219 358.851562 C 200.136719 354.820312 196.609375 356.164062 196.460938 356.222656 C 196.164062 356.339844 196.546875 356.25 196.429688 355.957031 C 196.3125 355.664062 196.886719 355.300781 197.179688 355.1875 C 197.226562 355.167969 200.832031 353.78125 203.667969 358.238281 C 203.839844 358.503906 203.761719 358.859375 203.492188 359.027344 C 203.390625 359.089844 203.273438 359.121094 203.160156 359.117188 " fill-opacity="1" fill-rule="nonzero"/><path fill="#32151a" d="M 208.714844 348.308594 L 208.707031 348.402344 C 208.683594 348.460938 208.632812 348.554688 208.535156 348.628906 C 208.347656 348.785156 208.039062 348.929688 207.652344 349.042969 C 207.273438 349.160156 206.816406 349.246094 206.328125 349.292969 C 205.839844 349.347656 205.320312 349.347656 204.792969 349.332031 C 204.289062 349.304688 203.75 349.246094 203.273438 349.148438 C 202.792969 349.058594 202.347656 348.929688 201.976562 348.78125 C 201.609375 348.632812 201.3125 348.457031 201.140625 348.28125 C 201.050781 348.199219 201.007812 348.105469 200.992188 348.042969 C 200.992188 347.980469 200.992188 347.945312 200.992188 347.945312 L 201.027344 348.027344 C 201.066406 348.074219 201.128906 348.125 201.222656 348.167969 C 201.417969 348.253906 201.722656 348.320312 202.089844 348.378906 C 202.460938 348.433594 202.894531 348.480469 203.363281 348.519531 C 203.835938 348.554688 204.316406 348.59375 204.832031 348.609375 C 205.328125 348.644531 205.832031 348.648438 206.300781 348.660156 C 206.769531 348.664062 207.207031 348.65625 207.578125 348.636719 C 207.953125 348.613281 208.261719 348.574219 208.460938 348.507812 C 208.5625 348.46875 208.628906 348.429688 208.671875 348.390625 L 208.714844 348.308594 " fill-opacity="1" fill-rule="nonzero"/><path fill="#32151a" d="M 213.769531 298.003906 C 213.769531 298.003906 214.074219 298.003906 214.597656 298.015625 C 215.121094 298.03125 215.863281 298.050781 216.742188 298.105469 C 217.183594 298.128906 217.660156 298.140625 218.160156 298.1875 C 218.65625 298.214844 219.183594 298.242188 219.730469 298.277344 C 220.816406 298.339844 221.96875 298.425781 223.117188 298.464844 C 223.691406 298.511719 224.261719 298.507812 224.828125 298.535156 C 225.390625 298.5625 225.941406 298.535156 226.476562 298.554688 C 227.015625 298.558594 227.527344 298.535156 228.019531 298.535156 C 228.511719 298.503906 228.976562 298.476562 229.402344 298.449219 C 229.832031 298.414062 230.214844 298.34375 230.570312 298.3125 C 230.929688 298.277344 231.230469 298.210938 231.480469 298.15625 C 231.984375 298.050781 232.292969 298.003906 232.292969 298.003906 C 232.292969 298.003906 232.0625 298.191406 231.617188 298.492188 C 231.398438 298.640625 231.128906 298.835938 230.785156 298.972656 C 230.449219 299.125 230.066406 299.332031 229.628906 299.46875 C 229.195312 299.605469 228.71875 299.773438 228.207031 299.882812 C 227.695312 299.976562 227.148438 300.113281 226.585938 300.171875 C 226.015625 300.214844 225.425781 300.304688 224.832031 300.300781 C 224.238281 300.316406 223.632812 300.324219 223.03125 300.285156 C 222.429688 300.257812 221.828125 300.214844 221.242188 300.132812 C 220.652344 300.078125 220.082031 299.972656 219.53125 299.875 C 218.976562 299.78125 218.449219 299.640625 217.949219 299.523438 C 217.449219 299.402344 216.984375 299.265625 216.554688 299.128906 C 215.699219 298.863281 215 298.582031 214.515625 298.371094 C 214.035156 298.15625 213.769531 298.003906 213.769531 298.003906 " fill-opacity="1" fill-rule="nonzero"/><path fill="#32151a" d="M 191.730469 298.003906 C 191.730469 298.003906 192.035156 298.003906 192.554688 298.015625 C 193.078125 298.03125 193.820312 298.050781 194.699219 298.105469 C 195.140625 298.128906 195.617188 298.140625 196.117188 298.1875 C 196.617188 298.214844 197.144531 298.242188 197.691406 298.277344 C 198.777344 298.339844 199.925781 298.425781 201.074219 298.464844 C 201.652344 298.511719 202.222656 298.507812 202.785156 298.535156 C 203.351562 298.5625 203.898438 298.535156 204.4375 298.554688 C 204.972656 298.558594 205.484375 298.535156 205.980469 298.535156 C 206.472656 298.503906 206.9375 298.476562 207.363281 298.449219 C 207.792969 298.414062 208.175781 298.34375 208.535156 298.3125 C 208.890625 298.277344 209.1875 298.210938 209.441406 298.15625 C 209.945312 298.050781 210.25 298.003906 210.25 298.003906 C 210.25 298.003906 210.023438 298.191406 209.578125 298.492188 C 209.359375 298.640625 209.085938 298.835938 208.746094 298.972656 C 208.40625 299.125 208.027344 299.332031 207.589844 299.46875 C 207.15625 299.605469 206.679688 299.773438 206.164062 299.882812 C 205.652344 299.976562 205.109375 300.113281 204.542969 300.171875 C 203.976562 300.214844 203.386719 300.304688 202.792969 300.300781 C 202.195312 300.316406 201.589844 300.324219 200.992188 300.285156 C 200.386719 300.257812 199.789062 300.214844 199.199219 300.132812 C 198.613281 300.078125 198.042969 299.972656 197.488281 299.875 C 196.933594 299.78125 196.410156 299.640625 195.90625 299.523438 C 195.40625 299.402344 194.941406 299.265625 194.515625 299.128906 C 193.65625 298.863281 192.957031 298.582031 192.476562 298.371094 C 191.992188 298.15625 191.730469 298.003906 191.730469 298.003906 " fill-opacity="1" fill-rule="nonzero"/><path fill="#32151a" d="M 149.167969 152.265625 L 149.214844 152.347656 C 149.433594 152.726562 150.3125 154.425781 150.3125 156.410156 C 150.308594 157.949219 149.800781 159.652344 148.042969 161.125 L 148.320312 161.457031 C 150.175781 159.902344 150.746094 158.042969 150.742188 156.410156 C 150.738281 153.996094 149.542969 152.058594 149.535156 152.042969 L 149.167969 152.265625 " fill-opacity="1" fill-rule="nonzero"/><path fill="#32151a" d="M 237.285156 210.855469 C 237.285156 210.855469 237.578125 210.910156 238.066406 211.070312 C 238.308594 211.152344 238.617188 211.234375 238.945312 211.375 C 239.273438 211.5 239.648438 211.648438 240.050781 211.828125 C 240.453125 211.996094 240.875 212.214844 241.316406 212.449219 C 241.753906 212.691406 242.242188 212.910156 242.695312 213.210938 C 243.15625 213.496094 243.632812 213.800781 244.109375 214.117188 C 244.59375 214.425781 245.046875 214.785156 245.507812 215.140625 C 245.964844 215.503906 246.421875 215.863281 246.855469 216.234375 C 247.304688 216.59375 247.691406 217.007812 248.082031 217.386719 C 248.472656 217.765625 248.832031 218.15625 249.179688 218.515625 C 249.53125 218.863281 249.820312 219.246094 250.089844 219.59375 C 250.628906 220.285156 251.046875 220.882812 251.328125 221.308594 C 251.609375 221.734375 251.753906 221.992188 251.753906 221.992188 C 251.753906 221.992188 251.492188 221.84375 251.0625 221.5625 C 250.636719 221.28125 250.039062 220.871094 249.359375 220.347656 C 248.695312 219.8125 247.863281 219.253906 247.023438 218.605469 C 246.601562 218.289062 246.1875 217.929688 245.738281 217.601562 C 245.285156 217.277344 244.839844 216.929688 244.394531 216.582031 C 243.523438 215.863281 242.601562 215.214844 241.78125 214.535156 C 241.371094 214.199219 240.960938 213.894531 240.578125 213.585938 C 240.1875 213.292969 239.84375 212.976562 239.503906 212.71875 C 238.828125 212.1875 238.285156 211.710938 237.898438 211.386719 C 237.507812 211.050781 237.285156 210.855469 237.285156 210.855469 " fill-opacity="1" fill-rule="nonzero"/></svg>